<?xml version="1.0" encoding="utf-8"?>
<!-- Generator: Adobe Illustrator 25.4.1, SVG Export Plug-In . SVG Version: 6.00 Build 0)  -->
<svg version="1.1" id="Layer_1" xmlns="http://www.w3.org/2000/svg" xmlns:xlink="http://www.w3.org/1999/xlink" x="0px" y="0px"
	 viewBox="0 0 500 500" style="enable-background:new 0 0 500 500;" xml:space="preserve">
<style type="text/css">
	.st0{clip-path:url(#SVGID_00000139258490826639499880000003051919649031784363_);fill:#BBBBBC;}
	.st1{clip-path:url(#SVGID_00000013189222037748792090000013164883880698543284_);fill:#2F5268;}
	.st2{clip-path:url(#SVGID_00000017474213839853960370000000969135544223756204_);}
	.st3{fill:none;stroke:#2C2D40;stroke-width:0.5266;stroke-miterlimit:10;}
	.st4{fill:#2C2D40;}
	.st5{clip-path:url(#SVGID_00000060027645619265244240000001385391268167119796_);fill:#2C2D40;}
	.st6{clip-path:url(#SVGID_00000042013205411001457490000002475908527955325112_);fill:#E7A797;}
	.st7{clip-path:url(#SVGID_00000039851529777061791420000004522660213171478404_);fill:#2C2D40;}
	.st8{clip-path:url(#SVGID_00000079466553271833096810000001537840905251768736_);}
	.st9{fill:#DB9B8F;}
	.st10{fill:#B7847D;}
	.st11{clip-path:url(#SVGID_00000046301210458280672860000015215016431027029675_);}
	.st12{fill:#BFCDF2;}
	.st13{clip-path:url(#SVGID_00000102545242680453974230000006851390661749408941_);fill:#2C2D40;}
	.st14{clip-path:url(#SVGID_00000168810959684497917750000003284459361866321570_);fill:#2F5268;}
	.st15{clip-path:url(#SVGID_00000051378510602937326260000015222229231511280021_);fill:#E7A797;}
	.st16{clip-path:url(#SVGID_00000029739671443872178750000011670733202250516659_);}
	.st17{clip-path:url(#SVGID_00000062888176440809681910000000204614139847074720_);fill:#2C2D40;}
	.st18{clip-path:url(#SVGID_00000127730378172889375740000015386964351404589742_);}
	.st19{clip-path:url(#SVGID_00000091737955710439959760000015599505297382435200_);fill:#2C2D40;}
	.st20{clip-path:url(#SVGID_00000078745685341267674670000006312001700826570114_);fill:none;stroke:#2C2D40;stroke-miterlimit:10;}
</style>
<g id="BACKGROUND">
</g>
<g id="OBJECTS">
	<g>
		<g>
			<defs>
				<path id="SVGID_1_" d="M482.48,266.49c0,128.21-103.94,232.15-232.15,232.15S18.18,394.7,18.18,266.49S122.12-37.7,250.33-37.7
					C378.54-37.7,482.48,138.28,482.48,266.49z"/>
			</defs>
			<clipPath id="SVGID_00000030476405561555614070000004805915261349030035_">
				<use xlink:href="#SVGID_1_"  style="overflow:visible;"/>
			</clipPath>
			
				<circle style="clip-path:url(#SVGID_00000030476405561555614070000004805915261349030035_);fill:#BBBBBC;" cx="250.33" cy="266.49" r="232.15"/>
		</g>
		<g>
			<defs>
				<path id="SVGID_00000007402351239820713900000014180558851351139732_" d="M482.48,266.49c0,128.21-103.94,232.15-232.15,232.15
					S18.18,394.7,18.18,266.49S122.12-37.7,250.33-37.7C378.54-37.7,482.48,138.28,482.48,266.49z"/>
			</defs>
			<clipPath id="SVGID_00000088847316161777370590000006340195600697669269_">
				<use xlink:href="#SVGID_00000007402351239820713900000014180558851351139732_"  style="overflow:visible;"/>
			</clipPath>
			<path style="clip-path:url(#SVGID_00000088847316161777370590000006340195600697669269_);fill:#2F5268;" d="M126.84,165.57
				c0,0,40.72-22.66,100.52-38.97s119.58-21.9,119.58-21.9s-63.73,47.6-106.73,56.49C197.21,170.09,126.84,165.57,126.84,165.57z"/>
		</g>
		<g>
			<defs>
				<path id="SVGID_00000121971381960612772720000013684601782131364015_" d="M482.48,266.49c0,128.21-103.94,232.15-232.15,232.15
					S18.18,394.7,18.18,266.49S122.12-37.7,250.33-37.7C378.54-37.7,482.48,138.28,482.48,266.49z"/>
			</defs>
			<clipPath id="SVGID_00000075126338185730093950000013675047973157215364_">
				<use xlink:href="#SVGID_00000121971381960612772720000013684601782131364015_"  style="overflow:visible;"/>
			</clipPath>
			<g style="clip-path:url(#SVGID_00000075126338185730093950000013675047973157215364_);">
				<circle class="st3" cx="91.51" cy="122.55" r="7.82"/>
				<path class="st3" d="M336.44,48.09c0,4.32,3.5,7.82,7.82,7.82s7.82-3.5,7.82-7.82s-3.5-7.82-7.82-7.82
					S336.44,43.77,336.44,48.09z"/>
				<circle class="st3" cx="95.71" cy="78.5" r="7.82"/>
				<path class="st4" d="M119.6,142.8c0,2.16,1.75,3.91,3.91,3.91s3.91-1.75,3.91-3.91s-1.75-3.91-3.91-3.91
					C121.35,138.9,119.6,140.65,119.6,142.8z"/>
				<path class="st4" d="M320.42,18.44c0,2.16,1.75,3.91,3.91,3.91s3.91-1.75,3.91-3.91s-1.75-3.91-3.91-3.91
					C322.17,14.53,320.42,16.28,320.42,18.44z"/>
				<path class="st4" d="M337.2,86.89c0,2.16,1.75,3.91,3.91,3.91s3.91-1.75,3.91-3.91s-1.75-3.91-3.91-3.91
					C338.95,82.98,337.2,84.73,337.2,86.89z"/>
			</g>
		</g>
		<g>
			<defs>
				<path id="SVGID_00000148627833345136209870000013885767642116774329_" d="M482.48,266.49c0,128.21-103.94,232.15-232.15,232.15
					S18.18,394.7,18.18,266.49S122.12-37.7,250.33-37.7C378.54-37.7,482.48,138.28,482.48,266.49z"/>
			</defs>
			<clipPath id="SVGID_00000046330972460411406410000001192668812634982320_">
				<use xlink:href="#SVGID_00000148627833345136209870000013885767642116774329_"  style="overflow:visible;"/>
			</clipPath>
			<path style="clip-path:url(#SVGID_00000046330972460411406410000001192668812634982320_);fill:#2C2D40;" d="M346.94,104.7
				c0,0,17.02,5.3,31.84,4.68s34.01-11.12,34.01-11.12s-5.3,33.4-16.71,43.85c12.59-1.72,24.83-8.12,30.77-19.35
				c1.93,7.03,3.88,14.19,3.57,21.48c-0.5,11.74-7.06,22.74-16.22,30.11c-9.16,7.36-20.7,11.33-32.35,12.88"/>
		</g>
		<g>
			<defs>
				<path id="SVGID_00000156569910821403638850000001547770858338198924_" d="M482.48,266.49c0,128.21-103.94,232.15-232.15,232.15
					S18.18,394.7,18.18,266.49S122.12-37.7,250.33-37.7C378.54-37.7,482.48,138.28,482.48,266.49z"/>
			</defs>
			<clipPath id="SVGID_00000111889058384739204360000013763494557934489775_">
				<use xlink:href="#SVGID_00000156569910821403638850000001547770858338198924_"  style="overflow:visible;"/>
			</clipPath>
			<path style="clip-path:url(#SVGID_00000111889058384739204360000013763494557934489775_);fill:#E7A797;" d="M195.94,309.84
				l99.08-162.02l63.56-20.56c0,0,16.83,31.78,22.43,49.85c5.61,18.07,8.72,38.64,8.72,38.64l23.49,42.2
				c3.36,6.03,0.63,13.64-5.79,16.18l-10.78,4.25c0,0-2.64,58.34-4.46,67.24c-2.11,10.3-6.46,21.34-15.94,25.91
				c-4.51,2.18-9.66,2.6-14.67,2.77c-16.98,0.58-34.04-1.25-50.51-5.43l-53.89,95.91l-107.37-74.54L195.94,309.84z"/>
		</g>
		<g>
			<defs>
				<path id="SVGID_00000133517109750088143140000002673847558779914380_" d="M482.48,266.49c0,128.21-103.94,232.15-232.15,232.15
					S18.18,394.7,18.18,266.49S122.12-37.7,250.33-37.7C378.54-37.7,482.48,138.28,482.48,266.49z"/>
			</defs>
			<clipPath id="SVGID_00000044858733687836988070000016657398352979232656_">
				<use xlink:href="#SVGID_00000133517109750088143140000002673847558779914380_"  style="overflow:visible;"/>
			</clipPath>
			<path style="clip-path:url(#SVGID_00000044858733687836988070000016657398352979232656_);fill:#2C2D40;" d="M126.84,165.57
				c-20.38,37.05,0.33,76.44,6.21,91.47s14.55,28.8,23.62,42.16c4.15,6.11,8.43,12.23,11.08,19.13s3.52,14.78,0.74,21.62
				c3.55,0.25,7.17-1.5,9.19-4.42c-2.47,3.24-4.74,8.37-1.49,10.82c2.15,1.62,5.2,0.64,7.68-0.39c6.64-2.76,13.37-5.59,18.98-10.08
				c7.36-5.89,12.3-14.24,16.53-22.66c9.72-19.32,16.63-40.05,20.44-61.34c9.55-1.14-28.35,31.94,18.95,7.8s39.11-53.56,37.7-65.87
				c6.98-0.3,70.64-48.92,74.32-43.22c0.24,0.37,0.13,0.12,0.35,0.5c5.5-8.33,4.38-19.87-0.92-28.33
				c-5.29-8.47-14.08-14.22-23.3-18.05c0,0-36.6,27.12-108.07,43.48C167.38,164.54,126.84,165.57,126.84,165.57z"/>
		</g>
		<g>
			<defs>
				<path id="SVGID_00000055696011433195631150000003090400071872312718_" d="M482.48,266.49c0,128.21-103.94,232.15-232.15,232.15
					S18.18,394.7,18.18,266.49S122.12-37.7,250.33-37.7C378.54-37.7,482.48,138.28,482.48,266.49z"/>
			</defs>
			<clipPath id="SVGID_00000084528287712446226860000016268064986653198269_">
				<use xlink:href="#SVGID_00000055696011433195631150000003090400071872312718_"  style="overflow:visible;"/>
			</clipPath>
			<g style="clip-path:url(#SVGID_00000084528287712446226860000016268064986653198269_);">
				<path class="st9" d="M213.77,236.24c0.85,14.28,8.1,28.06,19.39,36.86c3.53,2.75,7.55,5.08,11.98,5.76
					c9.98,1.55,19.73-5.93,23.58-15.26c3.85-9.34,2.94-19.96,0.69-29.8c-2.91-12.73-9.39-26.37-21.81-30.37
					C227.56,196.96,212.72,218.55,213.77,236.24z"/>
				<path class="st10" d="M257.95,267.58c-4.28-1.7-8.07-4.61-10.79-8.32c-0.55-0.74-1.07-1.56-1.14-2.49
					c-0.14-1.76,1.34-3.19,2.69-4.33c2.73-2.31,5.47-4.61,8.2-6.92c0.55-0.46,1.11-0.95,1.36-1.62c0.27-0.74,0.11-1.55-0.05-2.32
					c-2.07-9.79-4.61-20.36-12.38-26.67c-2.1-1.7-4.58-3.04-7.27-3.31c-3.99-0.41-7.93,1.61-10.74,4.47
					c-2.82,2.86-4.69,6.49-6.44,10.1c0,0-3.8,20.28,9.39,33.77C243.95,273.42,257.95,267.58,257.95,267.58z"/>
				<g>
					<path class="st9" d="M221.37,226.16c1.62-3.79,3.46-7.6,6.4-10.68c1.49-1.51,3.26-2.77,5.24-3.61
						c1.98-0.84,4.23-1.22,6.42-0.86c2.19,0.34,4.21,1.31,5.96,2.56c1.74,1.27,3.32,2.73,4.66,4.4c2.7,3.33,4.53,7.23,5.89,11.2
						c1.35,3.98,2.25,8.06,3.09,12.12c0.1,0.51,0.23,1.06,0.23,1.71c0.02,0.63-0.2,1.42-0.61,1.95c-0.39,0.54-0.85,0.91-1.25,1.24
						l-1.2,0.99c-1.59,1.32-3.2,2.63-4.81,3.92l-2.41,1.95c-0.78,0.64-1.52,1.3-1.99,2.08c-0.49,0.77-0.6,1.63-0.25,2.48
						c0.34,0.84,1,1.67,1.61,2.47c2.47,3.23,5.82,5.79,9.58,7.51c-3.93-1.34-7.48-3.79-10.28-6.93c-0.68-0.81-1.38-1.58-1.87-2.64
						c-0.53-1.05-0.41-2.48,0.19-3.47c0.57-1.02,1.38-1.78,2.16-2.48l2.33-2.05c1.55-1.37,3.11-2.73,4.68-4.08
						c0.75-0.68,1.69-1.36,2.11-1.96c0.21-0.31,0.27-0.56,0.27-0.97c-0.01-0.39-0.11-0.85-0.22-1.35
						c-0.89-4.03-1.79-8.04-3.13-11.89c-1.28-3.85-3.03-7.56-5.5-10.7c-2.45-3.11-5.7-5.84-9.51-6.66
						c-1.89-0.39-3.89-0.15-5.74,0.55c-1.86,0.69-3.57,1.81-5.04,3.18C225.38,218.86,223.36,222.55,221.37,226.16z"/>
				</g>
			</g>
		</g>
		<g>
			<defs>
				<path id="SVGID_00000111163684584908238970000010817280876731560600_" d="M482.48,266.49c0,128.21-103.94,232.15-232.15,232.15
					S18.18,394.7,18.18,266.49S122.12-37.7,250.33-37.7C378.54-37.7,482.48,138.28,482.48,266.49z"/>
			</defs>
			<clipPath id="SVGID_00000129904283453746063320000003111707191866799492_">
				<use xlink:href="#SVGID_00000111163684584908238970000010817280876731560600_"  style="overflow:visible;"/>
			</clipPath>
			<g style="clip-path:url(#SVGID_00000129904283453746063320000003111707191866799492_);">
				<g>
					<path class="st12" d="M185.52,181.71c-0.96,4.65-2.35,9.22-4.06,13.67c-0.88,2.22-1.84,4.4-2.88,6.54
						c-1.06,2.13-2.13,4.27-3.48,6.28c-0.68,1-1.46,1.95-2.37,2.78c-0.9,0.82-1.99,1.56-3.25,1.87c-0.63,0.15-1.31,0.21-1.98,0.05
						c-0.67-0.15-1.31-0.54-1.74-1.09c-0.87-1.12-0.98-2.45-1.11-3.61c-0.51-4.76-0.52-9.58,0.07-14.33l1.01,0.2
						c-1.65,5.74-5.07,10.92-9.68,14.69c-1.12,0.88-2.42,2.03-4.22,1.89c-0.44-0.06-0.9-0.27-1.21-0.61
						c-0.33-0.33-0.5-0.77-0.59-1.17c-0.16-0.81-0.13-1.53-0.15-2.27c-0.01-2.97,0.42-5.93,1.29-8.76l0.53,0.26
						c-1.67,2.31-3.45,4.59-5.6,6.5c-1.08,0.95-2.25,1.8-3.54,2.44s-2.69,1.04-4.12,1.13c2.87-0.31,5.4-1.88,7.43-3.82
						c2.05-1.95,3.72-4.27,5.35-6.6c0.09-0.13,0.28-0.17,0.41-0.07c0.11,0.07,0.15,0.21,0.12,0.32v0.01
						c-0.79,2.79-1.15,5.69-1.08,8.58c0.03,0.71,0.04,1.48,0.18,2.1c0.14,0.63,0.55,1.04,1.11,1.1c0.57,0.06,1.24-0.17,1.82-0.49
						c0.59-0.31,1.13-0.79,1.7-1.24c4.44-3.68,7.71-8.73,9.26-14.27c0.08-0.28,0.36-0.44,0.64-0.36c0.25,0.07,0.4,0.31,0.38,0.56
						c-0.55,4.68-0.62,9.42-0.14,14.11c0.11,1.16,0.26,2.33,0.89,3.12c0.61,0.81,1.72,1,2.77,0.73c1.07-0.26,2.02-0.87,2.87-1.64
						c0.85-0.77,1.61-1.64,2.29-2.59c1.34-1.9,2.46-4.01,3.55-6.11c1.08-2.1,2.08-4.25,3-6.44
						C182.84,190.82,184.32,186.31,185.52,181.71z"/>
				</g>
				<g>
					<path class="st12" d="M166.41,239.37c1.45,2.88,2.7,5.87,3.71,8.95c1,3.08,1.88,6.19,2.43,9.42c0.25,1.61,0.34,3.42-0.58,5.03
						c-0.23,0.39-0.54,0.76-0.95,1.04c-0.4,0.29-0.92,0.45-1.42,0.44c-1.02-0.02-1.81-0.54-2.49-1.01
						c-2.67-1.96-4.83-4.59-6.24-7.57l0.84-0.39c0.66,1.52,1.22,3.13,1.41,4.82c0.2,1.68,0,3.44-0.72,4.99
						c-0.7,1.54-2,2.9-3.65,3.37c-1.6,0.5-3.5,0.25-4.7-0.91c1.3,1.03,3.11,1.13,4.58,0.57c1.5-0.55,2.6-1.84,3.2-3.28
						c0.61-1.46,0.73-3.08,0.48-4.64c-0.25-1.56-0.78-3.08-1.45-4.55c-0.11-0.23,0-0.51,0.23-0.61s0.5-0.01,0.61,0.22v0.01
						c1.38,2.83,3.47,5.3,6.02,7.12c0.61,0.45,1.27,0.84,1.89,0.85c0.6,0.03,1.15-0.38,1.52-0.98c0.73-1.23,0.73-2.85,0.51-4.39
						c-0.53-3.13-1.21-6.29-2.1-9.37C168.65,245.41,167.61,242.36,166.41,239.37z"/>
				</g>
				<g>
					<path class="st12" d="M207.45,288.48c0.11,2.95-0.19,5.95-0.93,8.84c-0.37,1.44-0.83,2.87-1.39,4.26s-1.18,2.74-2.03,4.03
						c-0.84,1.26-2.06,2.48-3.68,2.88c-0.79,0.2-1.65,0.22-2.47-0.05c-0.82-0.25-1.54-0.87-1.97-1.57c-0.44-0.7-0.69-1.44-0.92-2.15
						c-0.23-0.72-0.42-1.46-0.56-2.2c-0.29-1.49-0.4-3.01-0.34-4.52c0.01-0.25,0.22-0.45,0.47-0.45c0.24,0.01,0.44,0.21,0.45,0.45
						c0.03,1.42,0.05,2.89-0.24,4.35c-0.27,1.44-0.89,2.9-1.98,3.95c-1.04,1.06-2.63,1.71-4.11,1.35c-1.47-0.34-2.59-1.4-3.44-2.53
						c0.96,1.04,2.13,1.98,3.5,2.19c1.37,0.22,2.7-0.45,3.61-1.43c0.94-0.99,1.44-2.3,1.63-3.66c0.19-1.36,0.14-2.77,0.1-4.19h0.92
						c-0.04,1.44,0.09,2.89,0.39,4.29c0.15,0.7,0.34,1.4,0.57,2.08c0.23,0.68,0.48,1.36,0.84,1.9c0.65,1.15,2.01,1.54,3.31,1.22
						c1.3-0.29,2.36-1.28,3.15-2.44c1.53-2.41,2.73-5.15,3.59-7.93C206.76,294.34,207.29,291.44,207.45,288.48z"/>
				</g>
				<g>
					<path class="st12" d="M278.15,157.33c-1.5,4.6-3.7,8.99-6.49,12.97c-1.39,2-2.95,3.88-4.62,5.65
						c-1.67,1.77-3.46,3.44-5.38,4.95s-3.94,2.89-6.07,4.09c-1.05,0.63-2.22,1.16-3.48,1.42c-0.63,0.13-1.3,0.18-1.98,0.06
						c-0.67-0.11-1.35-0.43-1.86-0.92c-1.06-1.02-1.25-2.45-1.36-3.65c-0.1-1.23-0.13-2.47-0.05-3.7c0.12-2.47,0.63-4.91,1.45-7.23
						v-0.01c0.09-0.27,0.38-0.41,0.65-0.31c0.25,0.09,0.39,0.35,0.33,0.6c-0.37,1.51-0.9,2.98-1.56,4.38
						c-0.69,1.39-1.52,2.7-2.46,3.93c-0.96,1.22-2.04,2.33-3.21,3.34c-1.18,1-2.47,1.87-3.82,2.62c-1.36,0.73-2.81,1.29-4.3,1.72
						c-1.48,0.4-3.03,0.7-4.62,0.56c-0.78-0.07-1.58-0.25-2.3-0.62c-0.37-0.18-0.7-0.4-1.01-0.68c-0.35-0.3-0.52-0.73-0.63-1.13
						c-0.16-0.83-0.05-1.63,0.13-2.38c0.19-0.76,0.45-1.48,0.79-2.19l0.34,0.31c-1.81,0.98-3.66,1.87-5.56,2.64
						c-0.95,0.39-1.91,0.75-2.9,1.03c-0.99,0.28-1.99,0.52-3.02,0.57c1.02-0.1,2.01-0.38,2.97-0.7c0.97-0.32,1.91-0.71,2.84-1.13
						c1.86-0.83,3.67-1.79,5.43-2.82c0.11-0.07,0.26-0.03,0.33,0.09c0.04,0.07,0.04,0.14,0.02,0.21l-0.01,0.02
						c-0.54,1.34-1.04,2.87-0.77,4.22c0.1,0.31,0.23,0.62,0.47,0.81c0.25,0.22,0.56,0.42,0.88,0.56c0.64,0.31,1.35,0.46,2.07,0.51
						c1.45,0.1,2.92-0.21,4.34-0.63c1.42-0.44,2.79-1.01,4.09-1.74c1.29-0.73,2.52-1.57,3.65-2.54c1.11-0.98,2.14-2.05,3.05-3.22
						c0.89-1.18,1.68-2.45,2.33-3.77c0.62-1.34,1.11-2.74,1.46-4.18l0.98,0.28c-0.77,2.24-1.23,4.59-1.38,6.96
						c-0.08,1.18-0.06,2.37,0.03,3.55c0.09,1.16,0.29,2.33,1.04,3.02c0.72,0.72,1.87,0.85,2.97,0.63c1.11-0.22,2.19-0.69,3.21-1.3
						c2.1-1.15,4.08-2.52,6-3.96s3.72-3.04,5.4-4.76c1.69-1.71,3.27-3.53,4.68-5.48c1.42-1.94,2.77-3.95,3.91-6.07
						C276.27,161.79,277.28,159.59,278.15,157.33z"/>
				</g>
				<g>
					<path class="st12" d="M334.83,122.06c0.95,2.27,1.28,4.83,0.88,7.31c-0.42,2.48-1.72,4.84-3.68,6.49
						c-1.93,1.66-4.61,2.59-7.2,2.2c-2.55-0.36-5.06-1.82-6.29-4.2l0.95-0.12c-0.53,2.19-1.7,4.16-3.2,5.78s-3.32,2.92-5.31,3.83
						c-1.98,0.92-4.08,1.54-6.19,1.93c-2.12,0.38-4.26,0.59-6.4,0.69c4.23-0.61,8.5-1.37,12.26-3.31c1.85-0.98,3.56-2.24,4.95-3.78
						s2.44-3.38,2.9-5.38c0.06-0.28,0.34-0.45,0.61-0.39c0.15,0.03,0.27,0.13,0.33,0.25l0.01,0.01c1.09,2,3.23,3.38,5.52,3.72
						c2.3,0.39,4.68-0.42,6.52-1.89c1.87-1.45,3.18-3.59,3.69-5.95C335.73,126.92,335.55,124.41,334.83,122.06z"/>
				</g>
			</g>
		</g>
		<g>
			<defs>
				<path id="SVGID_00000135685612426692765940000013600716762339544749_" d="M482.48,266.49c0,128.21-103.94,232.15-232.15,232.15
					S18.18,394.7,18.18,266.49S122.12-37.7,250.33-37.7C378.54-37.7,482.48,138.28,482.48,266.49z"/>
			</defs>
			<clipPath id="SVGID_00000175320260394658276390000008400818135582346886_">
				<use xlink:href="#SVGID_00000135685612426692765940000013600716762339544749_"  style="overflow:visible;"/>
			</clipPath>
			<path style="clip-path:url(#SVGID_00000175320260394658276390000008400818135582346886_);fill:#2C2D40;" d="M311.68,369.19
				c-20.46-10.63-38.54-25.81-52.56-44.12c9.68,22.98,24.41,44.32,42.44,61.54"/>
		</g>
		<g>
			<defs>
				<path id="SVGID_00000050641268099710875210000014497744740957464714_" d="M482.48,266.49c0,128.21-103.94,232.15-232.15,232.15
					S18.18,394.7,18.18,266.49S122.12-37.7,250.33-37.7C378.54-37.7,482.48,138.28,482.48,266.49z"/>
			</defs>
			<clipPath id="SVGID_00000173152595398958902080000005546500784625876376_">
				<use xlink:href="#SVGID_00000050641268099710875210000014497744740957464714_"  style="overflow:visible;"/>
			</clipPath>
			<path style="clip-path:url(#SVGID_00000173152595398958902080000005546500784625876376_);fill:#2F5268;" d="M45.99,514.99
				c0,0,83.34-128.55,111.12-138.39c27.78-9.84,85.07,33.57,122.69,64.24s81.6,82.83,81.6,82.83L45.99,514.99z"/>
		</g>
		<g>
			<defs>
				<path id="SVGID_00000021816325601562297030000014207231813483704494_" d="M482.48,266.49c0,128.21-103.94,232.15-232.15,232.15
					S18.18,394.7,18.18,266.49S122.12-37.7,250.33-37.7C378.54-37.7,482.48,138.28,482.48,266.49z"/>
			</defs>
			<clipPath id="SVGID_00000102539978235019176120000004903563186825262466_">
				<use xlink:href="#SVGID_00000021816325601562297030000014207231813483704494_"  style="overflow:visible;"/>
			</clipPath>
			<path style="clip-path:url(#SVGID_00000102539978235019176120000004903563186825262466_);fill:#E7A797;" d="M316.46,264.31
				c0.86,9.03,13.11,15.24,27.34,13.88c14.24-1.36,25.08-9.79,24.21-18.81c-0.86-9.03-13.11-15.24-27.34-13.88
				C326.44,246.86,315.6,255.28,316.46,264.31z"/>
		</g>
		<g>
			<defs>
				<path id="SVGID_00000039109502127644052340000006561612517695551121_" d="M482.48,266.49c0,128.21-103.94,232.15-232.15,232.15
					S18.18,394.7,18.18,266.49S122.12-37.7,250.33-37.7C378.54-37.7,482.48,138.28,482.48,266.49z"/>
			</defs>
			<clipPath id="SVGID_00000173147341894472940050000004038931520701283758_">
				<use xlink:href="#SVGID_00000039109502127644052340000006561612517695551121_"  style="overflow:visible;"/>
			</clipPath>
			<g style="clip-path:url(#SVGID_00000173147341894472940050000004038931520701283758_);">
				<path class="st4" d="M399.32,271.17c-4.83,1.54-9.52,3.35-14,5.63l-0.56,0.28l-0.18-0.6c-1.58-5.16-1.14-10.95,1.32-15.66
					c-1.66,5.02-1.81,10.41-0.32,15.36l-0.74-0.32C389.41,273.59,394.3,271.92,399.32,271.17z"/>
			</g>
		</g>
		<g>
			<defs>
				<path id="SVGID_00000019648232195643490460000010609728895200431261_" d="M482.48,266.49c0,128.21-103.94,232.15-232.15,232.15
					S18.18,394.7,18.18,266.49S122.12-37.7,250.33-37.7C378.54-37.7,482.48,138.28,482.48,266.49z"/>
			</defs>
			<clipPath id="SVGID_00000060729120649276317720000015974148555747279753_">
				<use xlink:href="#SVGID_00000019648232195643490460000010609728895200431261_"  style="overflow:visible;"/>
			</clipPath>
			<path style="clip-path:url(#SVGID_00000060729120649276317720000015974148555747279753_);fill:#2C2D40;" d="M379.39,220.31
				c0,5.19-3.05,9.41-6.8,9.41s-6.8-4.21-6.8-9.41c0-5.19,3.05-9.41,6.8-9.41S379.39,215.12,379.39,220.31z"/>
		</g>
		<g>
			<defs>
				<path id="SVGID_00000079485153843858940100000015249170667099534254_" d="M482.48,266.49c0,128.21-103.94,232.15-232.15,232.15
					S18.18,394.7,18.18,266.49S122.12-37.7,250.33-37.7C378.54-37.7,482.48,138.28,482.48,266.49z"/>
			</defs>
			<clipPath id="SVGID_00000044872444292576832020000017420191205971057067_">
				<use xlink:href="#SVGID_00000079485153843858940100000015249170667099534254_"  style="overflow:visible;"/>
			</clipPath>
			<g style="clip-path:url(#SVGID_00000044872444292576832020000017420191205971057067_);">
				<path class="st4" d="M394.48,314.03c-2.63,0.44-5.28,1-7.91,1.6s-5.26,1.24-7.88,1.9c-2.62,0.67-5.23,1.37-7.83,2.12
					c-2.6,0.75-5.19,1.52-7.74,2.44c2.49-1.07,5.04-2.01,7.59-2.92c2.56-0.9,5.13-1.77,7.71-2.6c2.58-0.83,5.18-1.63,7.78-2.39
					c2.61-0.76,5.22-1.49,7.91-2.11L394.48,314.03z"/>
			</g>
		</g>
		<g>
			<defs>
				<path id="SVGID_00000051358517141164989230000017331102471484466598_" d="M482.48,266.49c0,128.21-103.94,232.15-232.15,232.15
					S18.18,394.7,18.18,266.49S122.12-37.7,250.33-37.7C378.54-37.7,482.48,138.28,482.48,266.49z"/>
			</defs>
			<clipPath id="SVGID_00000173144392404693067750000005210801590038586795_">
				<use xlink:href="#SVGID_00000051358517141164989230000017331102471484466598_"  style="overflow:visible;"/>
			</clipPath>
			<path style="clip-path:url(#SVGID_00000173144392404693067750000005210801590038586795_);fill:#2C2D40;" d="M385.62,193.91
				c-6.29,6.41-14.99,10.07-23.83,11.61c-8.85,1.54-17.92,1.12-26.87,0.33c18.4-1.96,35.69-13.21,46.54-28.2
				C383.47,183.12,384.78,188.14,385.62,193.91z"/>
		</g>
		<g>
			<defs>
				<path id="SVGID_00000088123871831610560660000015446741081568818053_" d="M482.48,266.49c0,128.21-103.94,232.15-232.15,232.15
					S18.18,394.7,18.18,266.49S122.12-37.7,250.33-37.7C378.54-37.7,482.48,138.28,482.48,266.49z"/>
			</defs>
			<clipPath id="SVGID_00000005949761103717375370000006319361609910298502_">
				<use xlink:href="#SVGID_00000088123871831610560660000015446741081568818053_"  style="overflow:visible;"/>
			</clipPath>
			
				<path style="clip-path:url(#SVGID_00000005949761103717375370000006319361609910298502_);fill:none;stroke:#2C2D40;stroke-miterlimit:10;" d="
				M235.12,8.79c-23.8,0.01-47.51,8.25-66.18,23c-5.11,4.04-9.91,8.62-13.27,14.2c-9.44,15.68-5.1,37.55,8.18,50.15
				c13.28,12.6,33.71,16.14,51.29,11.04s32.28-17.95,42.01-33.45c4.86-7.75,8.68-16.54,8.51-25.69
				c-0.35-18.13-17.73-33.19-35.85-33.99s-35.37,10.56-44.91,25.99c-4.58,7.41-7.69,15.99-7.33,24.69c0.36,8.71,4.57,17.5,12,22.05
				c8.01,4.91,18.25,4.29,27.33,1.88c16.53-4.38,31.56-14.26,42.14-27.7c6.68-8.49,11.74-19.65,8.44-29.94
				c-4.01-12.52-19.55-18.53-32.34-15.46c-12.78,3.07-22.86,12.96-30.38,23.74c-7.92,11.36-13.92,25.19-11.39,38.8
				c3.24,17.44,20.6,30.05,38.3,31.26c17.7,1.22,35.01-7.22,48.03-19.27c6.05-5.59,11.45-12.15,14.23-19.91
				c2.77-7.76,2.6-16.86-1.88-23.77c-3.81-5.88-10.3-9.59-17.03-11.54c-19.39-5.59-42.02,3.54-52.11,21.01
				c-10.09,17.48-6.66,41.64,7.88,55.63c14.54,13.99,38.82,16.47,55.9,5.72c9.01-5.68,15.87-14.52,19.77-24.43
				c5.47-13.91,4.73-30.97-4.84-42.46c-9.06-10.88-24.58-14.95-38.54-12.67s-26.5,10.13-36.99,19.62
				c-17.13,15.49-30.24,37.38-28.92,60.44c0.43,7.64,3.13,16.07,9.99,19.45c5.01,2.47,11.11,1.59,16.22-0.67
				c16.08-7.11,24.19-27.41,19.31-44.29c-4.88-16.89-21-29.32-38.39-31.91c-17.12-2.56-35.67,4.18-46.03,18.04
				s-11.28,34.51-1.04,48.46s31.34,19.08,46.22,10.26c4.8-2.85,8.81-6.87,12.24-11.27c11.48-14.72,16.11-37.07,4.56-51.73
				c-4.67-5.93-11.37-9.88-18.16-13.18c-11.44-5.55-25.66-9.42-36.35-2.55c-11.65,7.49-13.13,24.95-6.74,37.23
				c3.49,6.72,9.26,12.66,16.6,14.51c7.15,1.8,14.89-0.56,20.82-4.93s10.27-10.57,13.84-17.02c12.16-21.98,16.44-47.75,29.51-69.2
				c2.36-3.88,5.1-7.69,8.95-10.1c9.11-5.71,21.07-1.9,30.59,3.1c15.54,8.18,30.45,20.66,34.21,37.81
				c2.61,11.92-0.67,24.62-7.15,34.96c-6.48,10.34-15.93,18.52-26.08,25.28c-15.06,10.04-32.62,17.41-50.71,16.79
				s-36.54-10.57-43.63-27.23c-3.74-8.8-4.13-18.7-2.99-28.19c2.6-21.63,30.26-58.33,29.85-55.04c-0.41,3.29-35.29,19.62-48.74,33.2
				c-10.14,10.23-20.65,23.28-17.78,37.4c1.72,8.47,8.04,15.25,14.8,20.63c26.89,21.38,65.48,26.96,97.33,14.08
				c12.97-5.25,25.2-13.78,31.68-26.18c7.74-14.81,5.99-33.58-2.62-47.9s-23.34-24.35-39.3-29.32c-15.96-4.96-33.08-5.19-49.65-2.98
				c14.48-4.26,29.11-8.54,44.18-9.34c15.07-0.8,30.84,2.19,42.89,11.27c15.24,11.47,22.57,31.71,20.71,50.7
				c-1.86,18.99-12.06,36.55-25.9,49.68c-6.62,6.29-14.2,11.73-22.76,14.92c-9.62,3.58-20.17,4.17-30.36,2.98
				c-36.08-4.2-68.79-33.38-73.75-69.36c-1.45-10.53-0.61-21.57,3.87-31.21C166.48,15.36,188.97,5,210.47,3.92
				c11.34-0.57,22.98,1.04,33.1,6.19s18.58,14.08,21.71,25c3.28,11.43,0.54,23.79-4.1,34.74c-10.81,25.49-32.24,46.28-58.06,56.3
				c-12.94,5.02-27.12,7.42-40.82,5.24c-13.71-2.18-26.88-9.22-35.07-20.43c-9.48-12.99-11.38-31.13-4.78-45.79
				c6.09-13.55,18.7-23.51,32.7-28.5s29.29-5.39,44.02-3.5"/>
		</g>
	</g>
</g>
</svg>
