<?xml version="1.0" encoding="utf-8"?>
<!-- Generator: Adobe Illustrator 25.4.1, SVG Export Plug-In . SVG Version: 6.00 Build 0)  -->
<svg version="1.1" xmlns="http://www.w3.org/2000/svg" xmlns:xlink="http://www.w3.org/1999/xlink" x="0px" y="0px"
	 viewBox="0 0 1100 800" style="enable-background:new 0 0 1100 800;" xml:space="preserve">
<style type="text/css">
	.st0{fill:#F1F2F2;}
	.st1{fill:#EAC1A4;}
	.st2{fill:#CCD2D9;}
	.st3{fill:#272742;}
	.st4{fill:#3E5367;}
	.st5{fill:#FFFFFF;}
	.st6{fill:#3B455A;}
	.st7{fill:#BBBBBC;}
	.st8{fill:#D9A3A3;}
	.st9{fill:#D7A697;}
	.st10{fill:#D34E4E;}
</style>
<g id="Background">
</g>
<g id="Shadow">
</g>
<g id="Object">
	<g>
		<path class="st0" d="M506.85,643.65c-31.72,0.09-63.43,0.83-95.09,4.24c-11.94,1.29-23.62,4.11-35.59,5.26
			c-23.9,2.28-47.37,6.53-71.35,8.49c-19.31,1.58-38.71,2.51-57.96,4.51c-18.05,1.88-38.04,1.44-55.96-1.66
			c-13.26-2.3-26.59-3.59-39.63-7.28c-14.59-4.13-30.44-7.08-45.63-6.97c-21.67,0.15-42.78,0.17-63.52,7.46
			c-7.28,2.56-16.19,6.76-21.72,12.13c-12.66,12.29-14.37,42.96-1.73,55.71c21.29,21.46,66.72,29.88,96.55,30.27
			c32.69,0.44,64.46-1.92,97.2-3.3c30.42-1.28,60.77-3.11,91.25-3.05c62.24,0.13,124.49,0,186.62-4.03
			c58.37-3.78,116.89-2.48,175.39-2.48c59.99,0,119.57,0.46,179.13,8.18c25.95,3.36,52.39,4.54,78.47,6.9
			c23.36,2.11,45.8-0.04,69.07-1.99c19.53-1.64,38.94-6.5,56.69-14.71c14.05-6.5,39.09-26.7,43.4-42.22
			c12.08-43.51-170.21-42.46-198.19-42.37c-31.31,0.11-62.87,1.11-94.15-0.05c-13.16-0.49-26.13-2.98-38.97-5.71
			c-12.79-2.72-25.68-2.03-38.66-3.17c-54.1-4.77-108.32-4.07-162.6-4.07C542.2,643.75,524.53,643.6,506.85,643.65z"/>
	</g>
	<g id="XMLID_281_">
		<path class="st1" d="M302.08,180.88l6.61-4.45l7.56,3.36l3.77,7.04l-2.67,5.36l-6.77,2.99l2.34,0.91l-0.66,1.92l-10.49,3.45
			c-2.13-2.77-10.02-5.58-11.16-7.07l7.32-5.01L302.08,180.88z"/>
	</g>
	<g>
		<polygon class="st2" points="162.36,439.3 89.07,412.34 104.18,540.74 95.42,651.51 95.19,652.25 95.36,652.27 95.34,652.51 
			109.8,653.89 109.8,653.87 110.34,653.93 142.62,555.24 159.71,450.11 159.71,450.11 		"/>
		<polygon class="st3" points="109.05,658.93 94.05,658.55 90.23,671.21 90.6,671.32 90.51,671.33 115.3,686.02 127.08,687.33 
			128.58,673.86 125.4,671.53 		"/>
	</g>
	<g>
		<polygon class="st2" points="212.29,441.5 190.29,661.34 175.78,662 161.21,543.29 135.94,425.08 		"/>
		<polygon class="st3" points="190.25,666.44 209.47,677.34 207.67,686.4 173.33,681.23 175.35,668.16 		"/>
	</g>
	<g>
		<path class="st4" d="M246.65,496.71c4.64-3.22,4.74-8.83,4.73-14.44c-0.02-10.54-1.91-21.32-4.33-31.57
			c-4.6-19.22-9.82-42.38-12.11-67.29c-5.93-64.38-26.26-107.58-26.26-107.58l-6.56-17.49c-1.3-2.27-2.66-4.52-4.07-6.74
			c-8.19-12.86-22.42-34.71-37.64-38.28c-0.32-0.07-0.64-0.15-0.96-0.22c-16-3.51-36.5-1.88-50.95,5.9c-2.74,1.48-5.18,3.44-7.6,5.4
			c-7.07,5.7-12.83,8.79-15.88,17.48c-2.65,7.54-3.26,15.78-4.72,23.6c-2.96,15.89-4.73,31.96-7.1,47.94
			c-4.44,29.96-8.21,60.02-12.96,89.94c-2.44,15.4-4.9,30.82-6.06,46.38c-1.02,13.76-13.43,27.72-20.4,40.05
			c-2.43,4.29,32.42,15.41,35.55,16.13c14.46,3.37,29.83,2.51,44.74,2.57c32.66,0.15,65.32-0.86,97.91-3.02
			c10.83-0.72,24.17-2.79,33.78-8.18C246.07,497.09,246.37,496.91,246.65,496.71z"/>
	</g>
	<path class="st5" d="M141.51,211.33c0,0-18.4-4.97-20.94,36.54c-2.54,41.51-6.78,146.55-12.71,175.35
		c-5.93,28.8-14.82,85.3-14.82,85.3l56.33,1.96l64.38-5.08c0,0-22.03-40.66-25.41-69.46c-3.39-28.8,2.54-137.23-11.86-177.89
		C162.08,217.37,159.06,212.06,141.51,211.33z"/>
	<g>
		<polygon class="st4" points="180,259.85 221.05,282.16 245.79,273.69 309.11,204.08 292.29,188.88 225.09,241.41 172.2,218.33 		
			"/>
	</g>
	<g>
		<g>
			<path class="st6" d="M167.17,178.44c2.78,8.36-1.24,17.27-4.78,24.89c-3.14,6.75-4.23,11.2,3.73,13.02
				c4.49,1.03,12.45,2.94,16.38-0.49c2.98-2.6,1.3-10.64-0.14-13.83c-1.11-2.44-4.04-3.68-5.08-6.14c-0.43-1.02-0.49-2.15-0.51-3.25
				c-0.06-4.51,0.56-9.02,1.84-13.34c0.87-2.93,2.05-5.82,2.31-8.86c0.38-4.42-2.75-9.57-4.39-13.63
				c-3.06-7.56-13.69-17.69-22.6-11.76c-2.03,1.35-3.21,3.63-4.2,5.86c-0.59,1.33-1.15,2.72-1.17,4.17
				c-0.07,5.8,5.23,6.78,8.89,9.54C161.97,168.02,165.39,173.11,167.17,178.44z"/>
			<path class="st1" d="M150.23,211.05c7.73-1.82,13.77-8.31,16.67-15.7c2.9-7.39,3.05-15.58,2.25-23.48
				c-2.67-26.28-35.36-24.59-46.43-4.45C113.07,184.98,127.76,216.34,150.23,211.05z"/>
		</g>
		<path class="st1" d="M150.22,208.22c-0.13,2.99-0.26,5.99-0.39,8.98c-0.02,0.44-0.06,0.92-0.36,1.23
			c-0.35,0.36-0.91,0.36-1.41,0.35c-2.44-0.08-4.88-0.17-7.32-0.25c-1.21-0.04-2.47-0.1-3.53-0.67c-2.33-1.25-2.82-4.42-2.44-7.04
			c0.37-2.62,1.31-5.26,0.76-7.85c5.04,2.48,9.82-3.13,14.86-0.64L150.22,208.22z"/>
	</g>
	<path class="st6" d="M139.68,126.32c-8.58,2.92-14.09,11.6-22.46,15.06c-4.8,1.99-10.49,2.24-14.41,5.66
		c-8.78,7.66-1.72,23.72-8.94,32.87c-1.5,1.9-3.52,3.34-5.03,5.24c-3.25,4.09-3.67,9.68-3.96,14.89c-0.07,1.17-0.08,2.45,0.13,3.63
		c1.13,12.05,18.62,11.28,25.57,10.51c7.62-0.85,5.08-5.08,5.08-5.08l-0.28-0.34c-0.73-4.89,1.28-10.11,5.12-13.23
		c1.43-1.16,3.11-2.08,4.12-3.61c2.26-3.45,0.1-8.02,0.43-12.12c1.34-16.54,29.1-13,36.94-24.78
		C171.59,140.58,155.89,120.82,139.68,126.32z"/>
	<g>
		<g>
			<polygon class="st1" points="794.87,218.83 785.22,213.43 782.71,204 780.44,203.52 779.74,206.29 775.42,199.05 768.97,196.77 
				761.51,201.98 758.75,210.96 764.7,217.82 774.92,221.33 787.81,229.3 			"/>
		</g>
		<polygon class="st7" points="795.79,212.69 781.31,229.84 834.91,281.83 849.36,286.5 910.91,237.41 894.44,203.81 848.54,242.82 
					"/>
	</g>
	<g>
		<g>
			<polygon class="st4" points="1005.87,668.73 1008.02,678.59 990.98,692.63 979.24,684.87 986.69,672.92 1003.72,658.88 			"/>
			<polygon class="st4" points="946.3,365.58 965.31,409.4 967.1,532.71 1006.18,665.34 988.01,673.4 908.26,519.39 899.19,470.62 
				895.58,367.88 			"/>
		</g>
		<g>
			<polygon class="st4" points="854.29,375.4 852.79,504.62 877.14,671.24 895.87,671.24 907.69,517.5 933.32,363.76 			"/>
			<polygon class="st4" points="895.76,669.01 895.76,679.13 875.51,689.26 865.39,679.13 875.51,669.01 			"/>
		</g>
	</g>
	<path class="st7" d="M891.16,200.42l49.74-1.84c0,0,29.75,26.11,45.13,93.95c15.66,69.08-2.89,168.53-2.89,168.53
		s-133.44-17.78-155.32-20.53l33.38-136.39L891.16,200.42z"/>
	<g>
		<path class="st1" d="M908.98,205.5c5.81-0.57,11.62-1.14,17.42-1.7c0.06-4.65-0.25-9.31-0.93-13.92c4.84-1.7,10.44-4.24,11.29-9.3
			c0.27-1.59-0.01-3.22-0.28-4.82c-1.13-6.59-2.26-13.17-3.39-19.76c-0.39-2.28-0.81-4.62-2.04-6.57
			c-2.17-3.43-6.38-4.93-10.38-5.63c-10.19-1.78-21.3,0.41-29.22,7.08c-2.11,1.77-4.01,3.91-4.94,6.5c-1.44,4-0.37,8.41,0.7,12.52
			c0.99,3.79,1.98,7.58,2.97,11.38c1.14,4.36,2.79,9.32,6.98,10.96c2.23,0.87,4.86,0.62,6.88,1.91
			C907.62,196.41,907.14,201.71,908.98,205.5z"/>
		<path class="st6" d="M852.24,139.69c-0.11-4.51,0.52-9.08,1.42-13.2c1.55-7.07,9.89-10.25,17.12-10.75
			c15.6-1.08,30.66-8.16,45.9-2.7c8.71,3.12,20.41,3.87,28.29,8.27c3.29,1.84,5.92,4.71,7.96,7.87c7.08,10.97,7.1,26.09,0.05,37.08
			c-1.58,2.47-3.48,4.72-5.47,6.87c-4.12,4.45-9.04,9.95-14.7,11.6c-0.13-5.06,4.5-21,0.62-25.16c-6.16-6.59-20.1-4.31-27.75-2.7
			c-8.35,1.76-15.79,7.65-24.06,8.91c-5.95,0.9-13.55-2.03-18.6-5.11C855.09,155.83,852.44,147.84,852.24,139.69z"/>
	</g>
	<path class="st5" d="M904.88,206.57l-52.29,209.15l-4.29,27.43l65.15,8.57c0,0-2.57-100.16-1.71-113.51
		c0.86-13.35,10.52-42.24,12-73.36c0.86-18,6.57-50.33,2.57-60.86L904.88,206.57z"/>
	<path class="st8" d="M477.07,362.3l-0.01-55.48c-0.27,1.15-0.44,2.35-0.44,3.61v88.8h0.43V362.3H477.07z"/>
	<path class="st8" d="M518.03,305.83c-6.14-2.09-12.18-5.38-18.25-8.84c-1.97-1.13-4.04-1.76-6.08-1.97c1.97,0.35,3.99,1.04,6,2.13
		C505.99,300.56,511.98,303.82,518.03,305.83z"/>
	<path class="st8" d="M312.43,378.13c1.69,2.71,2.4,5.62,2.34,8.45c0.33-3.21-0.35-6.6-2.29-9.71
		c-6.25-10.03-10.24-21.16-10.2-31.66C301.89,356.07,305.93,367.7,312.43,378.13z"/>
	<path class="st8" d="M383.81,348.02c-0.5,10.09-5.56,19.68-11.09,29.36c-1.43,2.51-2.06,5.17-2.05,7.76
		c0.17-2.17,0.8-4.37,1.99-6.47C378.44,368.58,383.7,358.59,383.81,348.02z"/>
	<path class="st8" d="M477.05,227.17l-0.01-56.63l0-63.94c-0.14,0.01-0.28,0-0.43,0.01v117
		C476.62,224.86,476.79,226.04,477.05,227.17z"/>
	<path class="st9" d="M460.4,562.93c-1.97,0.35-3.99,1.04-6.01,2.13c-6.29,3.41-12.28,6.67-18.33,8.68
		c-9.12,3.1-18.47,3.58-28.54-1.89c-20.5-11.15-28.1-38.73-16.27-58.83c14.59-24.79,41.1-21.73,62.55-8.36
		c9.26,5.77,20.94,0.37,23.24-9.57l0.01-56.63l0-36.64h0v-2.59h-0.43v2.09h-94.55c-7.26-1.93-11.97-8.91-11.39-16.17
		c-0.02-2.59,0.61-5.24,2.05-7.76c5.53-9.68,10.59-19.28,11.09-29.36c0.05-5.21-1.14-10.56-4.17-16.14
		c-11.13-20.51-38.72-28.12-58.82-16.3c-12.74,7.49-18.12,18.13-18.54,29.62c-0.05,10.5,3.95,21.64,10.2,31.66
		c1.94,3.11,2.61,6.5,2.29,9.71c-0.14,6.77-4.78,13.03-11.69,14.74h-57.02h-25.2c-0.27,0.42-0.56,0.82-0.82,1.25
		c-7.1,11.6-5.63,20.22,4.95,27.51c6.78,4.68,13.94,8.69,19.88,14.76c9.07,9.26,9.65,14.72,2.73,26.17
		c-7.79,12.89-7.75,13.41,4.22,22.57c3.21,2.46,6.62,4.31,2.1,8.96c-6.64,6.84-4.27,13.52,1.45,18.51c8.03,7,9.24,15.98,7.73,26.02
		c-1.32,8.76-3.26,17.41-4.89,26.11c-4.42,23.48,1.74,34.38,22.95,40.54c22.14,6.44,44.18,0.86,66.26-1.27
		c14.8-1.43,29.37-6.58,44.51-2.83c9.83,2.43,15.26,8.44,16.52,19.45c1.84,16.05,6.62,31.4,9.35,47.19
		c2.23,12.88,7.84,16.91,19.44,16.39c9.72-0.44,23.63-0.64,39.77-0.7l0.01-117.2C475.23,567.12,467.93,562.15,460.4,562.93z"/>
	<path class="st4" d="M557.09,180.49c4.55,9.14,17.17,11.68,24.83,3.92c17.75-17.99,42.84-27.12,62.78-6.39
		c16.17,16.8,15.19,45.4-2.16,61c-8.52,7.66-17.73,9.37-27.32,8.47c-6.35-0.55-12.94-2.33-19.85-4.19c-2.21-0.6-4.34-0.8-6.33-0.68
		c-7.51,0.98-13.47,7.51-13.44,15.34l12.89,53.96l-0.02,0.01l8.57,35.92l0,0l0.31,1.3l0.29,1.22l0.41-0.1l93.09-22.22
		c9.11,1.02,15.9,10.13,13.09,19.73c-4.88,16.67-8.74,32.85,4.08,47.13c15.59,17.37,44.19,18.36,61,2.2
		c20.73-19.93,11.62-45.02-6.36-62.78c-7.33-7.25-5.46-18.91,2.49-24.01l56.91-13.59c2.99-20.99,2.72-41.66-0.62-60.99
		c-9.84-49.82-29.17-88.34-59.72-116.32c-62.66-57.4-134.96-73.1-211.73-60.9c-7.21,1.15-14.27,2.73-21.2,4.7l14.85,62.2
		L557.09,180.49z"/>
	<polygon class="st10" points="477.05,399.23 477.04,399.23 477.04,401.81 477.05,401.81 477.05,400.56 	"/>
	<path class="st4" d="M651.46,691.68c13.85-0.75,7.13-9.4,0.74-22.83c-51.83-108.94,9.91-196.75,20.01-209.04
		c15.15-18.42,26.76-38.47,34.86-59h-58.51c-8.91,3.11-13.45,14.02-8,22.78c13.36,21.45,16.4,47.97-8.39,62.54
		c-20.1,11.82-47.69,4.21-58.82-16.3c-9.15-16.86-1.64-31.71,6.97-46.79c4.96-8.68,0.47-19.12-8.15-22.23h-95.7v89.72
		c0,1.25-0.17,2.43-0.44,3.56v0.38c-2.42,9.8-14,15.08-23.19,9.35c-21.45-13.36-47.97-16.41-62.54,8.39
		c-11.82,20.1-3.07,47.22,17.44,58.36c9.91,5.38,18.68,5.05,27.32,2.18c6.14-2.09,12.18-5.38,18.25-8.84
		c1.97-1.13,4.04-1.76,6.09-1.97c7.88-1.39,14.86,2.98,16.63,11.53v0.27c0.27,1.15,0.44,2.35,0.44,3.61v113.58
		C538.92,690.7,634.44,692.6,651.46,691.68z"/>
	<path class="st9" d="M562.84,245.1c-14.59-24.79-41.1-21.73-62.55-8.36c-9.26,5.77-20.94,0.37-23.24-9.57
		c-0.26-1.14-0.44-2.32-0.44-3.56v-117c-31.95,1.44-63.04,11.07-92.87,25.69c-8.02,3.93-15.91,8.23-23.73,12.66
		c-54.85,31.06-85.37,78.76-82.78,148.63c1.45,39.22-16.01,67.76-41.8,91.75c-4.66,4.34-9.3,8.65-13.12,13.86
		c-0.5,0.69-0.99,1.39-1.46,2.11h25.2h57.02c6.91-1.71,11.55-7.97,11.69-14.74c0.06-2.83-0.65-5.74-2.34-8.45
		c-6.5-10.43-10.54-22.05-10.14-32.92c0.42-11.49,5.8-22.13,18.54-29.62c20.1-11.82,47.69-4.21,58.82,16.3
		c3.02,5.57,4.22,10.92,4.17,16.14c-0.11,10.56-5.37,20.56-11.14,30.65c-1.2,2.09-1.82,4.29-1.99,6.47
		c-0.57,7.26,4.13,14.25,11.39,16.17h94.55v-2.09v-88.8c0-1.26,0.17-2.46,0.44-3.61c1.79-7.62,9.1-12.59,16.64-11.8
		c2.05,0.21,4.11,0.85,6.08,1.97c6.07,3.46,12.11,6.75,18.25,8.84c9.12,3.1,18.47,3.58,28.54-1.89
		C567.08,292.79,574.67,265.2,562.84,245.1z"/>
	<g>
		<polygon class="st7" points="948.74,238.4 885.1,298.49 790.69,270.34 783.93,291.58 887.7,339.05 915,339.05 972.7,289.97 		"/>
		<polygon class="st1" points="784.54,289.67 768.11,289.97 758.08,275.81 783.58,261.63 790.69,270.34 		"/>
	</g>
	<polygon class="st1" points="256.42,325.61 256.11,335.19 273.02,341.34 282.76,333.96 282.77,322.81 273.36,322.29 273.07,319.83 
		269.99,317.85 	"/>
	<path class="st4" d="M115.34,253.96l69.71,59.36l74.04,1.44c0,0-3,31.81-2.98,29.17c0.03-2.64-82,7.93-82,7.93l-72.78-51.44
		L115.34,253.96z"/>
</g>
</svg>
