<?xml version="1.0" encoding="utf-8"?>
<!-- Generator: Adobe Illustrator 25.4.1, SVG Export Plug-In . SVG Version: 6.00 Build 0)  -->
<svg version="1.1" id="_x3C_Layer_x3E_" xmlns="http://www.w3.org/2000/svg" xmlns:xlink="http://www.w3.org/1999/xlink" x="0px"
	 y="0px" viewBox="0 0 2760 1840" style="enable-background:new 0 0 2760 1840;" xml:space="preserve">
<style type="text/css">
	.st0{fill:#F0F1F1;}
	.st1{fill:#42428E;}
	.st2{fill:#D7A597;}
	.st3{fill:#DD9B92;}
	.st4{fill:#BA857B;}
	.st5{fill:#E7A797;}
	.st6{fill:#B58C83;}
	.st7{fill:#F7C1A3;}
	.st8{fill:#2F1A31;}
	.st9{fill:#2F5268;}
	.st10{fill:#BBBBBC;}
	.st11{fill:#F7B686;}
	.st12{fill:#DD9666;}
	.st13{fill:#060633;}
	.st14{fill:#33435A;}
	.st15{fill:#E08B65;}
	.st16{fill:#96A7E2;}
	.st17{fill:#FFFFFF;}
	.st18{fill:#EA9F75;}
	.st19{fill:#BED5DC;}
</style>
<g>
	<path class="st0" d="M2315.57,1664.45c0,71.72-470.26,129.86-1050.36,129.86c-580.09,0-1050.35-58.14-1050.35-129.86
		c0-71.72,470.26-129.86,1050.35-129.86C1845.31,1534.59,2315.57,1592.73,2315.57,1664.45z"/>
</g>
<g>
	<path class="st1" d="M1200.68,1654.34l-2.89-0.31c0.21-1.94-0.34-3.53-1.67-4.87c-2.68-2.7-8.47-4.36-16.74-4.79
		c-6.44-0.33-12.1,0.21-12.16,0.21l-0.49-2.86c7.63-1.88,28.02-8.42,30.76-16.01c0.59-1.64,0.28-3.25-0.96-4.92
		c-7.37-9.96-33.76,4.06-43.31,10.3l-1.59-2.43c1.5-0.98,36.74-23.8,47.24-9.59c1.83,2.48,2.29,5.04,1.35,7.63
		c-2.35,6.5-13.69,11.63-22.4,14.69c7.23,0.23,16.13,1.46,20.36,5.72C1200.14,1649.09,1200.98,1651.52,1200.68,1654.34z"/>
</g>
<g>
	<g>
		<path class="st2" d="M436.82,562.05c21.13-5.76,25.59-14.19,23.33-22.47c-2.26-8.28-10.37-13.28-31.51-7.52
			c-38.5,10.5-53.02,30.56-53.02,30.56S397.76,572.7,436.82,562.05z"/>
	</g>
	<g>
		<path class="st2" d="M539,660.57c21.86,1.39,28.8-5.15,29.35-13.71c0.54-8.57-5.52-15.93-27.38-17.31
			c-39.82-2.53-60.05,11.77-60.05,11.77S498.6,658.01,539,660.57z"/>
	</g>
	<g>
		<g>
			<g>
				<path class="st2" d="M809.31,912.5l2.63-3.21c-0.49-0.41-50-41.49-102.13-122.55c-48.09-74.8-108.31-199.9-122.09-371.13
					l-4.13,0.33c13.85,172.18,74.44,297.98,122.84,373.2C758.9,870.68,808.82,912.09,809.31,912.5z"/>
			</g>
		</g>
		<g>
			<g>
				<path class="st2" d="M622.9,609.7l0.84-4.06C476.31,575.11,400.4,432.52,399.65,431.09l-3.68,1.92
					C396.74,434.46,473.51,578.76,622.9,609.7z"/>
			</g>
		</g>
		<g>
			<g>
				<path class="st2" d="M618.42,518.03c29.43-30.12,36.59-67.62,36.67-68.05l-4.08-0.74c-0.09,0.48-9.31,48.49-49.92,78.41
					l2.46,3.34C609.05,526.94,613.99,522.57,618.42,518.03z"/>
			</g>
		</g>
		<g>
			<g>
				<path class="st2" d="M747.39,842.22c52.59-67.68,71.12-146.05,55.09-232.95c-0.55-3.01-1.08-5.85-1.03-6.5
					c0,0.01-0.01,0.2-0.14,0.46l-3.73-1.81c-0.53,1.1-0.33,2.32,0.83,8.61c15.81,85.69-2.45,162.96-54.28,229.66L747.39,842.22z"/>
			</g>
		</g>
		<g>
			<g>
				<path class="st2" d="M799.61,724.89l2.02-3.62c-49.13-27.44-80.94-109.15-81.26-109.98l-3.87,1.48
					c0.08,0.21,8.18,21.17,22.35,45.28C751.99,680.4,773.19,710.14,799.61,724.89z"/>
			</g>
		</g>
		<g>
			<g>
				<path class="st2" d="M573.13,397.47c-1.18,29.52,5.43,38.57,14,38.92c8.58,0.34,15.88-8.16,17.06-37.68
					c2.15-53.77-12.35-80.37-12.35-80.37S575.31,342.92,573.13,397.47z"/>
			</g>
		</g>
		<g>
			<g>
				<path class="st2" d="M637.74,448.57c-10.02,27.79-6.46,38.41,1.62,41.33c8.08,2.91,17.6-2.99,27.63-30.78
					c18.26-50.62,12.46-80.36,12.46-80.36S656.26,397.22,637.74,448.57z"/>
			</g>
		</g>
		<g>
			<g>
				<path class="st2" d="M702.1,610.71c6.91,20.78,15.57,24.77,23.72,22.06c8.15-2.71,12.69-11.09,5.78-31.87
					c-12.59-37.86-33.43-51.26-33.43-51.26S689.32,572.29,702.1,610.71z"/>
			</g>
		</g>
		<g>
			<g>
				<path class="st2" d="M541.56,502.21c11.76,18.48,21.13,20.24,28.37,15.63c7.24-4.61,9.62-13.84-2.15-32.32
					c-21.43-33.66-44.9-41.58-44.9-41.58S519.81,468.06,541.56,502.21z"/>
			</g>
		</g>
		<g>
			<g>
				<path class="st2" d="M745.58,748.77c16.48,14.43,25.97,13.48,31.62,7.02c5.65-6.46,5.34-15.99-11.15-30.42
					c-30.02-26.28-54.78-27.29-54.78-27.29S715.12,722.11,745.58,748.77z"/>
			</g>
		</g>
		<g>
			<g>
				<path class="st2" d="M786.74,620.07c2.3,21.78,9.91,27.53,18.45,26.63c8.54-0.9,14.77-8.11,12.47-29.9
					c-4.2-39.68-21.68-57.22-21.68-57.22S782.48,579.81,786.74,620.07z"/>
			</g>
		</g>
		<g>
			<g>
				<path class="st2" d="M377.86,427.52c15.74,25,26.31,28.73,33.57,24.16c7.27-4.57,8.48-15.72-7.26-40.72
					c-28.66-45.54-55.67-59.27-55.67-59.27S348.78,381.31,377.86,427.52z"/>
			</g>
		</g>
	</g>
</g>
<g>
	<path class="st3" d="M1008.73,1388.36c0,0-401.81-815.43-618.97-698.09c-217.17,117.34,390.31,486.75,499.76,727.84
		L1008.73,1388.36z"/>
</g>
<g>
	<path class="st4" d="M802.25,1231.06c0,0-490.34-620.97-690.19-473.99c-199.85,146.98,440.66,339.14,576.44,524.69L802.25,1231.06z
		"/>
</g>
<g>
	<g>
		<path class="st5" d="M738.87,1259.98c-91.44-129.85-234.66-238.39-338.71-306.59c-112.8-73.93-205.08-117.64-206-118.08l2.7-5.74
			c0.92,0.43,93.6,44.34,206.77,118.51c104.51,68.5,248.4,177.57,340.42,308.24L738.87,1259.98z"/>
	</g>
</g>
<g>
	<g>
		<path class="st5" d="M192.65,1333.28c107.05,30.73,78.06,193.93,203.86,171.67c125.81-22.34,116.07-30.94,172.03,26.78
			c0,0,19.72,53.5,68.37,65.41c191.95,47,476.61-222.56,284.51-394.32c-13.87-12.4-34.88-18.22-58.21-23.48
			c-126.58-28.46-170.34,27.6-261.07-129.84c-90.77-157.48-241.9,49.59-327.18,36.27c-85.27-13.31-159.15-44.06-232.04,42.39
			C-29.97,1214.68,85.59,1302.62,192.65,1333.28z"/>
	</g>
</g>
<g>
	<g>
		<g>
			<path class="st6" d="M845.65,1407.67l4.48-5.79c-2.55-1.98-261.95-198.35-824.32-248.93l-0.66,7.3
				C585.41,1210.64,843.11,1405.7,845.65,1407.67z"/>
		</g>
	</g>
	<g>
		<g>
			<path class="st6" d="M509.66,1166.88c78.73-61.93,95.33-114.14,96-116.33l-7.01-2.14c-0.16,0.52-16.8,52.37-93.53,112.71
				L509.66,1166.88z"/>
		</g>
	</g>
	<g>
		<g>
			<path class="st6" d="M491.55,1244.88c23.31-35.4,24.86-88.54,4.47-153.68c-15.27-48.78-37.69-87.73-37.91-88.11l-6.33,3.67
				c0.88,1.52,87.26,152.7,33.66,234.1L491.55,1244.88z"/>
		</g>
	</g>
	<g>
		<g>
			<path class="st6" d="M344.16,1222.33c9.33-6.81,14.43-11.3,14.66-11.51l-4.88-5.46c-1.07,0.96-108.54,95.44-256.94,81.08
				l-0.7,7.29C215.87,1305.3,309.39,1247.71,344.16,1222.33z"/>
		</g>
	</g>
	<g>
		<g>
			<path class="st6" d="M259.89,1386.48c36.45-35.61,48.65-72.8,52.46-97.73c4.15-27.13-0.35-45.65-0.54-46.43l-7.11,1.77
				c0.18,0.71,16.81,71.96-49.93,137.15L259.89,1386.48z"/>
		</g>
	</g>
</g>
<g>
	<path class="st3" d="M1466.97,1382.93c0,0,410.09-622.34,574.78-504.72s-367.19,356.14-480.83,541.09L1466.97,1382.93z"/>
</g>
<g>
	<path class="st4" d="M1687.15,1269.46c0,0,516.63-471.78,670.02-314.96c153.39,156.82-433,232.96-578,375.46L1687.15,1269.46z"/>
</g>
<g>
	<g>
		<path class="st5" d="M1738.32,1303.76c98.35-100.24,238.84-174.48,339.38-219.12c109-48.39,195.77-73.34,196.63-73.59l-1.54-5.39
			c-0.87,0.25-88.02,25.31-197.37,73.86c-100.98,44.83-242.14,119.45-341.11,220.31L1738.32,1303.76z"/>
	</g>
</g>
<g>
	<g>
		<path class="st5" d="M2145.14,1516.17c-87.39-2.43-104.47,126.56-193.3,80.02c-88.82-46.6-107.2-49.04-135.07-20.82
			c0,0-27.46,35.35-66.69,32.7c-154.78-10.43-303.73-279.72-119.21-362.6c13.32-5.98,30.42-5.35,49.13-3.74
			c101.47,8.77,120.89,61.11,226.17-35.13c105.31-96.26,169.21,94.56,236.17,104.85c66.96,10.29,129.54,4.83,163.54,86.82
			C2339.87,1480.32,2232.52,1518.66,2145.14,1516.17z"/>
	</g>
</g>
<g>
	<g>
		<g>
			<path class="st6" d="M1638.9,1416.73l-1.98-5.4c2.38-0.87,243.1-86.18,675.87,9.54l-1.24,5.62
				C1880.41,1331.13,1641.27,1415.87,1638.9,1416.73z"/>
		</g>
	</g>
	<g>
		<g>
			<path class="st6" d="M1947.48,1316.38c-44.2-65.03-44.22-108.04-44.2-109.84l5.75,0.06c0,0.42,0.13,43.17,43.21,106.54
				L1947.48,1316.38z"/>
		</g>
	</g>
	<g>
		<g>
			<path class="st6" d="M1942.5,1379.04c-9.04-32.02,2.43-72.15,33.16-116.04c23.01-32.87,49.04-56.69,49.3-56.92l3.87,4.25
				c-1.02,0.93-101.56,93.52-80.78,167.16L1942.5,1379.04z"/>
		</g>
	</g>
	<g>
		<g>
			<path class="st6" d="M2058.13,1397.17c-5.36-7.31-8.11-11.88-8.24-12.1l4.95-2.92c0.57,0.97,58.54,97.18,172.98,121.69
				l-1.21,5.62C2134.41,1489.72,2078.12,1424.42,2058.13,1397.17z"/>
		</g>
	</g>
	<g>
		<g>
			<path class="st6" d="M2082.19,1540.01c-18.81-35.3-19.1-66.02-16.04-85.58c3.34-21.29,11.11-34.08,11.43-34.61l4.9,3.01
				c-0.3,0.49-29.67,49.84,4.78,114.47L2082.19,1540.01z"/>
		</g>
	</g>
</g>
<path class="st7" d="M1268.02,812.65c0,0,95.86,50.56,143.5,156.17c44.25,98.1-138.85,52.98-138.85,52.98l-48.22-66.23
	L1268.02,812.65z"/>
<path class="st8" d="M1659.97,1531.59c0,0-1.7,57.8,36.46,76.21c38.17,18.41,150.53,39.28,106.22,74.08
	c-25.42,19.97-139.02-0.03-171.3-1.79c-32.29-1.76-63.36,10.65-86.18-12.26c-25.1-25.21,7.76-142.08,7.76-142.08
	s27.07,16.03,52.16,16.75C1641.24,1543.52,1659.97,1531.59,1659.97,1531.59z"/>
<path class="st9" d="M1003.68,1306.8c0,0,140.51-355.93,461.54-358.82c153.71-1.39,245.17,367.17,243.18,564.01
	c-0.35,34.85-20.92,62.9-55.78,62.9h-115.61c-21.17,0-41.8,0.18-67.39-27.45c-18.89-20.4-27.3-31.8-27.3-31.8
	s1.26,161.33-203.35,161.51C1051.9,1677.3,898.9,1598.59,1003.68,1306.8z"/>
<path class="st8" d="M1480.44,1531.59c0,0-1.7,57.8,36.46,76.21c38.17,18.41,150.53,39.28,106.22,74.08
	c-25.42,19.97-139.02-0.03-171.3-1.79c-32.29-1.76-63.36,10.65-86.18-12.26c-25.1-25.21,7.76-142.08,7.76-142.08
	s27.07,16.03,52.16,16.75C1461.71,1543.52,1480.44,1531.59,1480.44,1531.59z"/>
<path class="st8" d="M824.2,1499.81c2.71,22.44,129.59,19.71,284.94,0.05c155.35-19.66,276.27-53.32,273.56-75.76
	c-2.71-22.44-128.03-25.17-283.38-5.5C943.97,1438.26,821.49,1477.37,824.2,1499.81z"/>
<path class="st10" d="M876.07,886.41c0,0,44.13-124.16,201.33-118.51c157.2,5.65,275.9,212.22,305.3,656.2
	c0,0-276.85-0.79-578.4,130.9C804.31,1554.99,605.12,1289.05,876.07,886.41z"/>
<path class="st10" d="M780.96,850.03l96.08,100.18c0,0,361.59,59.01,408.65-2.23c45.07-58.65,38.68-115,38.68-115
	s-130.14-82.31-314.31-65.27C853.15,782.23,780.96,850.03,780.96,850.03z"/>
<path class="st8" d="M1188.89,650.29c0,0-10.87,18.39,11.81,58.88c19.09,34.08-16.15,63.28-42.49,46.91
	c-26.34-16.37-41.87,17.93-75.04-6.68C1050,724.79,1188.89,650.29,1188.89,650.29z"/>
<path class="st11" d="M1001.83,768.53c14.97-3.14,33.19-9.97,41.28-23.44l25.37-42.22l7.36-12.26l43.29-72.06l-16.44,78.52
	l-9.87,47.13c0,0-4.47,17.55,16.82,23.4c0,0-0.44,62.28-38.24,59.08C1016.62,822.04,1001.75,768.55,1001.83,768.53z"/>
<path class="st12" d="M1068.58,701.54c-0.05,0.44-0.08,0.88-0.1,1.32c-1.57,25.82,24.16,41.46,24.16,41.46l0.18-0.12l9.87-47.13
	c-7.95-4.19-19.43-8.95-26.86-6.46C1071.96,691.91,1069.18,695.18,1068.58,701.54z"/>
<path class="st7" d="M1195.52,641.8c6.87-50.76-20.92-96.42-62.07-101.99c-41.14-5.57-80.07,31.07-86.93,81.84
	c-6.87,50.76,20.92,96.42,62.07,101.99C1149.73,729.2,1188.65,692.56,1195.52,641.8z"/>
<g>
	<path class="st13" d="M1120.65,631.91c0.51-0.07,0.99-0.37,1.27-0.85c0.47-0.82,0.18-1.86-0.64-2.33
		c-0.48-0.27-11.1-7.68-22.6,1.92c-0.73,0.61-0.86,1.67-0.26,2.41c0.59,0.74,1.56,0.68,2.41,0.26c8.49-4.18,18.37-1.84,18.77-1.62
		C1119.92,631.89,1120.29,631.95,1120.65,631.91z"/>
</g>
<g>
	<path class="st13" d="M1104.24,650.78c-0.52,0.05-1,0.34-1.29,0.82c-0.49,0.81-0.23,1.86,0.58,2.35
		c0.48,0.29,10.87,7.99,22.64-1.28c0.74-0.58,0.9-1.64,0.33-2.4c-0.57-0.75-1.54-0.73-2.4-0.33c-8.6,3.94-18.41,1.32-18.81,1.08
		C1104.96,650.82,1104.59,650.74,1104.24,650.78z"/>
</g>
<g>
	<path class="st13" d="M1161.46,653.79c-0.41-0.32-0.96-0.44-1.5-0.29c-0.91,0.25-1.44,1.19-1.19,2.1
		c0.15,0.54,2.44,13.27,17.37,14.58c0.94,0.08,1.78-0.58,1.88-1.52c0.1-0.94-0.62-1.58-1.52-1.88c-8.96-3.03-14.31-11.66-14.44-12.1
		C1161.96,654.32,1161.74,654.01,1161.46,653.79z"/>
</g>
<g>
	<path class="st13" d="M1187.12,649.71c0.49,0.17,1.05,0.12,1.52-0.2c0.78-0.53,0.99-1.59,0.47-2.37
		c-0.31-0.46-6.49-11.83-21.08-8.38c-0.92,0.22-1.51,1.11-1.31,2.03c0.2,0.92,1.09,1.31,2.03,1.31c9.46,0.06,17.25,6.56,17.51,6.94
		C1186.48,649.37,1186.78,649.59,1187.12,649.71z"/>
</g>
<path class="st14" d="M1162.83,560.74c0,0-5.92,31.67-46.48,31.72c-40.56,0.05-70.31,13.19-68.84,42.6
	c1.47,29.41,57.61,97.61,7.32,114.29c-50.3,16.67-34.44-24.96-86.94-21.91c-52.5,3.05-52.48-66.5-11.9-101.37
	c40.58-34.88,40.5-141.7,171.95-119.18c131.44,22.51,68.8,121.34,68.8,121.34S1157.99,595.95,1162.83,560.74z"/>
<path class="st11" d="M1042.32,637.9c7.35,9.2,19.04,11.62,26.11,5.41c7.07-6.21,6.84-18.7-0.51-27.9
	c-7.35-9.2-19.04-11.62-26.11-5.41C1034.75,616.21,1034.97,628.7,1042.32,637.9z"/>
<path class="st8" d="M1143.89,701.51c-0.42,0-0.83-0.16-1.15-0.48c-13.95-14.29-33.03-7.91-33.22-7.84
	c-0.84,0.29-1.75-0.15-2.04-0.99c-0.29-0.84,0.15-1.75,0.99-2.04c0.21-0.07,21.21-7.1,36.56,8.64c0.62,0.63,0.61,1.65-0.03,2.27
	C1144.7,701.36,1144.3,701.51,1143.89,701.51z"/>
<path class="st13" d="M936.35,976.25c-11.2,13.78-55.06-3.29-97.97-38.15c-42.91-34.85-68.62-74.28-57.42-88.07
	c11.2-13.79,55.06,3.29,97.97,38.15C921.84,923.03,947.55,962.46,936.35,976.25z"/>
<path class="st9" d="M824.16,1306.8c0,0,140.51-355.93,461.54-358.82c153.71-1.39,245.17,367.17,243.18,564.01
	c-0.35,34.85-20.92,62.9-55.77,62.9h-115.62c-21.17,0-41.8,0.18-67.39-27.45c-18.89-20.4-27.3-31.8-27.3-31.8
	s1.26,161.33-203.35,161.51C872.37,1677.3,719.38,1598.59,824.16,1306.8z"/>
<path class="st5" d="M1899.98,1517.58"/>
<path class="st8" d="M1281.09,1541.48c-0.74,0-1.47-0.31-1.98-0.91c-30.5-35.51-54.06-77.49-70.01-124.79
	c-12.75-37.8-20.71-79.05-23.64-122.62c-4.99-74.15,6.47-130.13,6.59-130.69c0.3-1.41,1.68-2.31,3.09-2.02
	c1.41,0.3,2.32,1.68,2.02,3.09c-0.11,0.55-11.45,55.96-6.48,129.42c2.91,43.09,10.79,83.88,23.4,121.23
	c15.74,46.63,38.95,88,69,122.97c0.94,1.09,0.81,2.74-0.28,3.69C1282.3,1541.27,1281.7,1541.48,1281.09,1541.48z"/>
<path class="st8" d="M1186.8,1262.03c-0.28,0-0.56-0.04-0.84-0.14c-23.8-8.06-56.77-23.09-78.63-48.97
	c-13.25-15.68-16.11-27.86-16.23-28.37c-0.32-1.41,0.57-2.81,1.97-3.13c1.41-0.32,2.8,0.56,3.13,1.97
	c0.04,0.16,2.84,11.73,15.39,26.47c21.09,24.77,53,39.28,76.04,47.08c1.37,0.46,2.1,1.95,1.64,3.32
	C1188.9,1261.35,1187.89,1262.03,1186.8,1262.03z"/>
<path class="st8" d="M1494.76,1569.97c-1.06,0-2.05-0.65-2.45-1.69c-0.51-1.35,0.18-2.86,1.53-3.37
	c40.77-15.35,36.4-46.61,33.21-69.43c-0.37-2.66-0.72-5.18-0.97-7.5c-11.29-105.44-27.73-198.22-48.86-275.78
	c-16.91-62.05-36.83-114.53-59.23-156.01c-38.08-70.52-70.5-84.82-70.82-84.96c-1.33-0.56-1.96-2.09-1.4-3.42
	c0.55-1.33,2.07-1.96,3.41-1.41c1.37,0.57,33.99,14.71,72.89,86.33c22.68,41.76,42.85,94.63,59.94,157.14
	c21.33,78.02,37.91,171.4,49.27,277.55c0.24,2.24,0.59,4.71,0.95,7.33c3.04,21.77,8.14,58.22-36.55,75.05
	C1495.37,1569.91,1495.06,1569.97,1494.76,1569.97z"/>
<g>
	<g>
		<path class="st7" d="M1061.07,980.96c0,0,53.56-62.38,101.67-63.25c48.12-0.87,110.24,34.39,80.53,41.27
			c-29.71,6.87-70.1,5.17-70.1,5.17s86.12,7.7,75.6,27.06c-10.52,19.36-85.36,11.94-85.36,11.94s101.75,17.33,85.89,32.4
			c-15.86,15.07-93.07,1.36-93.07,1.36s94.02,19.9,75.19,36.98c-18.84,17.07-77.59-16.95-88.12,2.41
			c-10.52,19.36-58.87,92.71-116.26,70.03L1061.07,980.96z"/>
	</g>
</g>
<g>
	<path class="st15" d="M1137.84,971.82c-0.93,0-1.86-0.38-2.53-1.12c-1.27-1.4-1.16-3.56,0.23-4.82
		c12.36-11.21,37.36-5.31,38.42-5.05c1.83,0.44,2.96,2.29,2.51,4.12c-0.44,1.83-2.29,2.96-4.12,2.51l0,0
		c-0.22-0.05-22.54-5.31-32.22,3.47C1139.48,971.53,1138.66,971.82,1137.84,971.82z"/>
</g>
<g>
	<path class="st15" d="M1121.23,1011.66c-1.16,0-2.3-0.59-2.93-1.66c-0.97-1.62-0.44-3.72,1.18-4.68
		c19.8-11.82,43.78-5.72,44.79-5.46c1.82,0.48,2.91,2.35,2.44,4.17c-0.48,1.82-2.34,2.91-4.17,2.44
		c-0.33-0.09-22.31-5.59-39.56,4.72C1122.43,1011.5,1121.83,1011.66,1121.23,1011.66z"/>
</g>
<g>
	<path class="st7" d="M778.84,1240.83c-49.23-21.44-75.28-74.87-77.64-125.45c-3.04-65.12,4.73-114.92,43.79-183.28
		c25.23-44.16,38.52-63.87,42.67-65.83c22.65-10.68,57.77,9.34,70.84,18.2c18.33,12.44,59.48,46.12,44.13,74.8
		c-0.15,0.29-6.99,17.87-25.6,50.92c-21.91,38.91-24.43,68.92-16.57,77.12c10.46,10.89,60.87,5.97,108.69-26.94
		c50.56-34.79,89.9-78.28,90.29-78.72l83.85,94.66c-2.02,2.26-28.58,49.07-85.07,105.12
		C1015.68,1223.64,882.25,1285.85,778.84,1240.83z"/>
</g>
<path class="st16" d="M1199.83,667.48c0,0,15.16-16.45,29.31-9.59c14.15,6.86,9.06,22.45,0.52,22.21
	C1221.11,679.86,1222.79,664.16,1199.83,667.48z"/>
<path class="st16" d="M1093.23,655.7c2.3-1.73,1.08-5.4-1.79-5.41c-17.48-0.1-55.43,3.28-68.1,33.18
	c-16.68,39.34,21.59,62.12,38.64,46.36C1078.2,714.84,1050.49,687.78,1093.23,655.7z"/>
<path class="st16" d="M1089.31,644.04c0.64,0.36,1.37-0.31,1.07-0.98c-1.8-4.08-6.54-12.57-14.82-12.41
	c-10.9,0.21-12.23,11.5-6.78,13.83C1073.96,646.7,1077.39,637.42,1089.31,644.04z"/>
<path class="st16" d="M1183.35,671.82c-0.98-2.3,1.5-4.55,3.68-3.31c11.82,6.72,34.31,22.77,31.67,46.53
	c-3.57,32.06-37.18,32.9-42.58,16.22C1171.03,715.53,1198.76,707.95,1183.35,671.82z"/>
<path class="st17" d="M1008.73,670.74c-0.28,0-0.52-0.21-0.54-0.5c-0.03-0.3,0.2-0.56,0.49-0.59c0.14-0.01,14.08-1.32,17.97-12.61
	c4.04-11.73-2.62-20.32-7.48-26.6c-0.84-1.08-1.63-2.1-2.3-3.05c-12.65-17.97-12.57-38.54,0.22-55.03
	c13.1-16.89,40.24-28.65,71.34-16.86c24.85,9.42,43.19,6.45,54.2,2.3c11.9-4.49,18-11.25,18.05-11.32c0.2-0.23,0.54-0.24,0.77-0.05
	c0.23,0.2,0.25,0.54,0.05,0.77c-0.19,0.21-14.28,15.6-41.63,15.61c-9.14,0-19.75-1.72-31.82-6.29
	c-30.58-11.59-57.24-0.06-70.1,16.51c-12.48,16.09-12.55,36.18-0.19,53.74c0.66,0.93,1.44,1.94,2.27,3.01
	c5.01,6.47,11.87,15.32,7.64,27.61c-4.12,11.97-18.75,13.33-18.9,13.34C1008.76,670.74,1008.75,670.74,1008.73,670.74z"/>
<g>
	<path class="st8" d="M1136.99,1670.25c-1.11,0-2.14-0.71-2.49-1.83c-0.43-1.38,0.33-2.84,1.71-3.28
		c0.6-0.19,60.56-19.59,101.17-73.05c0.87-1.15,2.51-1.37,3.66-0.5c1.15,0.87,1.37,2.51,0.5,3.66
		c-41.65,54.83-103.15,74.68-103.77,74.88C1137.52,1670.21,1137.25,1670.25,1136.99,1670.25z"/>
</g>
<g>
	<path class="st1" d="M1903.65,461.21c-0.19,0-0.38-0.04-0.58-0.12c-2.73-1.1-0.51-7.76-0.42-8.04l0.46,0.16
		c-0.61,1.8-1.78,6.66,0.14,7.43c0.32,0.13,0.59,0.11,0.84-0.05c1.11-0.76,1.32-4.33,1.31-5.64l0.48-0.04
		c0,0.04,0.59,3.69,1.94,4.49c0.27,0.16,0.55,0.18,0.86,0.07l0.17,0.45c-0.44,0.17-0.87,0.13-1.27-0.1
		c-0.87-0.51-1.43-1.89-1.77-3.05c-0.13,1.54-0.49,3.58-1.44,4.23C1904.14,461.14,1903.9,461.21,1903.65,461.21z"/>
</g>
<g>
	<path class="st1" d="M1864.06,366.87c-0.22-0.2-5.38-4.95-3.52-7.24c0.32-0.4,0.72-0.58,1.18-0.54c1.15,0.11,2.45,1.73,3.31,3.01
		c-0.26-1.18-0.44-2.67,0.08-3.53c0.24-0.4,0.6-0.64,1.06-0.71l0.07,0.48c-0.32,0.05-0.56,0.2-0.72,0.47
		c-0.67,1.12,0.11,3.89,0.46,4.87l-0.44,0.2c-0.62-1.15-2.53-4.18-3.87-4.31c-0.28-0.03-0.54,0.09-0.76,0.36
		c-1.3,1.61,2.06,5.29,3.47,6.58L1864.06,366.87z"/>
</g>
<g>
	<path class="st7" d="M1827.69,593.28c0,0,147.67,70.93,203.77,25.6c29.44-23.78,36.52-48.14,46-60.15
		c61.35-77.71,167.54-76.36,191.97-91.27c33.25-20.29,78.59-241.33,78.59-241.33L2219.06,58.43c0,0-94.56,65.96-162.28,91.44
		c-24.75,9.31-50.23,56.39-91.66,48.38c-126.81-24.51-192.9,5.77-264.33,40.24c-31.62,15.26-74.27,29.6-146.05,47.8
		c-34.54,8.76-138.24,15.2-142.16,56.54c-5.27,55.6,138,50.78,176.63,42.46C1848.36,329.49,1827.69,593.28,1827.69,593.28z"/>
</g>
<g>
	<g>
		<path class="st9" d="M2737.11,390.83v55.12c-145.19,28.05-570.91,117.72-584.46,81.22c-2.31-6.21-3.87-13.85-5.04-22.65
			c-6.61-49.26-1.39-135-50.13-211.82c-34.03-53.65-53.66-99.64-58.89-130.86c-3.58-21.48-0.36-35.96,9.69-41.18
			c8.04-4.16,76-40.73,160.48-85.61c54.88,2.06,105.65,4.96,150.85,8.79C2567.21,61.45,2737.11,199.19,2737.11,390.83z"/>
	</g>
	<g>
		<path class="st9" d="M2238.99,479.91c-7.77,2-17.9-3.07-20.82-10.54c-3.81-9.75,1.01-19.14,8.77-21.14
			c9.09-2.34,19.76,3.44,22.18,12.84C2251.14,468.83,2246.76,477.9,2238.99,479.91z"/>
	</g>
</g>
<g>
	<path class="st7" d="M1606.87,373.1c8.62,3.01,29.94,20.4-7.31,31.13c-89.55,25.79-279.48,117.39-269.21,151.76
		c15.31,51.26,116.78,10.94,221.46-30.64c21.07-8.37,43.65-11.38,32.17,0.11c-26.31,26.34-277.67,98.48-260.67,155.09
		c20.51,68.3,290.71-84.91,300.18-74.67c13.66,14.75-219.84,106.38-198.13,151.69c26.27,54.84,253.58-96.44,260.11-74.53
		c6.53,21.91-168.84,94.7-107.68,136.64c22.38,15.34,152.1-80.55,276.66-116.04c42.05-11.98,88.48-27.89,123.49-46.87
		c123.65-67.06,120.54-176.75,120.54-176.75S1833.21,314.4,1740.52,306.3C1647.82,298.2,1553.21,354.39,1606.87,373.1z"/>
</g>
<g>
	<g>
		<path class="st18" d="M2092.58,496.16c0.04,0.34,0.05,0.68,0.03,1.03c-2.86,50.88-20.93,81.83-35.57,98.82
			c-16.14,18.73-31.71,25.17-32.36,25.43c-2.94,1.19-6.29-0.23-7.48-3.17c-1.19-2.94,0.22-6.28,3.15-7.48l0,0
			c0.14-0.06,14.08-5.94,28.44-22.82c13.29-15.62,29.68-44.16,32.35-91.43c0.18-3.17,2.89-5.59,6.06-5.42
			C2090.01,491.29,2092.24,493.46,2092.58,496.16z"/>
	</g>
</g>
<g>
	<path class="st18" d="M1840.52,414.4c-26.21,0-47.96-9.37-72.54-19.97c-6.44-2.77-13.1-5.64-20.06-8.43
		c-52.15-20.87-87.59-8.46-87.95-8.33c-2.29,0.83-4.83-0.35-5.67-2.63c-0.84-2.29,0.33-4.82,2.62-5.67
		c1.56-0.57,38.75-13.8,94.28,8.42c7.07,2.83,13.78,5.72,20.28,8.52c21.91,9.44,40.83,17.59,62.74,18.94
		c24.07,1.48,49.6-5.65,80.33-22.46c2.14-1.17,4.83-0.38,6,1.76c1.17,2.14,0.38,4.83-1.76,6
		C1886.9,407.99,1862.19,414.4,1840.52,414.4z"/>
</g>
<g>
	<path class="st18" d="M1849.33,546.16c-1.36,0-2.7-0.62-3.57-1.8c-56.51-76.96-182.42-116.33-183.68-116.72
		c-2.33-0.72-3.64-3.19-2.93-5.52c0.72-2.33,3.19-3.65,5.52-2.93c0.32,0.1,32.78,10.15,71.89,29.78
		c36.23,18.19,85.81,48.59,116.33,90.15c1.45,1.97,1.02,4.73-0.95,6.18C1851.16,545.88,1850.24,546.16,1849.33,546.16z"/>
</g>
<g>
	<path class="st2" d="M2362.25,1249.49c34.58,8.68,42.1,22.25,38.7,35.8c-3.4,13.55-16.44,21.96-51.02,13.28
		c-62.99-15.81-87.27-47.99-87.27-47.99S2298.35,1233.45,2362.25,1249.49z"/>
</g>
<g>
	<path class="st2" d="M2288.36,1156.76c28.5-17.67,42.59-13.87,49.51-2.7c6.93,11.17,4.06,25.48-24.43,43.15
		c-51.91,32.19-89.54,27.52-89.54,27.52S2235.69,1189.42,2288.36,1156.76z"/>
</g>
<g>
	<path class="st2" d="M1646.69,928.45c5.4-30.7,20.34-37.49,36.78-34.6c16.44,2.89,28.17,14.37,22.77,45.07
		c-9.83,55.93-44.37,77.72-44.37,77.72S1636.71,985.19,1646.69,928.45z"/>
</g>
<g>
	<path class="st19" d="M429.5,1637.44c0,0-62.65-63.87-41.09-100.24c21.56-36.38,57.93,78.14,57.93,78.14
		s-18.86-135.41,20.21-137.76c39.07-2.35,0,137.76,0,137.76s14.48-32.67,28.63-34.69c14.15-2.02,10.1,27.7-15.16,56.8"/>
</g>
<g>
	<path class="st19" d="M746.65,1721.02c0,0-30.31-30.9-19.88-48.5c10.43-17.6,28.03,37.81,28.03,37.81s-9.12-65.52,9.78-66.66
		c18.9-1.14,0,66.66,0,66.66s7.01-15.81,13.85-16.79c6.84-0.98,4.89,13.4-7.33,27.48"/>
</g>
<g>
	<path class="st19" d="M2172.07,1642.46c0,0-36.16-36.86-23.72-57.86c12.44-20.99,33.44,45.1,33.44,45.1s-10.89-78.16,11.66-79.51
		c22.55-1.36,0,79.51,0,79.51s8.36-18.86,16.52-20.02s5.83,15.99-8.75,32.78"/>
</g>
</svg>
