<?xml version="1.0" encoding="utf-8"?>
<!-- Generator: Adobe Illustrator 25.4.1, SVG Export Plug-In . SVG Version: 6.00 Build 0)  -->
<svg version="1.1" id="Layer_1" xmlns="http://www.w3.org/2000/svg" xmlns:xlink="http://www.w3.org/1999/xlink" x="0px" y="0px"
	 viewBox="0 0 300 300" style="enable-background:new 0 0 300 300;" xml:space="preserve">
<style type="text/css">
	.st0{clip-path:url(#SVGID_00000150822766696026235080000016783915032419658172_);fill:#D8A798;}
	.st1{clip-path:url(#SVGID_00000150822766696026235080000016783915032419658172_);}
	.st2{fill:#C0CCEA;}
	.st3{fill:#E57674;}
	.st4{fill:#2D2E41;}
	.st5{fill:#315369;}
	.st6{opacity:0.32;fill:#EE7574;}
	.st7{fill:#FFFFFF;}
	.st8{fill:none;stroke:#C0CCEA;stroke-width:0.5266;stroke-miterlimit:10;}
	.st9{fill:#1C283E;}
	.st10{fill:#F4F1F0;}
	.st11{fill:none;stroke:#2D2E41;stroke-miterlimit:10;}
	.st12{clip-path:url(#SVGID_00000052066554330725839960000010526771992071524230_);fill:#D8A798;}
	.st13{clip-path:url(#SVGID_00000052066554330725839960000010526771992071524230_);}
	.st14{fill:#C43D4D;}
</style>
<g>
	<defs>
		<path id="SVGID_1_" d="M-177,94.92c0,67.48-54.7,122.18-122.18,122.18s-122.18-54.7-122.18-122.18
			c0-67.48,54.7-160.1,122.18-160.1S-177,27.44-177,94.92z"/>
	</defs>
	<clipPath id="SVGID_00000020392998263068133380000006671532829228814261_">
		<use xlink:href="#SVGID_1_"  style="overflow:visible;"/>
	</clipPath>
	
		<circle style="clip-path:url(#SVGID_00000020392998263068133380000006671532829228814261_);fill:#D8A798;" cx="-299.18" cy="94.92" r="122.18"/>
	<g style="clip-path:url(#SVGID_00000020392998263068133380000006671532829228814261_);">
		<g>
			<g>
				<path class="st2" d="M-238.11,49c0,0-21.43-11.93-52.9-20.51c-31.47-8.58-62.93-11.53-62.93-11.53s33.54,25.05,56.17,29.73
					C-275.15,51.38-238.11,49-238.11,49z"/>
			</g>
			<g>
				<path class="st3" d="M-274.48,124.93l-52.15-85.27l-33.45-10.82c0,0-8.86,16.73-11.81,26.24c-2.95,9.51-5.12,24.26-5.12,24.26
					s-5.03,2.34-9.88,9.37c-4.84,7.03-5.69,15.88-5.69,15.88l12.45,3.78c0,0-0.84,56.55,45.04,47.62l28.36,50.48l56.51-39.23
					L-274.48,124.93z"/>
				<path class="st4" d="M-238.11,49c4.54,8.18,6.44,17.81,5.33,27.1c-0.09,0.74-0.35,1.65-1.09,1.75
					c-0.38,0.05-0.75-0.14-1.06-0.36c-1.76-1.19-2.94-3.2-3.13-5.32c1.36,8.39-0.22,17.05-3.32,24.97
					c-3.1,7.91-7.66,15.16-12.43,22.19c-2.18,3.22-4.44,6.44-5.83,10.07s-1.85,7.78-0.39,11.38c-1.87,0.13-3.77-0.79-4.84-2.33
					c1.3,1.71,2.5,4.41,0.78,5.7c-1.13,0.85-2.74,0.34-4.04-0.21c-3.49-1.46-7.04-2.94-9.99-5.3c-3.87-3.1-6.47-7.5-8.7-11.93
					c-5.11-10.17-8.75-21.08-10.76-32.28c-5.02-0.6-10.63-0.98-15.66-1.58c0.08-6.52,0.16-13.22,0.91-19.7
					c-49.62-8.34-45.88-36.42-47.06-40.5c-2.61,2.43-5.18,5.46-7.12,8.46c-0.12,0.19-0.07,0.06-0.19,0.26
					c-2.89-4.39-2.3-10.46,0.48-14.91c2.79-4.46,7.41-7.48,12.26-9.5c0,0,19.26,14.27,56.88,22.88S-238.11,49-238.11,49z"/>
				<path class="st4" d="M-335.39,156.17c10.77-5.6,20.28-13.58,27.66-23.22c-5.09,12.09-12.85,23.32-22.34,32.39"/>
				<path class="st5" d="M-195.56,232.9c0,0-43.86-67.66-58.48-72.83c-14.62-5.18-44.77,17.67-64.57,33.81
					c-19.8,16.14-42.95,43.59-42.95,43.59L-195.56,232.9z"/>
				
					<ellipse transform="matrix(0.0953 -0.9955 0.9955 0.0953 -417.207 -259.7012)" class="st6" cx="-351.47" cy="99.67" rx="8.64" ry="13.63"/>
				<path class="st4" d="M-370.17,77.63c0,2.98,1.54,5.4,3.45,5.4c1.9,0,3.45-2.42,3.45-5.4c0-2.98-1.54-5.4-3.45-5.4
					C-368.62,72.23-370.17,74.65-370.17,77.63z"/>
				<path class="st4" d="M-341.54,71.55c-11.34-2.2-31.13-13.69-31.13-13.69s1.48-5.22,2.45-7.38
					C-362.24,59.2-352.31,66.64-341.54,71.55z"/>
				<path class="st4" d="M-237.25,49.81c1.79,6.12,3.85,12.65,8.9,16.54c3.15,2.43,7.1,3.52,10.67,5.27
					c5.92,2.9,10.93,7.86,13.31,14.01c2.38,6.15,1.92,13.47-1.74,18.95c5.81-2.02,12.48,2.18,14.69,7.92
					c2.21,5.74,0.8,12.33-2.01,17.8c6.32-2.1,13.68,1.86,16.44,7.92c2.76,6.07,1.39,13.48-2.4,18.97
					c-3.79,5.48-9.68,9.22-15.89,11.64c1.92,0.73,2.93,2.97,2.82,5.02c-0.11,2.05-1.12,3.94-2.22,5.67
					c-6.08,9.54-15.98,16.57-26.99,19.15c-3,0.7-7.12,0.47-7.97-2.49c1.07,1.45,0.61,3.61-0.57,4.97c-1.18,1.36-2.9,2.11-4.57,2.8
					c-5.33,2.19-10.84,4.17-16.59,4.63c-5.75,0.46-11.82-0.74-16.31-4.35s-7.03-9.9-5.26-15.39c-5.93,3.41-13.68,3.37-19.58-0.1
					c-5.89-3.47-9.69-10.23-9.58-17.07c0.07-4.38,2.42-9.37,6.76-10c-5.44-0.47-9.23-6.01-9.96-11.43
					c-1.19-8.84,4.26-18.14,12.55-21.43c-4.41-2.62-6.27-8.79-4.04-13.41c0.75-1.56,1.88-2.9,3-4.22
					c17.58-20.55,33.68-46.43,55.66-62.19"/>
				<g>
					<path class="st3" d="M-272.43,86.99c-0.45,7.52-4.26,14.77-10.2,19.4c-1.86,1.45-3.97,2.67-6.3,3.03
						c-5.25,0.82-10.39-3.12-12.41-8.03c-2.03-4.91-1.55-10.51-0.36-15.69c1.53-6.7,4.94-13.88,11.48-15.99
						C-279.68,66.32-271.87,77.68-272.43,86.99z"/>
					<path class="st3" d="M-295.68,103.49c2.25-0.89,4.24-2.43,5.68-4.38c0.29-0.39,0.56-0.82,0.6-1.31
						c0.08-0.93-0.7-1.68-1.41-2.28c-1.44-1.21-2.88-2.43-4.32-3.64c-0.29-0.24-0.59-0.5-0.72-0.85c-0.14-0.39-0.06-0.82,0.03-1.22
						c1.09-5.15,2.43-10.72,6.52-14.04c1.1-0.9,2.41-1.6,3.83-1.74c2.1-0.21,4.17,0.85,5.65,2.35c1.48,1.5,2.47,3.42,3.39,5.31
						c0,0,2,10.67-4.94,17.77C-288.31,106.56-295.68,103.49-295.68,103.49z"/>
					<g>
						<path class="st4" d="M-276.43,81.69c-1.13-1.86-2.26-3.76-3.85-5.13c-1.54-1.36-3.61-2.18-5.47-1.77
							c-1.86,0.43-3.51,1.82-4.74,3.42c-1.25,1.61-2.15,3.51-2.8,5.51c-0.7,1.99-1.17,4.09-1.65,6.2c-0.06,0.27-0.11,0.48-0.11,0.63
							c0,0.16,0,0.17,0.06,0.28c0.12,0.2,0.65,0.62,1.03,0.97c0.82,0.71,1.63,1.44,2.44,2.17l1.22,1.1
							c0.42,0.38,0.86,0.81,1.19,1.41c0.35,0.57,0.41,1.47,0.08,2.07c-0.3,0.61-0.68,1-1.06,1.43c-1.53,1.65-3.47,2.9-5.58,3.51
							c1.94-1,3.63-2.39,4.88-4.09c0.3-0.42,0.64-0.87,0.78-1.26c0.14-0.39,0.08-0.7-0.15-1.05c-0.46-0.68-1.45-1.31-2.28-2
							c-0.86-0.67-1.71-1.35-2.55-2.04c-0.42-0.38-0.82-0.57-1.37-1.24c-0.26-0.33-0.42-0.87-0.4-1.26c0-0.4,0.07-0.72,0.12-0.98
							c0.43-2.14,0.9-4.3,1.62-6.43c0.73-2.11,1.72-4.21,3.19-6.01c0.73-0.9,1.6-1.69,2.55-2.37c0.96-0.67,2.08-1.2,3.3-1.38
							c1.23-0.19,2.48,0.03,3.55,0.52c1.08,0.49,2.02,1.19,2.8,2.02C-278.1,77.61-277.2,79.65-276.43,81.69z"/>
					</g>
				</g>
				<g>
					<path class="st4" d="M-378.24,120.29c6.22,1.72,12.11,4.31,17.46,7.65c-5.81-2.45-11.91-4.03-18.04-4.71L-378.24,120.29z"/>
				</g>
				<path class="st7" d="M-367.08,87.34c0,0-6.75,12.2-0.52,12.2C-361.37,99.53-367.08,87.34-367.08,87.34z"/>
			</g>
		</g>
		<g>
			<circle class="st8" cx="-231.91" cy="40.85" r="4.12"/>
			<path class="st2" d="M-217.13,51.51c0,1.14,0.92,2.06,2.06,2.06c1.14,0,2.06-0.92,2.06-2.06s-0.92-2.06-2.06-2.06
				C-216.21,49.45-217.13,50.37-217.13,51.51z"/>
		</g>
		<g>
			<circle class="st8" cx="-327.62" cy="-45.21" r="4.12"/>
			<path class="st2" d="M-343.91-25.63c0,1.14,0.92,2.06,2.06,2.06c1.14,0,2.06-0.92,2.06-2.06c0-1.14-0.92-2.06-2.06-2.06
				C-342.99-27.69-343.91-26.77-343.91-25.63z"/>
		</g>
		<g>
			<path class="st8" d="M-255.38-38.69c0,2.27,1.84,4.12,4.12,4.12s4.12-1.84,4.12-4.12c0-2.27-1.84-4.12-4.12-4.12
				S-255.38-40.97-255.38-38.69z"/>
			<path class="st2" d="M-253.98-22.75c0,1.14,0.92,2.06,2.06,2.06c1.14,0,2.06-0.92,2.06-2.06c0-1.14-0.92-2.06-2.06-2.06
				C-253.06-24.81-253.98-23.88-253.98-22.75z"/>
		</g>
		<g>
			<g>
				<path class="st2" d="M-344.88,35.73c2.58,4.26,5.74,8.13,9.39,11.45c3.65,3.32,7.76,6.13,12.24,8.19
					c4.44,2.13,9.23,3.5,14.12,4.19c2.44,0.35,4.92,0.52,7.39,0.49c2.48,0.01,4.95-0.21,7.42-0.57c-2.42,0.58-4.91,0.9-7.4,1.06
					c-2.5,0.12-5.01,0.05-7.5-0.22c-4.99-0.55-9.88-1.95-14.45-4.05c-4.53-2.18-8.74-5.05-12.34-8.54
					C-339.61,44.25-342.66,40.19-344.88,35.73z"/>
			</g>
			<g>
				<path class="st2" d="M-322.1,40.81c5.77,3.33,11.77,6.22,17.97,8.59c6.2,2.37,12.57,4.29,19.07,5.62
					c6.48,1.4,13.09,2.21,19.72,2.53l4.98,0.14l4.98-0.07l4.98-0.25l4.97-0.45l-4.95,0.71l-4.98,0.48l-5,0.21l-5.01-0.01
					c-6.68-0.16-13.34-0.99-19.89-2.32c-6.53-1.42-12.96-3.34-19.15-5.88C-310.59,47.57-316.55,44.49-322.1,40.81z"/>
			</g>
			<g>
				<path class="st2" d="M-250.31,70.02c3.14,0.03,6.27,0.51,9.3,1.39c3.02,0.87,5.97,2.19,8.44,4.24c1.23,1.01,2.31,2.24,3.13,3.63
					c0.83,1.39,1.32,3,1.41,4.63c0.1,1.62-0.18,3.28-0.87,4.78c-0.67,1.5-1.84,2.81-3.33,3.61l-0.16-0.86
					c2.65,0.29,5.24,1.13,7.54,2.51c2.29,1.37,4.29,3.33,5.51,5.76c1.23,2.43,1.55,5.26,1.03,7.91c-0.52,2.64-1.98,5.18-4.28,6.69
					l-0.21-0.79c2.65,0.16,5.14,1.43,6.99,3.25c1.85,1.82,3.12,4.28,3.34,6.88c0.23,2.61-0.64,5.21-2.15,7.27
					c-1.5,2.07-3.7,3.65-6.18,4.21c2.44-0.69,4.53-2.33,5.92-4.4c1.4-2.06,2.11-4.59,1.85-7.04c-0.26-2.45-1.51-4.74-3.29-6.41
					c-1.78-1.68-4.12-2.77-6.53-2.91l-1.28-0.07l1.07-0.71c2.07-1.38,3.4-3.71,3.86-6.15c0.47-2.45,0.15-5.08-0.99-7.29
					c-1.15-2.22-2.99-4.06-5.14-5.38c-2.16-1.32-4.62-2.14-7.14-2.43l-1.46-0.17l1.31-0.69c1.29-0.68,2.33-1.81,2.95-3.17
					c0.63-1.35,0.9-2.87,0.82-4.37c-0.05-3.05-1.8-5.83-4.11-7.82c-2.33-2.02-5.2-3.37-8.14-4.36
					C-244.09,70.8-247.19,70.22-250.31,70.02z"/>
			</g>
			<g>
				<path class="st2" d="M-255.51,108.47c3.07,0.53,6.12,1.29,9.01,2.52c2.88,1.22,5.6,3.01,7.61,5.49c2.02,2.5,3.02,5.74,2.91,8.95
					c-0.07,1.61-0.44,3.22-1.18,4.67c-0.73,1.45-1.88,2.73-3.3,3.57l-0.07-0.82c3.96,1.46,7.12,4.9,8.2,9
					c1.05,4.11-0.02,8.65-2.77,11.86l-0.23-0.73c6,1.52,10.64,7.05,11.13,13.15c0.5,6.1-3.22,12.2-8.71,14.57
					c5.37-2.63,8.68-8.71,8.09-14.51c-0.62-5.8-5.14-10.94-10.73-12.33l-0.71-0.18l0.47-0.56c2.53-2.99,3.49-7.25,2.49-11.02
					c-0.98-3.77-3.88-7.03-7.55-8.4l-0.91-0.34l0.84-0.48c2.6-1.49,3.98-4.51,4.1-7.5c0.17-3-0.71-6.11-2.57-8.51
					c-1.88-2.43-4.48-4.22-7.27-5.54C-249.46,110.02-252.48,109.16-255.51,108.47z"/>
			</g>
			<g>
				<path class="st2" d="M-271.71,125.3c2.59,0.79,4.87,2.52,6.51,4.71c1.64,2.19,2.63,4.91,2.69,7.69
					c0.06,2.79-0.86,5.56-2.46,7.83c-1.59,2.28-3.85,4.12-6.5,5.07l-0.21-0.93c0.96-0.11,1.95,0.14,2.76,0.63
					c0.82,0.49,1.47,1.19,1.95,1.97c0.96,1.56,1.34,3.5,0.85,5.31c-0.48,1.77-1.56,3.29-2.85,4.49c-1.29,1.21-2.78,2.17-4.33,2.94
					l-0.07-0.73c1.72,0.59,2.7,2.33,2.74,4c0.03,1.69-0.76,3.26-1.81,4.46c-2.14,2.42-5.54,3.61-8.63,3.02
					c3.12,0.36,6.34-0.96,8.25-3.35c0.96-1.17,1.62-2.64,1.55-4.11c-0.06-1.43-0.99-2.87-2.32-3.26l-0.91-0.27l0.85-0.47
					c1.48-0.81,2.9-1.73,4.09-2.88c1.19-1.14,2.15-2.53,2.55-4.09c0.4-1.52,0.05-3.21-0.78-4.55c-0.83-1.33-2.25-2.33-3.78-2.17
					l-4.21,0.46l4-1.39c2.45-0.85,4.59-2.55,6.1-4.67c1.51-2.13,2.43-4.7,2.47-7.32C-263.18,132.44-266.67,127.25-271.71,125.3z"/>
			</g>
		</g>
		<g>
			<polygon class="st9" points="-282.66,-3.45 -291.83,15.33 -295.28,10.34 -282.03,11.57 -278.07,11.94 -279.79,15.02 
				-292.69,38.18 -284.28,13.03 -282.03,16.48 -295.28,17.72 -300.23,18.18 -298.73,12.72 -293.19,-7.43 			"/>
		</g>
		<g>
			<polygon class="st9" points="-218.75,13.71 -223.31,23.05 -225.03,20.56 -218.44,21.18 -216.47,21.36 -217.32,22.89 
				-223.74,34.42 -219.56,21.91 -218.44,23.62 -225.03,24.24 -227.5,24.47 -226.75,21.75 -223.99,11.73 			"/>
		</g>
		<polygon class="st9" points="-345.87,-10.05 -351.27,-0.02 -353.44,-3.16 -346.85,-2.39 -344.33,-2.09 -345.43,-0.22 
			-352.15,11.18 -348.26,-1.47 -346.85,0.7 -353.44,1.48 -356.48,1.84 -355.61,-1.66 -353.41,-10.52 		"/>
		<g>
			<polygon class="st9" points="-241.91,13.71 -246.47,23.05 -248.19,20.56 -241.6,21.18 -239.63,21.36 -240.48,22.89 -246.9,34.42 
				-242.72,21.91 -241.6,23.62 -248.19,24.24 -250.66,24.47 -249.91,21.75 -247.15,11.73 			"/>
		</g>
		<path class="st10" d="M-241.84-0.92h-98.09c-0.73-4.03-0.11-7.69,2.64-10.73c2.75-3.04,6.96-4.7,11.04-4.37
			c-1.05-6.08,0.98-11.91,5.13-16.48c4.15-4.57,11.33-5.22,17.48-4.76c2.35-4.9,8.53-8.7,13.95-9.12c4.51-0.35,9.01,1.67,12.21,4.87
			c3.19,3.2,3.43,5.26,4.38,9.68c3.12-0.52,5.92-0.52,8.88,0.58c1.52,0.57,2.86,1.53,4.06,2.61c3.44,3.1,5.91,7.35,6.53,11.93
			c3.49,0.65,6.59,1.91,8.69,4.78C-242.85-9.05-241.4-4.44-241.84-0.92z"/>
		<path class="st5" d="M-201.33,15.25h-68.4c-0.51-2.81-0.08-5.37,1.84-7.48c1.92-2.12,4.85-3.28,7.7-3.05
			c-0.73-4.24,0.68-8.31,3.58-11.5c2.89-3.19,7.9-3.64,12.19-3.32c1.64-3.42,5.95-6.07,9.73-6.36c3.14-0.24,6.29,1.16,8.51,3.39
			c2.23,2.23,2.39,3.67,3.05,6.75c2.17-0.36,4.13-0.36,6.19,0.41c1.06,0.39,1.99,1.07,2.83,1.82c2.4,2.16,4.12,5.12,4.55,8.32
			c2.44,0.45,4.6,1.33,6.06,3.33C-202.04,9.57-201.03,12.79-201.33,15.25z"/>
		<path class="st11" d="M-310.6-10.4h-55.27c-0.41-2.27-0.06-4.33,1.49-6.05c1.55-1.71,3.92-2.65,6.22-2.46
			c-0.59-3.43,0.55-6.71,2.89-9.29c2.34-2.58,6.38-2.94,9.85-2.68c1.32-2.76,4.81-4.9,7.86-5.14c2.54-0.2,5.08,0.94,6.88,2.74
			c1.8,1.8,1.93,2.97,2.47,5.45c1.76-0.29,3.33-0.29,5,0.33c0.85,0.32,1.61,0.86,2.29,1.47c1.94,1.74,3.33,4.14,3.68,6.72
			c1.97,0.37,3.71,1.08,4.89,2.69C-311.17-14.98-310.35-12.39-310.6-10.4z"/>
	</g>
</g>
<g>
	<defs>
		<path id="SVGID_00000150787301475673321790000003949368741431530941_" d="M277.04,171.18c0,70.14-56.86,126.99-126.99,126.99
			c-70.14,0-126.99-56.86-126.99-126.99c0-70.14,56.86-174.61,126.99-174.61C220.19-3.43,277.04,101.05,277.04,171.18z"/>
	</defs>
	<clipPath id="SVGID_00000098931378351412912240000017268343554976720799_">
		<use xlink:href="#SVGID_00000150787301475673321790000003949368741431530941_"  style="overflow:visible;"/>
	</clipPath>
	
		<circle style="clip-path:url(#SVGID_00000098931378351412912240000017268343554976720799_);fill:#D8A798;" cx="150.05" cy="171.18" r="126.99"/>
	<g style="clip-path:url(#SVGID_00000098931378351412912240000017268343554976720799_);">
		<g>
			<g>
				<path class="st2" d="M89.12,114.06c0,0,22.28-12.4,54.99-21.32c32.71-8.92,65.41-11.98,65.41-11.98s-34.86,26.04-58.38,30.9
					C127.61,116.53,89.12,114.06,89.12,114.06z"/>
			</g>
			<g>
				<path class="st3" d="M126.92,192.98l54.2-88.63l34.77-11.25c0,0,9.2,17.38,12.27,27.27c3.07,9.89,5.32,25.21,5.32,25.21
					l10.26,9.74c4.28,5.47,3.08,13.42-2.63,17.38l-4.4,3.06c0,0,0.87,58.78-46.81,49.5l-29.48,52.46l-58.73-40.77L126.92,192.98z"/>
				<path class="st4" d="M89.12,114.06c-4.72,8.5-6.69,18.51-5.54,28.17c0.09,0.77,0.37,1.71,1.13,1.82
					c0.39,0.06,0.78-0.15,1.1-0.37c1.83-1.24,3.06-3.33,3.26-5.53c-1.41,8.72,0.23,17.73,3.45,25.95
					c3.22,8.22,7.96,15.76,12.92,23.06c2.27,3.34,4.61,6.69,6.06,10.46c1.45,3.77,1.92,8.08,0.4,11.83
					c1.94,0.13,3.92-0.82,5.03-2.42c-1.35,1.77-2.59,4.58-0.81,5.92c1.18,0.89,2.84,0.35,4.2-0.21c3.63-1.51,7.31-3.06,10.38-5.51
					c4.03-3.22,6.73-7.79,9.04-12.4c5.32-10.57,9.1-21.91,11.18-33.55c5.22-0.62,11.05-1.02,16.27-1.64
					c-0.08-6.77-0.17-13.74-0.94-20.47c51.58-8.66,47.68-37.85,48.92-42.09c2.72,2.53,5.38,5.68,7.4,8.8
					c0.13,0.2,0.07,0.07,0.19,0.27c3.01-4.56,2.39-10.87-0.5-15.5c-2.9-4.63-7.7-7.78-12.75-9.87c0,0-20.02,14.83-59.12,23.79
					S89.12,114.06,89.12,114.06z"/>
				<path class="st4" d="M152.53,158.4c-6.26,42.74-28.31,82.99-60.97,111.27c-7.79,6.74-16.12,12.81-24.45,18.86
					c-7.93,5.77-15.86,11.53-23.79,17.3c-11.67-9.91-17.75-24.25-18.54-39.54c-0.79-15.29,4.33-30.67,13.43-42.99
					c-4.65,4.95-10.09,11.49-13.64,17.28c-3.99-15.15,2.61-31.19,11.79-43.89c9.17-12.7,21.03-23.31,30.04-36.13
					c9.06-12.9,15-27.68,20.86-42.31c8.62,1.89,17.23,3.79,25.85,5.68c9.52,2.09,19.28,4.28,27.42,9.64
					C148.66,138.9,153.94,148.75,152.53,158.4z"/>
				<g>
					<path class="st3" d="M124.78,153.55c0.47,7.81,4.43,15.35,10.6,20.16c1.93,1.51,4.13,2.78,6.55,3.15
						c5.46,0.85,10.79-3.24,12.9-8.35c2.11-5.11,1.61-10.92,0.38-16.3c-1.59-6.96-5.14-14.42-11.93-16.62
						C132.33,132.06,124.21,143.87,124.78,153.55z"/>
					<path class="st3" d="M148.95,170.7c-2.34-0.93-4.41-2.52-5.9-4.55c-0.3-0.41-0.59-0.86-0.63-1.36
						c-0.08-0.96,0.73-1.74,1.47-2.37c1.5-1.26,2.99-2.52,4.49-3.78c0.3-0.25,0.61-0.52,0.75-0.89c0.15-0.4,0.06-0.85-0.03-1.27
						c-1.13-5.36-2.52-11.14-6.77-14.59c-1.15-0.93-2.51-1.66-3.98-1.81c-2.18-0.22-4.34,0.88-5.88,2.44
						c-1.54,1.56-2.56,3.55-3.53,5.52c0,0-2.08,11.09,5.13,18.47C141.29,173.89,148.95,170.7,148.95,170.7z"/>
					<g>
						<path class="st4" d="M128.94,148.04c0.81-2.11,1.75-4.24,3.36-5.99c0.81-0.86,1.79-1.59,2.91-2.09
							c1.11-0.5,2.41-0.73,3.68-0.53c1.26,0.19,2.42,0.73,3.42,1.43c0.99,0.71,1.88,1.52,2.64,2.46c1.53,1.86,2.55,4.04,3.31,6.24
							c0.74,2.21,1.23,4.46,1.68,6.68c0.05,0.28,0.13,0.61,0.12,1.02c0.01,0.4-0.14,0.95-0.41,1.29c-0.56,0.68-0.98,0.89-1.41,1.28
							c-0.88,0.72-1.76,1.42-2.65,2.12c-0.86,0.72-1.89,1.37-2.37,2.09c-0.24,0.37-0.3,0.7-0.16,1.11c0.15,0.41,0.5,0.88,0.81,1.31
							c1.3,1.77,3.06,3.21,5.08,4.24c-2.18-0.65-4.2-1.94-5.78-3.66c-0.39-0.44-0.78-0.85-1.09-1.48c-0.34-0.63-0.27-1.54,0.08-2.14
							c0.33-0.62,0.79-1.06,1.23-1.45l1.26-1.14c0.84-0.76,1.68-1.51,2.54-2.26c0.4-0.36,0.94-0.79,1.08-1.01
							c0.07-0.12,0.07-0.14,0.07-0.31c0-0.16-0.05-0.38-0.12-0.66c-0.5-2.2-0.99-4.38-1.72-6.45c-0.68-2.08-1.62-4.06-2.92-5.74
							c-1.28-1.67-3.01-3.12-4.95-3.56c-1.94-0.42-4.1,0.44-5.7,1.86C131.28,144.12,130.11,146.1,128.94,148.04z"/>
					</g>
				</g>
				<path class="st4" d="M190.23,225.45c-11.19-5.82-21.08-14.12-28.75-24.14c5.29,12.57,13.35,24.24,23.22,33.66"/>
				<path class="st5" d="M44.89,305.2c0,0,45.59-70.32,60.78-75.7c15.2-5.38,46.54,18.36,67.11,35.14
					c20.58,16.78,44.64,45.31,44.64,45.31L44.89,305.2z"/>
				<path class="st6" d="M192.84,168.08c0.47,4.94,7.17,8.34,14.96,7.59c7.79-0.75,13.72-5.35,13.25-10.29
					c-0.47-4.94-7.17-8.34-14.96-7.59C198.3,158.53,192.37,163.14,192.84,168.08z"/>
				<path class="st4" d="M226.38,143.82c0,3.1-1.61,5.62-3.58,5.62s-3.58-2.51-3.58-5.62c0-3.1,1.61-5.62,3.58-5.62
					S226.38,140.72,226.38,143.82z"/>
				<path class="st4" d="M196.62,137.5c11.78-2.28,32.36-14.23,32.36-14.23s-1.54-5.43-2.54-7.67
					C218.13,124.66,207.82,132.4,196.62,137.5z"/>
				<path class="st14" d="M235.04,192.13c-6.3,2.75-13.4,3.64-20.19,2.53c7.97-2.53,14.78-6.32,21.48-11.33
					C238.27,186.01,238.07,190.81,235.04,192.13z"/>
				<path class="st14" d="M215.54,194.07c5.27,2.12,10.55,4.25,16.03,5.75c0.71,0.19,1.49,0.38,2.17,0.1
					c0.91-0.37,1.32-1.43,1.48-2.4c0.41-2.5-0.28-5.16-1.86-7.14"/>
				<g>
					<g>
						<path class="st2" d="M207.44,87.9c-0.46,3.45-1.56,6.8-3.06,9.96c-1.53,3.14-3.5,6.07-5.73,8.76
							c-4.5,5.37-10.11,9.73-16.12,13.27c-6.06,3.47-12.53,6.23-19.25,8.11c-3.36,0.93-6.77,1.67-10.22,2.19
							c-3.45,0.49-6.92,0.8-10.39,0.84c3.46-0.27,6.91-0.69,10.31-1.35c3.4-0.62,6.77-1.44,10.07-2.46c6.61-2.02,13-4.75,18.95-8.24
							c5.98-3.42,11.48-7.72,16.04-12.89C202.57,100.94,206.07,94.73,207.44,87.9z"/>
					</g>
					<g>
						<path class="st2" d="M163.49,109.25l-3.47,2.11l-3.58,1.94l-3.68,1.75l-3.76,1.59c-5.06,2-10.32,3.48-15.65,4.57
							c-5.35,1-10.78,1.6-16.22,1.64l-4.08-0.06l-4.07-0.24l-4.05-0.46l-4.01-0.66l4.04,0.38l4.05,0.22l4.05,0.09l4.05-0.08
							c5.39-0.21,10.76-0.79,16.04-1.86c5.3-0.99,10.49-2.47,15.57-4.29l3.78-1.44l3.72-1.6l3.67-1.72L163.49,109.25z"/>
					</g>
					<g>
						<path class="st2" d="M126.43,180.09c-0.95,1.85-1.97,3.65-2.98,5.46c-1.05,1.79-2.12,3.56-3.21,5.33
							c-2.2,3.52-4.56,6.94-6.96,10.32c-2.47,3.33-4.99,6.64-7.66,9.82c-1.34,1.58-2.7,3.15-4.07,4.71
							c-1.41,1.52-2.81,3.06-4.27,4.53l3.87-4.86c1.29-1.62,2.57-3.24,3.83-4.88c2.53-3.27,5.04-6.56,7.44-9.93
							c2.46-3.32,4.8-6.73,7.14-10.14c1.17-1.71,2.31-3.43,3.45-5.16L126.43,180.09z"/>
					</g>
					<g>
						<path class="st2" d="M110.89,145.42c-1.07,5.8-2.87,11.47-5.12,16.93c-2.28,5.46-5.02,10.71-8.03,15.8
							c-6.03,10.18-13.16,19.63-20.13,29.13c-7.03,9.45-13.85,19.08-19.46,29.43c-2.8,5.17-5.27,10.52-7.19,16.08
							c-1.96,5.54-3.32,11.31-4,17.17c0.44-5.89,1.71-11.7,3.51-17.33c1.84-5.62,4.23-11.06,6.96-16.3
							c5.49-10.49,12.36-20.17,19.33-29.67c7.04-9.46,14.13-18.88,20.28-28.92C103.19,167.72,108.31,156.96,110.89,145.42z"/>
					</g>
					<g>
						<path class="st2" d="M98.26,133.62c-2.14,3.57-4.38,7.07-6.62,10.58l-3.45,5.2l-3.51,5.16c-4.73,6.85-9.69,13.54-14.76,20.14
							c-5.14,6.55-10.4,13-15.87,19.28l-4.14,4.67l-4.19,4.62c-2.85,3.04-5.7,6.07-8.62,9.02l4.14-4.67l4.1-4.7l4.08-4.72l4.02-4.76
							c5.34-6.37,10.59-12.81,15.66-19.4c5.13-6.53,10.07-13.22,14.94-19.96l3.62-5.07l3.57-5.11l3.54-5.13L98.26,133.62z"/>
					</g>
				</g>
			</g>
		</g>
		<g>
			<path class="st4" d="M167.93,34.73c0.99,4.66,0.12,9.72-2.61,15.16L159.79,61c-0.8,1.63-1.13,3.19-1.01,4.67c0,0,0,0.01,0,0.01
				c0.1,1.06-0.57,2.04-1.62,2.27l-13.45,2.85c-1.39,0.29-2.75-0.59-3.04-1.98l0,0c-0.97-4.59-0.33-8.95,1.91-13.07l5.75-10.58
				c1.47-2.75,2.02-4.99,1.66-6.74c-0.94-4.44-3.6-6.2-7.96-5.28c-3.64,0.77-5.43,2.81-5.36,6.13c0.03,1.25-0.78,2.36-2.01,2.62
				l-13.01,2.75c-1.49,0.31-2.92-0.73-3.09-2.24c-0.68-5.98,0.7-11.28,4.15-15.91c3.68-4.89,8.98-8.06,15.9-9.53
				c6.84-1.45,12.93-0.72,18.27,2.18C162.72,22.33,166.41,27.52,167.93,34.73z M163.89,83.07c0.6,2.84,0.1,5.5-1.51,7.97
				c-1.61,2.47-3.83,4.01-6.67,4.61c-2.84,0.6-5.5,0.1-7.97-1.51c-2.47-1.61-4.01-3.83-4.61-6.67c-0.6-2.84-0.1-5.5,1.51-7.97
				c1.61-2.47,3.83-4.01,6.67-4.61c2.84-0.6,5.5-0.1,7.97,1.51C161.76,78.01,163.29,80.23,163.89,83.07z"/>
		</g>
		<g>
			<path class="st5" d="M202.9,52.95c-1.04,2.61-3.12,4.81-6.23,6.59l-6.34,3.64c-0.92,0.54-1.6,1.19-2.02,1.96c0,0,0,0,0,0
				c-0.3,0.55-0.95,0.82-1.53,0.58l-7.53-2.99c-0.78-0.31-1.16-1.19-0.85-1.97l0,0c1.02-2.57,2.76-4.5,5.21-5.79l6.28-3.31
				c1.62-0.87,2.62-1.79,3.01-2.77c0.99-2.49,0.26-4.22-2.19-5.19c-2.04-0.81-3.58-0.39-4.63,1.26c-0.4,0.62-1.15,0.9-1.84,0.63
				l-7.29-2.9c-0.83-0.33-1.2-1.31-0.79-2.11c1.62-3.16,4.03-5.31,7.23-6.45c3.4-1.2,7.04-1.03,10.92,0.51
				c3.83,1.52,6.58,3.87,8.25,7.04C204.39,45.16,204.5,48.91,202.9,52.95z M185.14,75.35c-0.63,1.59-1.75,2.73-3.34,3.42
				c-1.6,0.69-3.19,0.72-4.78,0.08c-1.59-0.63-2.73-1.75-3.42-3.34c-0.69-1.6-0.72-3.19-0.08-4.78c0.63-1.59,1.75-2.73,3.34-3.42
				c1.59-0.69,3.19-0.72,4.78-0.08c1.59,0.63,2.73,1.75,3.42,3.34C185.74,72.17,185.77,73.76,185.14,75.35z"/>
		</g>
		<g>
			<path class="st5" d="M110.93,56.13c2.02,1.95,3.26,4.71,3.72,8.27l0.96,7.25c0.15,1.06,0.5,1.93,1.05,2.62c0,0,0,0,0,0
				c0.4,0.49,0.39,1.19-0.04,1.64l-5.63,5.83c-0.58,0.6-1.54,0.62-2.14,0.04l0,0c-1.99-1.92-3.11-4.26-3.38-7.02l-0.68-7.06
				c-0.19-1.83-0.66-3.11-1.42-3.84c-1.92-1.86-3.8-1.84-5.63,0.05c-1.53,1.58-1.72,3.16-0.6,4.76c0.42,0.6,0.4,1.41-0.12,1.94
				l-5.45,5.64c-0.62,0.64-1.67,0.61-2.25-0.07c-2.3-2.7-3.38-5.74-3.22-9.14c0.19-3.6,1.73-6.9,4.63-9.9
				c2.87-2.97,6.08-4.62,9.64-4.96C104.29,51.79,107.81,53.12,110.93,56.13z M124.9,81.08c1.23,1.19,1.86,2.65,1.89,4.39
				c0.03,1.74-0.55,3.22-1.74,4.45c-1.19,1.23-2.65,1.86-4.39,1.89c-1.74,0.03-3.22-0.55-4.45-1.74c-1.23-1.19-1.86-2.65-1.89-4.39
				c-0.03-1.74,0.55-3.22,1.74-4.45c1.19-1.23,2.65-1.86,4.39-1.89C122.19,79.31,123.67,79.89,124.9,81.08z"/>
		</g>
		<g>
			<circle class="st8" cx="99.7" cy="90.52" r="4.28"/>
			<path class="st2" d="M84.34,101.6c0,1.18-0.96,2.14-2.14,2.14c-1.18,0-2.14-0.96-2.14-2.14s0.96-2.14,2.14-2.14
				C83.38,99.47,84.34,100.42,84.34,101.6z"/>
		</g>
		<g>
			<circle class="st8" cx="224.96" cy="59.29" r="4.28"/>
			<path class="st2" d="M209.6,70.38c0,1.18-0.96,2.14-2.14,2.14c-1.18,0-2.14-0.96-2.14-2.14c0-1.18,0.96-2.14,2.14-2.14
				C208.64,68.24,209.6,69.19,209.6,70.38z"/>
		</g>
		<g>
			<circle class="st8" cx="102.79" cy="22.92" r="4.28"/>
			<path class="st2" d="M105.61,39.49c0,1.18-0.96,2.14-2.14,2.14c-1.18,0-2.14-0.96-2.14-2.14c0-1.18,0.96-2.14,2.14-2.14
				C104.66,37.35,105.61,38.31,105.61,39.49z"/>
		</g>
		<g>
			<g>
				<path class="st10" d="M208.6,50.06c1.14-1.29,2.39-2.45,3.67-3.57c1.27-1.12,2.6-2.17,3.94-3.2c1.36-1,2.73-1.99,4.17-2.9
					c1.43-0.92,2.89-1.79,4.45-2.53c-1.14,1.3-2.39,2.46-3.66,3.57c-1.27,1.12-2.6,2.17-3.95,3.2c-1.36,1-2.74,1.99-4.17,2.9
					C211.63,48.45,210.17,49.32,208.6,50.06z"/>
			</g>
			<g>
				<path class="st10" d="M204.49,38.81c0.42-0.93,0.96-1.75,1.54-2.53c0.57-0.78,1.21-1.51,1.87-2.2c0.67-0.69,1.38-1.35,2.14-1.94
					c0.76-0.61,1.56-1.17,2.48-1.62c-0.42,0.93-0.96,1.75-1.54,2.53c-0.57,0.78-1.21,1.51-1.88,2.2c-0.67,0.69-1.38,1.34-2.14,1.94
					C206.21,37.8,205.41,38.36,204.49,38.81z"/>
			</g>
			<g>
				<path class="st10" d="M175.45,31.92c0.4-1.62,0.94-3.18,1.54-4.71c0.59-1.53,1.26-3.02,1.96-4.5c0.72-1.47,1.46-2.93,2.29-4.34
					c0.82-1.42,1.69-2.82,2.71-4.14c-0.39,1.63-0.94,3.18-1.54,4.71c-0.59,1.53-1.26,3.02-1.96,4.5c-0.72,1.47-1.46,2.93-2.29,4.34
					C177.34,29.2,176.47,30.6,175.45,31.92z"/>
			</g>
			<g>
				<path class="st10" d="M171.86,23.24c-0.12-0.8-0.08-1.54,0.01-2.27c0.08-0.73,0.25-1.44,0.46-2.14
					c0.21-0.69,0.47-1.38,0.81-2.03c0.33-0.66,0.72-1.3,1.26-1.89c0.12,0.8,0.08,1.54-0.01,2.28c-0.09,0.73-0.25,1.44-0.46,2.14
					c-0.22,0.69-0.47,1.37-0.81,2.03C172.79,22.01,172.4,22.65,171.86,23.24z"/>
			</g>
			<g>
				<path class="st10" d="M79.38,37.07c1.28,0.4,2.46,0.97,3.59,1.63c1.14,0.65,2.2,1.41,3.23,2.22c1.01,0.83,1.98,1.71,2.86,2.68
					c0.89,0.96,1.7,2,2.36,3.16c-1.16-0.67-2.21-1.42-3.24-2.19c-1.04-0.76-2.03-1.56-3.04-2.35c-0.98-0.81-1.98-1.61-2.94-2.46
					C81.25,38.92,80.29,38.05,79.38,37.07z"/>
			</g>
			<g>
				<path class="st10" d="M76.54,47.12c0.99,0.08,1.91,0.32,2.81,0.6c0.9,0.28,1.77,0.63,2.61,1.02c0.84,0.4,1.67,0.84,2.45,1.36
					c0.79,0.51,1.56,1.07,2.26,1.78c-0.99-0.08-1.91-0.31-2.81-0.6c-0.9-0.28-1.77-0.63-2.61-1.02c-0.84-0.4-1.67-0.84-2.45-1.36
					C78,48.39,77.24,47.83,76.54,47.12z"/>
			</g>
			<g>
				<path class="st10" d="M60.55,87.14c1.97-0.32,3.94-0.47,5.9-0.56c1.97-0.1,3.93-0.11,5.9-0.09c1.96,0.04,3.93,0.11,5.89,0.27
					c1.96,0.15,3.92,0.37,5.88,0.74c-1.97,0.32-3.94,0.47-5.9,0.56c-1.97,0.1-3.93,0.11-5.9,0.09c-1.96-0.05-3.93-0.11-5.89-0.28
					C64.47,87.73,62.51,87.52,60.55,87.14z"/>
			</g>
			<g>
				<path class="st10" d="M73.97,79.45c1.1-0.24,2.2-0.29,3.29-0.26c1.09,0.01,2.17,0.13,3.24,0.31c1.07,0.19,2.12,0.44,3.16,0.79
					c1.03,0.34,2.05,0.76,3.01,1.35c-1.13,0.08-2.21,0.02-3.28-0.08c-1.07-0.09-2.12-0.24-3.17-0.42c-1.05-0.18-2.09-0.4-3.13-0.67
					C76.04,80.21,75,79.91,73.97,79.45z"/>
			</g>
		</g>
	</g>
</g>
</svg>
