<?xml version="1.0" encoding="utf-8"?>
<!-- Generator: Adobe Illustrator 25.4.1, SVG Export Plug-In . SVG Version: 6.00 Build 0)  -->
<svg version="1.1" id="Layer_1" xmlns="http://www.w3.org/2000/svg" xmlns:xlink="http://www.w3.org/1999/xlink" x="0px" y="0px"
	 viewBox="0 0 300 300" style="enable-background:new 0 0 300 300;" xml:space="preserve">
<style type="text/css">
	.st0{clip-path:url(#SVGID_00000127044785365995356620000013112278227009595070_);fill:#D8A798;}
	.st1{clip-path:url(#SVGID_00000127044785365995356620000013112278227009595070_);fill:#315369;}
	.st2{clip-path:url(#SVGID_00000127044785365995356620000013112278227009595070_);}
	.st3{fill:none;stroke:#2D2E41;stroke-width:0.5266;stroke-miterlimit:10;}
	.st4{fill:#2D2E41;}
	.st5{clip-path:url(#SVGID_00000127044785365995356620000013112278227009595070_);fill:#2D2E41;}
	.st6{clip-path:url(#SVGID_00000127044785365995356620000013112278227009595070_);fill:#E57674;}
	.st7{fill:#E57674;}
	.st8{fill:#C0CCEA;}
	.st9{opacity:0.32;clip-path:url(#SVGID_00000127044785365995356620000013112278227009595070_);fill:#EE7574;}
	.st10{clip-path:url(#SVGID_00000127044785365995356620000013112278227009595070_);fill:none;stroke:#2D2E41;stroke-miterlimit:10;}
</style>
<g>
	<defs>
		<path id="SVGID_1_" d="M282.29,164.71C282.29,237.77,223.06,297,150,297c-73.06,0-132.29-59.23-132.29-132.29
			C17.71,91.65,76.94-8.63,150-8.63C223.06-8.63,282.29,91.65,282.29,164.71z"/>
	</defs>
	<clipPath id="SVGID_00000183230942630309588620000000646080627075187098_">
		<use xlink:href="#SVGID_1_"  style="overflow:visible;"/>
	</clipPath>
	
		<circle style="clip-path:url(#SVGID_00000183230942630309588620000000646080627075187098_);fill:#D8A798;" cx="150" cy="164.71" r="132.29"/>
	<path style="clip-path:url(#SVGID_00000183230942630309588620000000646080627075187098_);fill:#315369;" d="M79.63,107.2
		c0,0,23.21-12.92,57.28-22.21c34.08-9.29,68.14-12.48,68.14-12.48s-36.32,27.12-60.82,32.19C119.73,109.77,79.63,107.2,79.63,107.2
		z"/>
	<g style="clip-path:url(#SVGID_00000183230942630309588620000000646080627075187098_);">
		<circle class="st3" cx="59.5" cy="82.68" r="4.46"/>
		<path class="st3" d="M199.07,40.25c0,2.46,1.99,4.46,4.46,4.46s4.46-1.99,4.46-4.46s-2-4.46-4.46-4.46S199.07,37.79,199.07,40.25z
			"/>
		<circle class="st3" cx="61.89" cy="57.58" r="4.46"/>
		<path class="st4" d="M75.5,94.23c0,1.23,1,2.23,2.23,2.23c1.23,0,2.23-1,2.23-2.23c0-1.23-1-2.23-2.23-2.23
			C76.5,92,75.5,93,75.5,94.23z"/>
		<path class="st4" d="M189.94,23.36c0,1.23,1,2.23,2.23,2.23c1.23,0,2.23-1,2.23-2.23c0-1.23-1-2.23-2.23-2.23
			C190.94,21.13,189.94,22.12,189.94,23.36z"/>
		<path class="st4" d="M199.5,62.36c0,1.23,1,2.23,2.23,2.23c1.23,0,2.23-1,2.23-2.23c0-1.23-1-2.23-2.23-2.23
			C200.5,60.13,199.5,61.13,199.5,62.36z"/>
	</g>
	<path style="clip-path:url(#SVGID_00000183230942630309588620000000646080627075187098_);fill:#2D2E41;" d="M205.05,72.51
		c0,0,9.7,3.02,18.15,2.67c8.45-0.35,19.38-6.34,19.38-6.34s-3.02,19.03-9.52,24.99c7.18-0.98,14.15-4.62,17.54-11.02
		c1.1,4,2.21,8.09,2.04,12.24c-0.29,6.69-4.02,12.96-9.24,17.16c-5.22,4.2-11.79,6.46-18.43,7.34"/>
	<path style="clip-path:url(#SVGID_00000183230942630309588620000000646080627075187098_);fill:#E57674;" d="M119.01,189.41
		l56.46-92.33l36.22-11.72c0,0,9.59,18.11,12.78,28.41c3.2,10.3,4.97,22.02,4.97,22.02l13.39,24.05c1.91,3.44,0.36,7.78-3.3,9.22
		l-6.14,2.42c0,0-1.5,33.24-2.54,38.32c-1.2,5.87-3.68,12.16-9.08,14.77c-2.57,1.24-5.5,1.48-8.36,1.58
		c-9.68,0.33-19.4-0.71-28.78-3.09l-30.71,54.65l-61.19-42.48L119.01,189.41z"/>
	<path style="clip-path:url(#SVGID_00000183230942630309588620000000646080627075187098_);fill:#2D2E41;" d="M79.63,107.2
		c-11.61,21.11,0.19,43.56,3.54,52.12c3.35,8.57,8.29,16.41,13.46,24.02c2.36,3.48,4.81,6.97,6.31,10.9c1.51,3.93,2,8.42,0.42,12.32
		c2.02,0.14,4.09-0.85,5.24-2.52c-1.4,1.85-2.7,4.77-0.85,6.17c1.22,0.92,2.96,0.37,4.38-0.22c3.78-1.58,7.62-3.18,10.82-5.74
		c4.19-3.36,7.01-8.12,9.42-12.91c5.54-11.01,9.47-22.82,11.65-34.95c5.44-0.65-16.16,18.2,10.8,4.44
		c26.96-13.76,22.29-30.52,21.48-37.53c3.98-0.17,40.26-27.88,42.35-24.63c0.13,0.21,0.07,0.07,0.2,0.28
		c3.13-4.75,2.49-11.32-0.52-16.15c-3.02-4.82-8.02-8.1-13.28-10.29c0,0-20.85,15.45-61.59,24.78
		C102.73,106.61,79.63,107.2,79.63,107.2z"/>
	<g style="clip-path:url(#SVGID_00000183230942630309588620000000646080627075187098_);">
		<path class="st7" d="M129.17,147.47c0.49,8.14,4.62,15.99,11.05,21c2.01,1.57,4.3,2.89,6.82,3.28c5.69,0.88,11.24-3.38,13.44-8.7
			c2.2-5.32,1.68-11.37,0.39-16.98c-1.66-7.25-5.35-15.02-12.43-17.31C137.02,125.08,128.57,137.39,129.17,147.47z"/>
		<path class="st7" d="M154.34,165.33c-2.44-0.97-4.6-2.63-6.15-4.74c-0.31-0.42-0.61-0.89-0.65-1.42c-0.08-1,0.76-1.82,1.53-2.47
			c1.56-1.31,3.11-2.63,4.67-3.94c0.31-0.26,0.63-0.54,0.78-0.92c0.16-0.42,0.07-0.89-0.03-1.32c-1.18-5.58-2.63-11.6-7.05-15.2
			c-1.19-0.97-2.61-1.73-4.14-1.89c-2.27-0.23-4.52,0.92-6.12,2.55c-1.6,1.63-2.67,3.7-3.67,5.75c0,0-2.17,11.56,5.35,19.24
			C146.36,168.65,154.34,165.33,154.34,165.33z"/>
		<g>
			<path class="st4" d="M133.5,141.73c0.84-2.2,1.85-4.39,3.51-6.23c0.84-0.9,1.86-1.65,3.02-2.17c1.16-0.52,2.5-0.75,3.81-0.55
				c1.31,0.19,2.51,0.76,3.55,1.49c1.03,0.74,1.96,1.58,2.75,2.56c1.59,1.94,2.65,4.2,3.44,6.49c0.77,2.3,1.28,4.64,1.75,6.96
				c0.05,0.29,0.13,0.63,0.13,1.05c0.01,0.41-0.15,0.97-0.42,1.32c-0.57,0.7-1.01,0.92-1.47,1.33c-0.91,0.75-1.83,1.48-2.76,2.21
				c-0.9,0.75-1.96,1.43-2.47,2.19c-0.25,0.39-0.32,0.75-0.16,1.18c0.16,0.43,0.52,0.92,0.85,1.37c1.34,1.86,3.2,3.34,5.31,4.41
				c-2.27-0.68-4.34-2.05-6.01-3.83c-0.4-0.46-0.81-0.89-1.13-1.54c-0.35-0.65-0.28-1.59,0.09-2.2c0.34-0.64,0.82-1.09,1.28-1.51
				l1.32-1.18c0.88-0.79,1.76-1.57,2.65-2.35c0.42-0.38,0.98-0.82,1.13-1.06c0.08-0.13,0.08-0.16,0.08-0.34
				c0-0.17-0.06-0.41-0.12-0.69c-0.52-2.29-1.03-4.56-1.79-6.72c-0.71-2.17-1.69-4.24-3.05-5.99c-1.34-1.74-3.14-3.26-5.18-3.72
				c-2.04-0.44-4.29,0.47-5.96,1.95C135.9,137.63,134.71,139.71,133.5,141.73z"/>
		</g>
	</g>
	<g style="clip-path:url(#SVGID_00000183230942630309588620000000646080627075187098_);">
		<g>
			<path class="st8" d="M113.07,116.4c-0.5,2.66-1.27,5.28-2.21,7.83c-1.01,2.54-2.1,5.01-3.59,7.36c-0.39,0.58-0.83,1.14-1.37,1.63
				c-0.52,0.48-1.18,0.93-1.93,1.11c-0.38,0.09-0.8,0.13-1.22,0.03c-0.42-0.09-0.83-0.34-1.11-0.69c-0.55-0.71-0.6-1.5-0.68-2.16
				c-0.3-2.73-0.32-5.49,0.03-8.22l1.01,0.2c-0.96,3.31-2.94,6.3-5.6,8.46c-0.65,0.49-1.4,1.2-2.55,1.11
				c-0.61-0.05-1.12-0.65-1.18-1.16c-0.09-0.51-0.07-0.9-0.08-1.33c0.01-1.71,0.27-3.41,0.78-5.03l0.53,0.26
				c-0.96,1.31-2,2.61-3.25,3.69c-1.23,1.08-2.77,1.92-4.41,1.98c1.63-0.21,3.05-1.12,4.18-2.23c1.15-1.12,2.07-2.45,2.99-3.78
				c0.09-0.13,0.28-0.17,0.41-0.08c0.11,0.07,0.15,0.2,0.12,0.32l0,0.01c-0.43,1.58-0.62,3.22-0.57,4.85
				c0.02,0.4,0.03,0.85,0.11,1.16c0.08,0.32,0.24,0.45,0.49,0.48c0.25,0.03,0.61-0.09,0.92-0.26c0.31-0.16,0.61-0.44,0.94-0.69
				c2.49-2.08,4.33-4.93,5.19-8.04c0.08-0.28,0.36-0.44,0.64-0.36c0.25,0.07,0.41,0.31,0.38,0.56l0,0.01
				c-0.3,2.65-0.36,5.33-0.09,7.99c0.06,0.66,0.15,1.29,0.46,1.67c0.29,0.39,0.81,0.49,1.37,0.35c1.13-0.28,2.07-1.3,2.84-2.32
				c1.49-2.17,2.7-4.63,3.77-7.09C111.46,121.57,112.33,119,113.07,116.4z"/>
		</g>
		<g>
			<path class="st8" d="M102.18,149.25c0.88,1.62,1.63,3.31,2.25,5.06c0.61,1.75,1.11,3.53,1.46,5.38c0.15,0.93,0.23,2.01-0.34,3.02
				c-0.26,0.48-0.85,0.98-1.55,0.96c-0.68-0.02-1.15-0.35-1.55-0.62c-1.55-1.14-2.82-2.66-3.62-4.41l0.86-0.4
				c0.37,0.88,0.69,1.82,0.79,2.81c0.11,0.98-0.01,2.03-0.46,2.93c-0.42,0.9-1.21,1.68-2.18,1.94c-0.94,0.27-2.04,0.1-2.7-0.59
				c0.76,0.56,1.78,0.58,2.59,0.25c0.82-0.33,1.4-1.05,1.72-1.85c0.31-0.81,0.37-1.7,0.22-2.56c-0.15-0.86-0.45-1.71-0.84-2.53
				c-0.11-0.24-0.01-0.52,0.23-0.63c0.23-0.11,0.51-0.01,0.62,0.21l0.01,0.02c0.8,1.56,1.95,2.95,3.37,3.97
				c0.34,0.25,0.69,0.44,0.95,0.44c0.24,0.01,0.48-0.15,0.67-0.45c0.36-0.61,0.4-1.49,0.28-2.35c-0.27-1.77-0.66-3.57-1.12-5.33
				C103.36,152.73,102.81,150.98,102.18,149.25z"/>
		</g>
		<g>
			<path class="st8" d="M125.56,177.24c0.12,1.68-0.01,3.4-0.39,5.07c-0.41,1.67-0.98,3.28-1.91,4.8c-0.48,0.75-1.21,1.5-2.22,1.74
				c-0.49,0.12-1.02,0.13-1.53-0.03c-0.52-0.16-0.98-0.56-1.24-0.99c-0.5-0.88-0.68-1.68-0.88-2.56c-0.17-0.86-0.22-1.75-0.18-2.63
				l0-0.02c0.01-0.26,0.23-0.46,0.49-0.45c0.25,0.01,0.44,0.22,0.45,0.46c0.01,0.81,0.01,1.66-0.17,2.51
				c-0.16,0.84-0.55,1.71-1.21,2.32c-0.63,0.61-1.58,0.98-2.46,0.75c-0.86-0.22-1.49-0.85-1.94-1.52c0.57,0.57,1.25,1.08,2.01,1.17
				c0.75,0.09,1.46-0.29,1.94-0.84c0.49-0.56,0.75-1.26,0.85-2.02c0.1-0.75,0.06-1.54,0.03-2.35l0.94,0
				c-0.01,0.81,0.08,1.61,0.24,2.39c0.17,0.76,0.41,1.61,0.77,2.19c0.33,0.57,0.96,0.75,1.64,0.59c0.66-0.15,1.23-0.65,1.68-1.29
				c0.87-1.32,1.56-2.88,2.08-4.44C125.07,180.56,125.41,178.92,125.56,177.24z"/>
		</g>
		<g>
			<path class="st8" d="M165.85,102.5c-0.8,2.64-2.04,5.16-3.61,7.46c-1.58,2.29-3.5,4.36-5.68,6.11c-1.09,0.88-2.25,1.67-3.47,2.36
				c-0.61,0.36-1.29,0.68-2.04,0.84c-0.72,0.16-1.7,0.11-2.37-0.54c-0.67-0.65-0.78-1.52-0.84-2.21c-0.06-0.71-0.08-1.43-0.04-2.14
				c0.06-1.43,0.36-2.84,0.84-4.18l0-0.01c0.09-0.27,0.39-0.4,0.65-0.31c0.25,0.09,0.38,0.35,0.33,0.6
				c-0.42,1.76-1.24,3.4-2.34,4.81c-1.11,1.41-2.5,2.58-4.08,3.44c-0.79,0.42-1.63,0.73-2.49,0.98c-0.86,0.22-1.76,0.39-2.69,0.3
				c-0.46-0.05-0.93-0.16-1.36-0.38c-0.22-0.11-0.41-0.24-0.6-0.42c-0.22-0.2-0.33-0.47-0.39-0.72c-0.15-1.02,0.18-1.86,0.56-2.68
				l0.34,0.31c-1.05,0.55-2.11,1.04-3.2,1.47c-1.09,0.42-2.22,0.8-3.39,0.86c0.58-0.06,1.14-0.24,1.69-0.43
				c0.55-0.19,1.08-0.42,1.61-0.66c1.05-0.49,2.08-1.05,3.06-1.64c0.11-0.07,0.26-0.03,0.33,0.08c0.04,0.07,0.04,0.14,0.02,0.21
				l-0.01,0.02c-0.29,0.75-0.56,1.63-0.41,2.33c0.05,0.16,0.12,0.31,0.23,0.39c0.13,0.11,0.3,0.22,0.47,0.3
				c0.34,0.16,0.73,0.24,1.13,0.27c1.61,0.05,3.26-0.58,4.7-1.37c1.45-0.81,2.73-1.93,3.75-3.24c1.01-1.32,1.74-2.85,2.1-4.45
				l0.98,0.28c-0.43,1.26-0.68,2.58-0.77,3.91c-0.05,0.66-0.04,1.33,0.01,2c0.04,0.65,0.17,1.26,0.52,1.59
				c0.34,0.35,0.91,0.43,1.51,0.31c0.6-0.12,1.2-0.37,1.77-0.71c1.19-0.65,2.31-1.42,3.4-2.23c2.18-1.62,4.13-3.57,5.76-5.75
				C163.48,107.48,164.81,105.06,165.85,102.5z"/>
		</g>
		<g>
			<path class="st8" d="M198.15,82.4c0.59,1.28,0.81,2.75,0.61,4.19c-0.21,1.44-0.95,2.84-2.09,3.82c-1.12,0.98-2.7,1.56-4.25,1.34
				c-1.52-0.22-3.01-1.08-3.75-2.52l0.97-0.12c-0.31,1.29-1,2.46-1.89,3.38c-0.89,0.94-1.95,1.68-3.11,2.2
				c-1.15,0.53-2.37,0.85-3.58,1.05c-1.22,0.18-2.45,0.28-3.67,0.29c1.2-0.23,2.41-0.43,3.57-0.76c1.17-0.31,2.3-0.73,3.34-1.28
				c2.05-1.1,3.81-2.91,4.33-5.11c0.07-0.28,0.34-0.45,0.62-0.39c0.15,0.03,0.27,0.13,0.34,0.26l0,0.01c0.58,1.06,1.74,1.82,2.98,2
				c1.24,0.21,2.54-0.19,3.57-0.99c1.03-0.79,1.78-1.96,2.1-3.27C198.58,85.18,198.51,83.76,198.15,82.4z"/>
		</g>
	</g>
	<path style="clip-path:url(#SVGID_00000183230942630309588620000000646080627075187098_);fill:#2D2E41;" d="M184.96,223.23
		c-11.66-6.06-21.96-14.71-29.95-25.14c5.52,13.1,13.91,25.25,24.18,35.07"/>
	<path style="clip-path:url(#SVGID_00000183230942630309588620000000646080627075187098_);fill:#315369;" d="M33.56,306.31
		c0,0,47.49-73.25,63.32-78.86c15.83-5.61,48.48,19.13,69.91,36.61c21.44,17.48,46.5,47.2,46.5,47.2L33.56,306.31z"/>
	<path style="opacity:0.32;clip-path:url(#SVGID_00000183230942630309588620000000646080627075187098_);fill:#EE7574;" d="
		M187.68,163.47c0.49,5.14,7.47,8.69,15.58,7.91c8.11-0.78,14.29-5.58,13.8-10.72c-0.49-5.14-7.47-8.69-15.58-7.91
		C193.37,153.52,187.19,158.32,187.68,163.47z"/>
	<g style="clip-path:url(#SVGID_00000183230942630309588620000000646080627075187098_);">
		<path class="st4" d="M234.9,167.38c-2.71,1.05-5.34,2.11-7.87,3.41l-0.55,0.28l-0.18-0.6c-0.92-2.99-0.61-6.37,0.97-8.99
			c-0.77,2.93-0.8,5.91,0.03,8.69l-0.74-0.32C229.17,168.55,232,167.63,234.9,167.38z"/>
	</g>
	<path style="clip-path:url(#SVGID_00000183230942630309588620000000646080627075187098_);fill:#2D2E41;" d="M223.54,138.39
		c0,2.96-1.74,5.36-3.88,5.36s-3.88-2.4-3.88-5.36c0-2.96,1.74-5.36,3.88-5.36S223.54,135.43,223.54,138.39z"/>
	<g style="clip-path:url(#SVGID_00000183230942630309588620000000646080627075187098_);">
		<path class="st4" d="M232.23,192.22c-2.99,0.44-6.02,1.1-9.02,1.78c-3,0.71-6,1.43-8.94,2.39c2.82-1.27,5.74-2.32,8.66-3.35
			c2.94-1.01,5.86-1.99,8.92-2.78L232.23,192.22z"/>
	</g>
	<path style="clip-path:url(#SVGID_00000183230942630309588620000000646080627075187098_);fill:#2D2E41;" d="M227.09,123.35
		c-3.59,3.65-8.54,5.74-13.58,6.62c-5.04,0.88-10.21,0.64-15.31,0.19c10.49-1.12,20.34-7.53,26.52-16.07
		C225.87,117.2,226.61,120.06,227.09,123.35z"/>
	
		<path style="clip-path:url(#SVGID_00000183230942630309588620000000646080627075187098_);fill:none;stroke:#2D2E41;stroke-miterlimit:10;" d="
		M141.33,17.86c-13.56,0.01-27.07,4.7-37.71,13.11c-2.91,2.3-5.65,4.91-7.56,8.09c-5.38,8.94-2.9,21.4,4.66,28.58
		c7.57,7.18,19.21,9.2,29.23,6.29c10.02-2.9,18.4-10.23,23.94-19.06c2.77-4.42,4.95-9.43,4.85-14.64
		c-0.2-10.33-10.1-18.92-20.43-19.37s-20.16,6.02-25.59,14.81c-2.61,4.22-4.38,9.11-4.18,14.07c0.2,4.96,2.61,9.97,6.84,12.57
		c4.56,2.8,10.4,2.44,15.57,1.07c9.42-2.5,17.98-8.13,24.01-15.78c3.81-4.84,6.69-11.2,4.81-17.06
		c-2.28-7.13-11.14-10.56-18.43-8.81c-7.28,1.75-13.03,7.39-17.31,13.53c-4.51,6.47-7.93,14.35-6.49,22.11
		c1.85,9.94,11.74,17.12,21.82,17.82c10.09,0.69,19.95-4.11,27.37-10.98c3.44-3.19,6.53-6.93,8.11-11.34
		c1.58-4.42,1.48-9.61-1.07-13.55c-2.17-3.35-5.87-5.47-9.7-6.57c-11.05-3.19-23.95,2.01-29.69,11.97
		c-5.75,9.96-3.8,23.73,4.49,31.7c8.29,7.97,22.12,9.39,31.85,3.26c5.14-3.24,9.05-8.27,11.27-13.92
		c3.12-7.93,2.69-17.65-2.76-24.19c-5.16-6.2-14-8.52-21.96-7.22c-7.96,1.3-15.1,5.77-21.08,11.18
		c-9.76,8.83-17.23,21.3-16.48,34.44c0.25,4.35,1.78,9.16,5.69,11.09c2.86,1.41,6.33,0.9,9.24-0.38c9.16-4.05,13.79-15.62,11-25.24
		c-2.78-9.62-11.97-16.71-21.87-18.19c-9.75-1.46-20.33,2.38-26.23,10.28c-5.9,7.9-6.43,19.66-0.59,27.61
		c5.83,7.95,17.86,10.87,26.34,5.84c2.74-1.62,5.02-3.92,6.98-6.42c6.54-8.39,9.18-21.12,2.6-29.48c-2.66-3.38-6.48-5.63-10.35-7.51
		c-6.52-3.16-14.62-5.37-20.71-1.45c-6.64,4.27-7.48,14.22-3.84,21.22c1.99,3.83,5.27,7.21,9.46,8.27
		c4.07,1.02,8.48-0.32,11.87-2.81c3.38-2.49,5.85-6.02,7.89-9.7c6.93-12.52,9.37-27.21,16.82-39.43c1.35-2.21,2.91-4.38,5.1-5.76
		c5.19-3.25,12.01-1.09,17.43,1.77c8.85,4.66,17.35,11.77,19.49,21.55c1.49,6.79-0.38,14.03-4.07,19.92
		c-3.69,5.89-9.08,10.55-14.86,14.41c-8.58,5.72-18.59,9.92-28.9,9.57c-10.31-0.35-20.82-6.02-24.86-15.52
		c-2.13-5.01-2.35-10.66-1.7-16.07c1.48-12.32,17.25-33.24,17.01-31.37c-0.23,1.88-20.11,11.18-27.78,18.92
		c-5.78,5.83-11.77,13.27-10.13,21.31c0.98,4.83,4.58,8.69,8.44,11.76c15.32,12.18,37.31,15.37,55.46,8.02
		c7.39-2.99,14.36-7.85,18.06-14.92c4.41-8.44,3.41-19.14-1.49-27.3c-4.9-8.16-13.3-13.88-22.4-16.71
		c-9.09-2.83-18.85-2.96-28.29-1.7c8.25-2.43,16.59-4.87,25.18-5.32c8.59-0.46,17.57,1.25,24.44,6.42
		c8.69,6.54,12.86,18.07,11.8,28.89c-1.06,10.82-6.87,20.83-14.76,28.31c-3.78,3.58-8.09,6.69-12.97,8.5
		c-5.48,2.04-11.49,2.38-17.3,1.7c-20.56-2.39-39.2-19.02-42.03-39.52c-0.83-6-0.35-12.29,2.21-17.78
		c5.17-11.12,17.98-17.02,30.23-17.64c6.46-0.33,13.09,0.59,18.86,3.53s10.59,8.03,12.37,14.24c1.87,6.51,0.31,13.56-2.34,19.79
		c-6.16,14.53-18.37,26.37-33.08,32.08c-7.37,2.86-15.45,4.23-23.26,2.98c-7.81-1.24-15.32-5.25-19.99-11.64
		c-5.4-7.4-6.48-17.74-2.73-26.1c3.47-7.72,10.66-13.4,18.63-16.24s16.69-3.07,25.09-1.99"/>
</g>
</svg>
