<?xml version="1.0" encoding="utf-8"?>
<!-- Generator: Adobe Illustrator 25.4.1, SVG Export Plug-In . SVG Version: 6.00 Build 0)  -->
<svg version="1.1" id="Layer_1" xmlns="http://www.w3.org/2000/svg" xmlns:xlink="http://www.w3.org/1999/xlink" x="0px" y="0px"
	 viewBox="0 0 300 300" style="enable-background:new 0 0 300 300;" xml:space="preserve">
<style type="text/css">
	.st0{clip-path:url(#SVGID_00000019668932345254006730000017753499069887093149_);fill:#D8A798;}
	.st1{clip-path:url(#SVGID_00000019668932345254006730000017753499069887093149_);}
	.st2{fill:#C0CCEA;}
	.st3{fill:#E57674;}
	.st4{fill:#2D2E41;}
	.st5{fill:#315369;}
	.st6{opacity:0.32;fill:#EE7574;}
	.st7{fill:#C43D4D;}
	.st8{fill:none;stroke:#C0CCEA;stroke-width:0.5266;stroke-miterlimit:10;}
	.st9{fill:#F4F1F0;}
</style>
<g>
	<defs>
		<path id="SVGID_1_" d="M277.04,171.18c0,70.14-56.86,126.99-126.99,126.99c-70.14,0-126.99-56.86-126.99-126.99
			c0-70.14,56.86-174.61,126.99-174.61C220.19-3.43,277.04,101.05,277.04,171.18z"/>
	</defs>
	<clipPath id="SVGID_00000070092311144859907680000003706000986352479134_">
		<use xlink:href="#SVGID_1_"  style="overflow:visible;"/>
	</clipPath>
	
		<circle style="clip-path:url(#SVGID_00000070092311144859907680000003706000986352479134_);fill:#D8A798;" cx="150.05" cy="171.18" r="126.99"/>
	<g style="clip-path:url(#SVGID_00000070092311144859907680000003706000986352479134_);">
		<g>
			<g>
				<path class="st2" d="M89.12,114.06c0,0,22.28-12.4,54.99-21.32c32.71-8.92,65.41-11.98,65.41-11.98s-34.86,26.04-58.38,30.9
					C127.61,116.53,89.12,114.06,89.12,114.06z"/>
			</g>
			<g>
				<path class="st3" d="M126.92,192.98l54.2-88.63l34.77-11.25c0,0,9.2,17.38,12.27,27.27c3.07,9.89,5.32,25.21,5.32,25.21
					l10.26,9.74c4.28,5.47,3.08,13.42-2.63,17.38l-4.4,3.06c0,0,0.87,58.78-46.81,49.5l-29.48,52.46l-58.73-40.77L126.92,192.98z"/>
				<path class="st4" d="M89.12,114.06c-4.72,8.5-6.69,18.51-5.54,28.17c0.09,0.77,0.37,1.71,1.13,1.82
					c0.39,0.06,0.78-0.15,1.1-0.37c1.83-1.24,3.06-3.33,3.26-5.53c-1.41,8.72,0.23,17.73,3.45,25.95
					c3.22,8.22,7.96,15.76,12.92,23.06c2.27,3.34,4.61,6.69,6.06,10.46c1.45,3.77,1.92,8.08,0.4,11.83
					c1.94,0.13,3.92-0.82,5.03-2.42c-1.35,1.77-2.59,4.58-0.81,5.92c1.18,0.89,2.84,0.35,4.2-0.21c3.63-1.51,7.31-3.06,10.38-5.51
					c4.03-3.22,6.73-7.79,9.04-12.4c5.32-10.57,9.1-21.91,11.18-33.55c5.22-0.62,11.05-1.02,16.27-1.64
					c-0.08-6.77-0.17-13.74-0.94-20.47c51.58-8.66,47.68-37.85,48.92-42.09c2.72,2.53,5.38,5.68,7.4,8.8
					c0.13,0.2,0.07,0.07,0.19,0.27c3.01-4.56,2.39-10.87-0.5-15.5c-2.9-4.63-7.7-7.78-12.75-9.87c0,0-20.02,14.83-59.12,23.79
					S89.12,114.06,89.12,114.06z"/>
				<path class="st4" d="M152.53,158.4c-6.26,42.74-28.31,82.99-60.97,111.27c-7.79,6.74-16.12,12.81-24.45,18.86
					c-7.93,5.77-15.86,11.53-23.79,17.3c-11.67-9.91-17.75-24.25-18.54-39.54c-0.79-15.29,4.33-30.67,13.43-42.99
					c-4.65,4.95-10.09,11.49-13.64,17.28c-3.99-15.15,2.61-31.19,11.79-43.89c9.17-12.7,21.03-23.31,30.04-36.13
					c9.06-12.9,15-27.68,20.86-42.31c8.62,1.89,17.23,3.79,25.85,5.68c9.52,2.09,19.28,4.28,27.42,9.64
					C148.66,138.9,153.94,148.75,152.53,158.4z"/>
				<g>
					<path class="st3" d="M124.78,153.55c0.47,7.81,4.43,15.35,10.6,20.16c1.93,1.51,4.13,2.78,6.55,3.15
						c5.46,0.85,10.79-3.24,12.9-8.35c2.11-5.11,1.61-10.92,0.38-16.3c-1.59-6.96-5.14-14.42-11.93-16.62
						C132.33,132.06,124.21,143.87,124.78,153.55z"/>
					<path class="st3" d="M148.95,170.7c-2.34-0.93-4.41-2.52-5.9-4.55c-0.3-0.41-0.59-0.86-0.63-1.36
						c-0.08-0.96,0.73-1.74,1.47-2.37c1.5-1.26,2.99-2.52,4.49-3.78c0.3-0.25,0.61-0.52,0.75-0.89c0.15-0.4,0.06-0.85-0.03-1.27
						c-1.13-5.36-2.52-11.14-6.77-14.59c-1.15-0.93-2.51-1.66-3.98-1.81c-2.18-0.22-4.34,0.88-5.88,2.44
						c-1.54,1.56-2.56,3.55-3.53,5.52c0,0-2.08,11.09,5.13,18.47C141.29,173.89,148.95,170.7,148.95,170.7z"/>
					<g>
						<path class="st4" d="M128.94,148.04c0.81-2.11,1.75-4.24,3.36-5.99c0.81-0.86,1.79-1.59,2.91-2.09
							c1.11-0.5,2.41-0.73,3.68-0.53c1.26,0.19,2.42,0.73,3.42,1.43c0.99,0.71,1.88,1.52,2.64,2.46c1.53,1.86,2.55,4.04,3.31,6.24
							c0.74,2.21,1.23,4.46,1.68,6.68c0.05,0.28,0.13,0.61,0.12,1.02c0.01,0.4-0.14,0.95-0.41,1.29c-0.56,0.68-0.98,0.89-1.41,1.28
							c-0.88,0.72-1.76,1.42-2.65,2.12c-0.86,0.72-1.89,1.37-2.37,2.09c-0.24,0.37-0.3,0.7-0.16,1.11c0.15,0.41,0.5,0.88,0.81,1.31
							c1.3,1.77,3.06,3.21,5.08,4.24c-2.18-0.65-4.2-1.94-5.78-3.66c-0.39-0.44-0.78-0.85-1.09-1.48c-0.34-0.63-0.27-1.54,0.08-2.14
							c0.33-0.62,0.79-1.06,1.23-1.45l1.26-1.14c0.84-0.76,1.68-1.51,2.54-2.26c0.4-0.36,0.94-0.79,1.08-1.01
							c0.07-0.12,0.07-0.14,0.07-0.31c0-0.16-0.05-0.38-0.12-0.66c-0.5-2.2-0.99-4.38-1.72-6.45c-0.68-2.08-1.62-4.06-2.92-5.74
							c-1.28-1.67-3.01-3.12-4.95-3.56c-1.94-0.42-4.1,0.44-5.7,1.86C131.28,144.12,130.11,146.1,128.94,148.04z"/>
					</g>
				</g>
				<path class="st4" d="M190.23,225.45c-11.19-5.82-21.08-14.12-28.75-24.14c5.29,12.57,13.35,24.24,23.22,33.66"/>
				<path class="st5" d="M44.89,305.2c0,0,45.59-70.32,60.78-75.7c15.2-5.38,46.54,18.36,67.11,35.14
					c20.58,16.78,44.64,45.31,44.64,45.31L44.89,305.2z"/>
				<path class="st6" d="M192.84,168.08c0.47,4.94,7.17,8.34,14.96,7.59c7.79-0.75,13.72-5.35,13.25-10.29
					c-0.47-4.94-7.17-8.34-14.96-7.59C198.3,158.53,192.37,163.14,192.84,168.08z"/>
				<path class="st4" d="M226.38,143.82c0,3.1-1.61,5.62-3.58,5.62s-3.58-2.51-3.58-5.62c0-3.1,1.61-5.62,3.58-5.62
					S226.38,140.72,226.38,143.82z"/>
				<path class="st4" d="M196.62,137.5c11.78-2.28,32.36-14.23,32.36-14.23s-1.54-5.43-2.54-7.67
					C218.13,124.66,207.82,132.4,196.62,137.5z"/>
				<path class="st7" d="M235.04,192.13c-6.3,2.75-13.4,3.64-20.19,2.53c7.97-2.53,14.78-6.32,21.48-11.33
					C238.27,186.01,238.07,190.81,235.04,192.13z"/>
				<path class="st7" d="M215.54,194.07c5.27,2.12,10.55,4.25,16.03,5.75c0.71,0.19,1.49,0.38,2.17,0.1
					c0.91-0.37,1.32-1.43,1.48-2.4c0.41-2.5-0.28-5.16-1.86-7.14"/>
				<g>
					<g>
						<path class="st2" d="M207.44,87.9c-0.46,3.45-1.56,6.8-3.06,9.96c-1.53,3.14-3.5,6.07-5.73,8.76
							c-4.5,5.37-10.11,9.73-16.12,13.27c-6.06,3.47-12.53,6.23-19.25,8.11c-3.36,0.93-6.77,1.67-10.22,2.19
							c-3.45,0.49-6.92,0.8-10.39,0.84c3.46-0.27,6.91-0.69,10.31-1.35c3.4-0.62,6.77-1.44,10.07-2.46c6.61-2.02,13-4.75,18.95-8.24
							c5.98-3.42,11.48-7.72,16.04-12.89C202.57,100.94,206.07,94.73,207.44,87.9z"/>
					</g>
					<g>
						<path class="st2" d="M163.49,109.25l-3.47,2.11l-3.58,1.94l-3.68,1.75l-3.76,1.59c-5.06,2-10.32,3.48-15.65,4.57
							c-5.35,1-10.78,1.6-16.22,1.64l-4.08-0.06l-4.07-0.24l-4.05-0.46l-4.01-0.66l4.04,0.38l4.05,0.22l4.05,0.09l4.05-0.08
							c5.39-0.21,10.76-0.79,16.04-1.86c5.3-0.99,10.49-2.47,15.57-4.29l3.78-1.44l3.72-1.6l3.67-1.72L163.49,109.25z"/>
					</g>
					<g>
						<path class="st2" d="M126.43,180.09c-0.95,1.85-1.97,3.65-2.98,5.46c-1.05,1.79-2.12,3.56-3.21,5.33
							c-2.2,3.52-4.56,6.94-6.96,10.32c-2.47,3.33-4.99,6.64-7.66,9.82c-1.34,1.58-2.7,3.15-4.07,4.71
							c-1.41,1.52-2.81,3.06-4.27,4.53l3.87-4.86c1.29-1.62,2.57-3.24,3.83-4.88c2.53-3.27,5.04-6.56,7.44-9.93
							c2.46-3.32,4.8-6.73,7.14-10.14c1.17-1.71,2.31-3.43,3.45-5.16L126.43,180.09z"/>
					</g>
					<g>
						<path class="st2" d="M110.89,145.42c-1.07,5.8-2.87,11.47-5.12,16.93c-2.28,5.46-5.02,10.71-8.03,15.8
							c-6.03,10.18-13.16,19.63-20.13,29.13c-7.03,9.45-13.85,19.08-19.46,29.43c-2.8,5.17-5.27,10.52-7.19,16.08
							c-1.96,5.54-3.32,11.31-4,17.17c0.44-5.89,1.71-11.7,3.51-17.33c1.84-5.62,4.23-11.06,6.96-16.3
							c5.49-10.49,12.36-20.17,19.33-29.67c7.04-9.46,14.13-18.88,20.28-28.92C103.19,167.72,108.31,156.96,110.89,145.42z"/>
					</g>
					<g>
						<path class="st2" d="M98.26,133.62c-2.14,3.57-4.38,7.07-6.62,10.58l-3.45,5.2l-3.51,5.16c-4.73,6.85-9.69,13.54-14.76,20.14
							c-5.14,6.55-10.4,13-15.87,19.28l-4.14,4.67l-4.19,4.62c-2.85,3.04-5.7,6.07-8.62,9.02l4.14-4.67l4.1-4.7l4.08-4.72l4.02-4.76
							c5.34-6.37,10.59-12.81,15.66-19.4c5.13-6.53,10.07-13.22,14.94-19.96l3.62-5.07l3.57-5.11l3.54-5.13L98.26,133.62z"/>
					</g>
				</g>
			</g>
		</g>
		<g>
			<path class="st4" d="M167.93,34.73c0.99,4.66,0.12,9.72-2.61,15.16L159.79,61c-0.8,1.63-1.13,3.19-1.01,4.67c0,0,0,0.01,0,0.01
				c0.1,1.06-0.57,2.04-1.62,2.27l-13.45,2.85c-1.39,0.29-2.75-0.59-3.04-1.98l0,0c-0.97-4.59-0.33-8.95,1.91-13.07l5.75-10.58
				c1.47-2.75,2.02-4.99,1.66-6.74c-0.94-4.44-3.6-6.2-7.96-5.28c-3.64,0.77-5.43,2.81-5.36,6.13c0.03,1.25-0.78,2.36-2.01,2.62
				l-13.01,2.75c-1.49,0.31-2.92-0.73-3.09-2.24c-0.68-5.98,0.7-11.28,4.15-15.91c3.68-4.89,8.98-8.06,15.9-9.53
				c6.84-1.45,12.93-0.72,18.27,2.18C162.72,22.33,166.41,27.52,167.93,34.73z M163.89,83.07c0.6,2.84,0.1,5.5-1.51,7.97
				c-1.61,2.47-3.83,4.01-6.67,4.61c-2.84,0.6-5.5,0.1-7.97-1.51c-2.47-1.61-4.01-3.83-4.61-6.67c-0.6-2.84-0.1-5.5,1.51-7.97
				c1.61-2.47,3.83-4.01,6.67-4.61c2.84-0.6,5.5-0.1,7.97,1.51C161.76,78.01,163.29,80.23,163.89,83.07z"/>
		</g>
		<g>
			<path class="st5" d="M202.9,52.95c-1.04,2.61-3.12,4.81-6.23,6.59l-6.34,3.64c-0.92,0.54-1.6,1.19-2.02,1.96c0,0,0,0,0,0
				c-0.3,0.55-0.95,0.82-1.53,0.58l-7.53-2.99c-0.78-0.31-1.16-1.19-0.85-1.97l0,0c1.02-2.57,2.76-4.5,5.21-5.79l6.28-3.31
				c1.62-0.87,2.62-1.79,3.01-2.77c0.99-2.49,0.26-4.22-2.19-5.19c-2.04-0.81-3.58-0.39-4.63,1.26c-0.4,0.62-1.15,0.9-1.84,0.63
				l-7.29-2.9c-0.83-0.33-1.2-1.31-0.79-2.11c1.62-3.16,4.03-5.31,7.23-6.45c3.4-1.2,7.04-1.03,10.92,0.51
				c3.83,1.52,6.58,3.87,8.25,7.04C204.39,45.16,204.5,48.91,202.9,52.95z M185.14,75.35c-0.63,1.59-1.75,2.73-3.34,3.42
				c-1.6,0.69-3.19,0.72-4.78,0.08c-1.59-0.63-2.73-1.75-3.42-3.34c-0.69-1.6-0.72-3.19-0.08-4.78c0.63-1.59,1.75-2.73,3.34-3.42
				c1.59-0.69,3.19-0.72,4.78-0.08c1.59,0.63,2.73,1.75,3.42,3.34C185.74,72.17,185.77,73.76,185.14,75.35z"/>
		</g>
		<g>
			<path class="st5" d="M110.93,56.13c2.02,1.95,3.26,4.71,3.72,8.27l0.96,7.25c0.15,1.06,0.5,1.93,1.05,2.62c0,0,0,0,0,0
				c0.4,0.49,0.39,1.19-0.04,1.64l-5.63,5.83c-0.58,0.6-1.54,0.62-2.14,0.04l0,0c-1.99-1.92-3.11-4.26-3.38-7.02l-0.68-7.06
				c-0.19-1.83-0.66-3.11-1.42-3.84c-1.92-1.86-3.8-1.84-5.63,0.05c-1.53,1.58-1.72,3.16-0.6,4.76c0.42,0.6,0.4,1.41-0.12,1.94
				l-5.45,5.64c-0.62,0.64-1.67,0.61-2.25-0.07c-2.3-2.7-3.38-5.74-3.22-9.14c0.19-3.6,1.73-6.9,4.63-9.9
				c2.87-2.97,6.08-4.62,9.64-4.96C104.29,51.79,107.81,53.12,110.93,56.13z M124.9,81.08c1.23,1.19,1.86,2.65,1.89,4.39
				c0.03,1.74-0.55,3.22-1.74,4.45c-1.19,1.23-2.65,1.86-4.39,1.89c-1.74,0.03-3.22-0.55-4.45-1.74c-1.23-1.19-1.86-2.65-1.89-4.39
				c-0.03-1.74,0.55-3.22,1.74-4.45c1.19-1.23,2.65-1.86,4.39-1.89C122.19,79.31,123.67,79.89,124.9,81.08z"/>
		</g>
		<g>
			<circle class="st8" cx="99.7" cy="90.52" r="4.28"/>
			<path class="st2" d="M84.34,101.6c0,1.18-0.96,2.14-2.14,2.14c-1.18,0-2.14-0.96-2.14-2.14s0.96-2.14,2.14-2.14
				C83.38,99.47,84.34,100.42,84.34,101.6z"/>
		</g>
		<g>
			<circle class="st8" cx="224.96" cy="59.29" r="4.28"/>
			<path class="st2" d="M209.6,70.38c0,1.18-0.96,2.14-2.14,2.14c-1.18,0-2.14-0.96-2.14-2.14c0-1.18,0.96-2.14,2.14-2.14
				C208.64,68.24,209.6,69.19,209.6,70.38z"/>
		</g>
		<g>
			<circle class="st8" cx="102.79" cy="22.92" r="4.28"/>
			<path class="st2" d="M105.61,39.49c0,1.18-0.96,2.14-2.14,2.14c-1.18,0-2.14-0.96-2.14-2.14c0-1.18,0.96-2.14,2.14-2.14
				C104.66,37.35,105.61,38.31,105.61,39.49z"/>
		</g>
		<g>
			<g>
				<path class="st9" d="M208.6,50.06c1.14-1.29,2.39-2.45,3.67-3.57c1.27-1.12,2.6-2.17,3.94-3.2c1.36-1,2.73-1.99,4.17-2.9
					c1.43-0.92,2.89-1.79,4.45-2.53c-1.14,1.3-2.39,2.46-3.66,3.57c-1.27,1.12-2.6,2.17-3.95,3.2c-1.36,1-2.74,1.99-4.17,2.9
					C211.63,48.45,210.17,49.32,208.6,50.06z"/>
			</g>
			<g>
				<path class="st9" d="M204.49,38.81c0.42-0.93,0.96-1.75,1.54-2.53c0.57-0.78,1.21-1.51,1.87-2.2c0.67-0.69,1.38-1.35,2.14-1.94
					c0.76-0.61,1.56-1.17,2.48-1.62c-0.42,0.93-0.96,1.75-1.54,2.53c-0.57,0.78-1.21,1.51-1.88,2.2c-0.67,0.69-1.38,1.34-2.14,1.94
					C206.21,37.8,205.41,38.36,204.49,38.81z"/>
			</g>
			<g>
				<path class="st9" d="M175.45,31.92c0.4-1.62,0.94-3.18,1.54-4.71c0.59-1.53,1.26-3.02,1.96-4.5c0.72-1.47,1.46-2.93,2.29-4.34
					c0.82-1.42,1.69-2.82,2.71-4.14c-0.39,1.63-0.94,3.18-1.54,4.71c-0.59,1.53-1.26,3.02-1.96,4.5c-0.72,1.47-1.46,2.93-2.29,4.34
					C177.34,29.2,176.47,30.6,175.45,31.92z"/>
			</g>
			<g>
				<path class="st9" d="M171.86,23.24c-0.12-0.8-0.08-1.54,0.01-2.27c0.08-0.73,0.25-1.44,0.46-2.14c0.21-0.69,0.47-1.38,0.81-2.03
					c0.33-0.66,0.72-1.3,1.26-1.89c0.12,0.8,0.08,1.54-0.01,2.28c-0.09,0.73-0.25,1.44-0.46,2.14c-0.22,0.69-0.47,1.37-0.81,2.03
					C172.79,22.01,172.4,22.65,171.86,23.24z"/>
			</g>
			<g>
				<path class="st9" d="M79.38,37.07c1.28,0.4,2.46,0.97,3.59,1.63c1.14,0.65,2.2,1.41,3.23,2.22c1.01,0.83,1.98,1.71,2.86,2.68
					c0.89,0.96,1.7,2,2.36,3.16c-1.16-0.67-2.21-1.42-3.24-2.19c-1.04-0.76-2.03-1.56-3.04-2.35c-0.98-0.81-1.98-1.61-2.94-2.46
					C81.25,38.92,80.29,38.05,79.38,37.07z"/>
			</g>
			<g>
				<path class="st9" d="M76.54,47.12c0.99,0.08,1.91,0.32,2.81,0.6c0.9,0.28,1.77,0.63,2.61,1.02c0.84,0.4,1.67,0.84,2.45,1.36
					c0.79,0.51,1.56,1.07,2.26,1.78c-0.99-0.08-1.91-0.31-2.81-0.6c-0.9-0.28-1.77-0.63-2.61-1.02c-0.84-0.4-1.67-0.84-2.45-1.36
					C78,48.39,77.24,47.83,76.54,47.12z"/>
			</g>
			<g>
				<path class="st9" d="M60.55,87.14c1.97-0.32,3.94-0.47,5.9-0.56c1.97-0.1,3.93-0.11,5.9-0.09c1.96,0.04,3.93,0.11,5.89,0.27
					c1.96,0.15,3.92,0.37,5.88,0.74c-1.97,0.32-3.94,0.47-5.9,0.56c-1.97,0.1-3.93,0.11-5.9,0.09c-1.96-0.05-3.93-0.11-5.89-0.28
					C64.47,87.73,62.51,87.52,60.55,87.14z"/>
			</g>
			<g>
				<path class="st9" d="M73.97,79.45c1.1-0.24,2.2-0.29,3.29-0.26c1.09,0.01,2.17,0.13,3.24,0.31c1.07,0.19,2.12,0.44,3.16,0.79
					c1.03,0.34,2.05,0.76,3.01,1.35c-1.13,0.08-2.21,0.02-3.28-0.08c-1.07-0.09-2.12-0.24-3.17-0.42c-1.05-0.18-2.09-0.4-3.13-0.67
					C76.04,80.21,75,79.91,73.97,79.45z"/>
			</g>
		</g>
	</g>
</g>
</svg>
