<?xml version="1.0" encoding="utf-8"?>
<!-- Generator: Adobe Illustrator 25.4.1, SVG Export Plug-In . SVG Version: 6.00 Build 0)  -->
<svg version="1.1" id="Layer_1" xmlns="http://www.w3.org/2000/svg" xmlns:xlink="http://www.w3.org/1999/xlink" x="0px" y="0px"
	 viewBox="0 0 300 300" style="enable-background:new 0 0 300 300;" xml:space="preserve">
<style type="text/css">
	.st0{clip-path:url(#SVGID_00000074424507517538435170000004956489523854961321_);fill:#D8A798;}
	.st1{clip-path:url(#SVGID_00000074424507517538435170000004956489523854961321_);}
	.st2{fill:#C0CCEA;}
	.st3{fill:#E57674;}
	.st4{fill:#2D2E41;}
	.st5{fill:#315369;}
	.st6{opacity:0.32;fill:#EE7574;}
	.st7{fill:#FFFFFF;}
	.st8{fill:none;stroke:#C0CCEA;stroke-width:0.5266;stroke-miterlimit:10;}
	.st9{fill:#1C283E;}
	.st10{fill:#F4F1F0;}
	.st11{fill:none;stroke:#2D2E41;stroke-miterlimit:10;}
</style>
<g>
	<defs>
		<path id="SVGID_1_" d="M272.76,167.87c0,67.48-54.7,122.18-122.18,122.18S28.4,235.35,28.4,167.87
			c0-67.48,54.7-160.1,122.18-160.1S272.76,100.39,272.76,167.87z"/>
	</defs>
	<clipPath id="SVGID_00000086687589395999264440000011349731127804688823_">
		<use xlink:href="#SVGID_1_"  style="overflow:visible;"/>
	</clipPath>
	
		<circle style="clip-path:url(#SVGID_00000086687589395999264440000011349731127804688823_);fill:#D8A798;" cx="150.58" cy="167.87" r="122.18"/>
	<g style="clip-path:url(#SVGID_00000086687589395999264440000011349731127804688823_);">
		<g>
			<g>
				<path class="st2" d="M211.65,121.95c0,0-21.43-11.93-52.9-20.51c-31.47-8.58-62.93-11.53-62.93-11.53s33.54,25.05,56.17,29.73
					S211.65,121.95,211.65,121.95z"/>
			</g>
			<g>
				<path class="st3" d="M175.28,197.88l-52.15-85.27l-33.45-10.82c0,0-8.86,16.73-11.81,26.24c-2.95,9.51-5.12,24.26-5.12,24.26
					s-5.03,2.34-9.88,9.37c-4.84,7.03-5.69,15.88-5.69,15.88l12.45,3.78c0,0-0.84,56.55,45.04,47.62l28.36,50.48l56.51-39.23
					L175.28,197.88z"/>
				<path class="st4" d="M211.65,121.95c4.54,8.18,6.44,17.81,5.33,27.1c-0.09,0.74-0.35,1.65-1.09,1.75
					c-0.38,0.05-0.75-0.14-1.06-0.36c-1.76-1.19-2.94-3.2-3.13-5.32c1.36,8.39-0.22,17.05-3.32,24.97
					c-3.1,7.91-7.66,15.16-12.43,22.19c-2.18,3.22-4.44,6.44-5.83,10.07c-1.39,3.63-1.85,7.78-0.39,11.38
					c-1.87,0.13-3.77-0.79-4.84-2.33c1.3,1.71,2.5,4.41,0.78,5.7c-1.13,0.85-2.74,0.34-4.04-0.21c-3.49-1.46-7.04-2.94-9.99-5.3
					c-3.87-3.1-6.47-7.5-8.7-11.93c-5.11-10.17-8.75-21.08-10.76-32.28c-5.02-0.6-10.63-0.98-15.66-1.58
					c0.08-6.52,0.16-13.22,0.91-19.7c-49.62-8.34-45.88-36.42-47.06-40.5c-2.61,2.43-5.18,5.46-7.12,8.46
					c-0.12,0.19-0.07,0.06-0.19,0.26c-2.89-4.39-2.3-10.46,0.48-14.91c2.79-4.46,7.41-7.48,12.26-9.5c0,0,19.26,14.27,56.88,22.88
					S211.65,121.95,211.65,121.95z"/>
				<path class="st4" d="M114.37,229.12c10.77-5.6,20.28-13.58,27.66-23.22c-5.09,12.09-12.85,23.32-22.34,32.39"/>
				<path class="st5" d="M254.2,305.85c0,0-43.86-67.66-58.48-72.83c-14.62-5.18-44.77,17.67-64.57,33.81
					c-19.8,16.14-42.95,43.59-42.95,43.59L254.2,305.85z"/>
				
					<ellipse transform="matrix(0.0953 -0.9955 0.9955 0.0953 -82.9111 254.0164)" class="st6" cx="98.29" cy="172.62" rx="8.64" ry="13.63"/>
				<path class="st4" d="M79.59,150.59c0,2.98,1.54,5.4,3.45,5.4c1.9,0,3.45-2.42,3.45-5.4c0-2.98-1.54-5.4-3.45-5.4
					C81.14,145.18,79.59,147.6,79.59,150.59z"/>
				<path class="st4" d="M108.22,144.5c-11.34-2.2-31.13-13.69-31.13-13.69s1.48-5.22,2.45-7.38
					C87.52,132.15,97.45,139.59,108.22,144.5z"/>
				<path class="st4" d="M212.51,122.76c1.79,6.12,3.85,12.65,8.9,16.54c3.15,2.43,7.1,3.52,10.67,5.27
					c5.92,2.9,10.93,7.86,13.31,14.01c2.38,6.15,1.92,13.47-1.74,18.95c5.81-2.02,12.48,2.18,14.69,7.92
					c2.21,5.74,0.8,12.33-2.01,17.8c6.32-2.1,13.68,1.86,16.44,7.92c2.76,6.07,1.39,13.48-2.4,18.97
					c-3.79,5.48-9.68,9.22-15.89,11.64c1.92,0.73,2.93,2.97,2.82,5.02c-0.11,2.05-1.12,3.94-2.22,5.67
					c-6.08,9.54-15.98,16.57-26.99,19.15c-3,0.7-7.12,0.47-7.97-2.49c1.07,1.45,0.61,3.61-0.57,4.97c-1.18,1.36-2.9,2.11-4.57,2.8
					c-5.33,2.19-10.84,4.17-16.59,4.63s-11.82-0.74-16.31-4.35c-4.49-3.61-7.03-9.9-5.26-15.39c-5.93,3.41-13.68,3.37-19.58-0.1
					c-5.89-3.47-9.69-10.23-9.58-17.07c0.07-4.38,2.42-9.37,6.76-10c-5.44-0.47-9.23-6.01-9.96-11.43
					c-1.19-8.84,4.26-18.14,12.55-21.43c-4.41-2.62-6.27-8.79-4.04-13.41c0.75-1.56,1.88-2.9,3-4.22
					c17.58-20.55,33.68-46.43,55.66-62.19"/>
				<g>
					<path class="st3" d="M177.34,159.94c-0.45,7.52-4.26,14.77-10.2,19.4c-1.86,1.45-3.97,2.67-6.3,3.03
						c-5.25,0.82-10.39-3.12-12.41-8.03c-2.03-4.91-1.55-10.51-0.36-15.69c1.53-6.7,4.94-13.88,11.48-15.99
						C170.08,139.27,177.89,150.63,177.34,159.94z"/>
					<path class="st3" d="M154.09,176.44c2.25-0.89,4.24-2.43,5.68-4.38c0.29-0.39,0.56-0.82,0.6-1.31c0.08-0.93-0.7-1.68-1.41-2.28
						c-1.44-1.21-2.88-2.43-4.32-3.64c-0.29-0.24-0.59-0.5-0.72-0.85c-0.14-0.39-0.06-0.82,0.03-1.22
						c1.09-5.15,2.43-10.72,6.52-14.04c1.1-0.9,2.41-1.6,3.83-1.74c2.1-0.21,4.17,0.85,5.65,2.35c1.48,1.5,2.47,3.42,3.39,5.31
						c0,0,2,10.67-4.94,17.77C161.45,179.51,154.09,176.44,154.09,176.44z"/>
					<g>
						<path class="st4" d="M173.33,154.64c-1.13-1.86-2.26-3.76-3.85-5.13c-1.54-1.36-3.61-2.18-5.47-1.77
							c-1.86,0.43-3.51,1.82-4.74,3.42c-1.25,1.61-2.15,3.51-2.81,5.51c-0.7,1.99-1.17,4.09-1.65,6.2
							c-0.06,0.27-0.11,0.48-0.11,0.63c0,0.16,0,0.17,0.06,0.28c0.12,0.2,0.65,0.62,1.03,0.97c0.82,0.71,1.63,1.44,2.44,2.17
							l1.22,1.1c0.42,0.38,0.86,0.81,1.19,1.41c0.35,0.57,0.41,1.47,0.08,2.07c-0.3,0.61-0.68,1-1.06,1.43
							c-1.53,1.65-3.47,2.9-5.58,3.51c1.94-1,3.63-2.39,4.88-4.09c0.3-0.42,0.64-0.87,0.78-1.26c0.14-0.39,0.08-0.7-0.15-1.05
							c-0.46-0.68-1.45-1.31-2.28-2c-0.86-0.67-1.71-1.35-2.55-2.04c-0.42-0.38-0.82-0.57-1.37-1.24c-0.26-0.33-0.42-0.87-0.4-1.26
							c0-0.4,0.07-0.72,0.12-0.98c0.43-2.14,0.9-4.3,1.62-6.43c0.73-2.11,1.72-4.21,3.19-6.01c0.73-0.9,1.6-1.69,2.55-2.37
							c0.96-0.67,2.08-1.2,3.3-1.38c1.23-0.19,2.48,0.03,3.55,0.52c1.08,0.49,2.02,1.19,2.8,2.02
							C171.66,150.56,172.57,152.61,173.33,154.64z"/>
					</g>
				</g>
				<g>
					<path class="st4" d="M71.52,193.24c6.22,1.72,12.11,4.31,17.46,7.65c-5.81-2.45-11.91-4.03-18.04-4.71L71.52,193.24z"/>
				</g>
				<path class="st7" d="M82.68,160.29c0,0-6.75,12.2-0.52,12.2C88.39,172.48,82.68,160.29,82.68,160.29z"/>
			</g>
		</g>
		<g>
			<circle class="st8" cx="217.85" cy="113.8" r="4.12"/>
			<path class="st2" d="M232.63,124.46c0,1.14,0.92,2.06,2.06,2.06c1.14,0,2.06-0.92,2.06-2.06c0-1.14-0.92-2.06-2.06-2.06
				C233.55,122.4,232.63,123.32,232.63,124.46z"/>
		</g>
		<g>
			<circle class="st8" cx="122.15" cy="27.74" r="4.12"/>
			<path class="st2" d="M105.85,47.32c0,1.14,0.92,2.06,2.06,2.06c1.14,0,2.06-0.92,2.06-2.06c0-1.14-0.92-2.06-2.06-2.06
				C106.77,45.26,105.85,46.19,105.85,47.32z"/>
		</g>
		<g>
			<path class="st8" d="M194.38,34.26c0,2.27,1.84,4.12,4.12,4.12s4.12-1.84,4.12-4.12c0-2.27-1.84-4.12-4.12-4.12
				S194.38,31.99,194.38,34.26z"/>
			<path class="st2" d="M195.78,50.2c0,1.14,0.92,2.06,2.06,2.06c1.14,0,2.06-0.92,2.06-2.06c0-1.14-0.92-2.06-2.06-2.06
				C196.7,48.15,195.78,49.07,195.78,50.2z"/>
		</g>
		<g>
			<g>
				<path class="st2" d="M104.88,108.68c2.58,4.26,5.74,8.13,9.39,11.45c3.65,3.32,7.76,6.13,12.24,8.19
					c4.44,2.13,9.23,3.5,14.12,4.19c2.44,0.35,4.92,0.52,7.39,0.49c2.48,0.01,4.95-0.21,7.42-0.57c-2.42,0.58-4.91,0.9-7.4,1.06
					c-2.5,0.12-5.01,0.05-7.5-0.22c-4.99-0.55-9.88-1.95-14.45-4.05c-4.53-2.18-8.74-5.05-12.34-8.54
					C110.15,117.2,107.1,113.14,104.88,108.68z"/>
			</g>
			<g>
				<path class="st2" d="M127.66,113.76c5.77,3.33,11.77,6.22,17.97,8.59c6.2,2.37,12.57,4.29,19.07,5.62
					c6.48,1.4,13.09,2.21,19.72,2.53l4.98,0.14l4.98-0.07l4.98-0.25l4.97-0.45l-4.95,0.71l-4.98,0.48l-5,0.21l-5.01-0.01
					c-6.68-0.16-13.34-0.99-19.89-2.32c-6.53-1.42-12.96-3.34-19.15-5.88C139.17,120.53,133.21,117.44,127.66,113.76z"/>
			</g>
			<g>
				<path class="st2" d="M199.45,142.97c3.14,0.03,6.27,0.51,9.3,1.39c3.02,0.87,5.97,2.19,8.44,4.24c1.23,1.01,2.31,2.24,3.13,3.63
					c0.83,1.39,1.32,3,1.41,4.63c0.1,1.62-0.18,3.28-0.87,4.78c-0.67,1.5-1.84,2.81-3.33,3.61l-0.16-0.86
					c2.65,0.29,5.24,1.13,7.54,2.51c2.29,1.37,4.29,3.33,5.51,5.76c1.23,2.43,1.55,5.26,1.03,7.91c-0.52,2.64-1.98,5.18-4.28,6.69
					l-0.21-0.79c2.65,0.16,5.14,1.43,6.99,3.25c1.85,1.82,3.12,4.28,3.34,6.88c0.23,2.61-0.64,5.21-2.15,7.27
					c-1.5,2.07-3.7,3.65-6.18,4.21c2.44-0.69,4.53-2.33,5.92-4.4c1.4-2.06,2.11-4.59,1.85-7.04c-0.26-2.45-1.51-4.74-3.29-6.41
					c-1.78-1.68-4.12-2.77-6.53-2.91l-1.28-0.07l1.07-0.71c2.07-1.38,3.4-3.71,3.86-6.15c0.47-2.45,0.15-5.08-0.99-7.29
					c-1.15-2.22-2.99-4.06-5.14-5.38c-2.16-1.32-4.62-2.14-7.14-2.43l-1.46-0.17l1.31-0.69c1.29-0.68,2.33-1.81,2.95-3.17
					c0.63-1.35,0.9-2.87,0.82-4.37c-0.05-3.05-1.8-5.83-4.11-7.82c-2.33-2.02-5.2-3.37-8.14-4.36
					C205.67,143.75,202.57,143.17,199.45,142.97z"/>
			</g>
			<g>
				<path class="st2" d="M194.25,181.42c3.07,0.53,6.12,1.29,9.01,2.52c2.88,1.22,5.6,3.01,7.61,5.49c2.02,2.5,3.02,5.74,2.91,8.95
					c-0.07,1.61-0.44,3.22-1.18,4.67c-0.73,1.45-1.88,2.73-3.3,3.57l-0.07-0.82c3.96,1.46,7.12,4.9,8.2,9
					c1.05,4.11-0.02,8.65-2.77,11.86l-0.23-0.73c6,1.52,10.64,7.05,11.13,13.15c0.5,6.1-3.22,12.2-8.71,14.57
					c5.37-2.63,8.68-8.71,8.09-14.51c-0.62-5.8-5.14-10.94-10.73-12.33l-0.71-0.18l0.47-0.56c2.53-2.99,3.49-7.25,2.49-11.02
					c-0.98-3.77-3.88-7.03-7.55-8.4l-0.91-0.34l0.84-0.48c2.6-1.49,3.98-4.51,4.1-7.5c0.17-3-0.71-6.11-2.57-8.51
					c-1.88-2.43-4.48-4.22-7.27-5.54C200.3,182.97,197.28,182.11,194.25,181.42z"/>
			</g>
			<g>
				<path class="st2" d="M178.05,198.25c2.59,0.79,4.87,2.52,6.51,4.71c1.64,2.19,2.63,4.91,2.69,7.69
					c0.06,2.79-0.86,5.56-2.46,7.83c-1.59,2.28-3.85,4.12-6.5,5.07l-0.21-0.93c0.96-0.11,1.95,0.14,2.76,0.63
					c0.82,0.49,1.47,1.19,1.95,1.97c0.96,1.56,1.34,3.5,0.85,5.31c-0.48,1.77-1.56,3.29-2.85,4.49c-1.29,1.21-2.78,2.17-4.33,2.94
					l-0.07-0.73c1.72,0.59,2.7,2.33,2.74,4c0.03,1.69-0.76,3.26-1.81,4.46c-2.14,2.42-5.54,3.61-8.63,3.02
					c3.12,0.36,6.34-0.96,8.25-3.35c0.96-1.16,1.62-2.64,1.55-4.11c-0.06-1.43-0.99-2.87-2.32-3.26l-0.91-0.27l0.85-0.47
					c1.48-0.81,2.9-1.73,4.09-2.88c1.19-1.14,2.15-2.53,2.55-4.09c0.4-1.52,0.05-3.21-0.78-4.55c-0.83-1.33-2.25-2.33-3.78-2.17
					l-4.21,0.46l4-1.39c2.45-0.85,4.59-2.55,6.1-4.67c1.51-2.13,2.43-4.7,2.47-7.32C186.58,205.39,183.1,200.21,178.05,198.25z"/>
			</g>
		</g>
		<g>
			<polygon class="st9" points="167.1,69.51 157.94,88.28 154.48,83.29 167.73,84.52 171.69,84.89 169.98,87.97 157.07,111.13 
				165.48,85.99 167.73,89.44 154.48,90.67 149.53,91.13 151.03,85.67 156.58,65.53 			"/>
		</g>
		<g>
			<polygon class="st9" points="231.01,86.66 226.45,96 224.73,93.52 231.32,94.13 233.29,94.31 232.44,95.85 226.02,107.37 
				230.2,94.86 231.32,96.58 224.73,97.19 222.26,97.42 223.01,94.7 225.77,84.68 			"/>
		</g>
		<polygon class="st9" points="103.89,62.9 98.49,72.93 96.32,69.79 102.91,70.56 105.43,70.86 104.33,72.73 97.61,84.13 
			101.5,71.48 102.91,73.65 96.32,74.43 93.28,74.79 94.15,71.29 96.35,62.43 		"/>
		<g>
			<polygon class="st9" points="207.85,86.66 203.29,96 201.57,93.52 208.16,94.13 210.13,94.31 209.28,95.85 202.86,107.37 
				207.04,94.86 208.16,96.58 201.57,97.19 199.1,97.42 199.85,94.7 202.61,84.68 			"/>
		</g>
		<path class="st10" d="M207.93,72.03h-98.09c-0.73-4.03-0.11-7.69,2.64-10.73c2.75-3.04,6.96-4.7,11.04-4.37
			c-1.05-6.08,0.98-11.91,5.13-16.48c4.15-4.57,11.33-5.22,17.48-4.76c2.35-4.9,8.53-8.7,13.95-9.12c4.51-0.35,9.01,1.67,12.21,4.87
			c3.19,3.2,3.43,5.26,4.38,9.68c3.12-0.52,5.92-0.52,8.88,0.58c1.52,0.57,2.86,1.53,4.06,2.61c3.44,3.1,5.91,7.35,6.53,11.93
			c3.49,0.65,6.59,1.91,8.69,4.78C206.92,63.9,208.36,68.51,207.93,72.03z"/>
		<path class="st5" d="M248.43,88.2h-68.4c-0.51-2.81-0.08-5.37,1.84-7.48c1.92-2.12,4.85-3.28,7.7-3.05
			c-0.73-4.24,0.68-8.31,3.58-11.5c2.89-3.19,7.9-3.64,12.19-3.32c1.64-3.42,5.95-6.07,9.73-6.36c3.14-0.24,6.29,1.16,8.51,3.39
			c2.23,2.23,2.39,3.67,3.05,6.75c2.17-0.36,4.13-0.36,6.19,0.41c1.06,0.39,1.99,1.07,2.83,1.82c2.4,2.16,4.12,5.12,4.55,8.32
			c2.44,0.45,4.6,1.33,6.06,3.33C247.72,82.52,248.73,85.74,248.43,88.2z"/>
		<path class="st11" d="M139.16,62.55H83.9c-0.41-2.27-0.06-4.33,1.49-6.05s3.92-2.65,6.22-2.46c-0.59-3.43,0.55-6.71,2.89-9.29
			c2.34-2.58,6.38-2.94,9.85-2.68c1.32-2.76,4.81-4.9,7.86-5.14c2.54-0.2,5.08,0.94,6.88,2.74c1.8,1.8,1.93,2.97,2.47,5.45
			c1.76-0.29,3.33-0.29,5,0.33c0.85,0.32,1.61,0.86,2.29,1.47c1.94,1.74,3.33,4.14,3.68,6.72c1.97,0.37,3.71,1.08,4.89,2.69
			C138.6,57.97,139.41,60.56,139.16,62.55z"/>
	</g>
</g>
</svg>
